<svg xmlns="http://www.w3.org/2000/svg" width="24" height="24" viewBox="0 0 24 24">
    <path fill="#FFF" fill-rule="nonzero" d="M11.98.03C5.365.03 0 5.394 0 12.01c0 6.617 5.364 11.981 11.98 11.981 6.617 0 11.981-5.364 11.981-11.98 0-6.617-5.364-11.98-11.98-11.98zm6.327 17.481l-.96.96c-.17.17-.672.277-.688.277a11.321 11.321 0 0 1-8.103-3.312A11.335 11.335 0 0 1 5.24 7.304c0-.001.11-.488.281-.658l.96-.959c.35-.353 1.025-.512 1.497-.354l.202.067c.471.158.965.679 1.096 1.159l.482 1.77c.13.482-.045 1.166-.396 1.517l-.64.641a6.804 6.804 0 0 0 4.783 4.785l.64-.64c.353-.353 1.037-.528 1.517-.398l1.771.484c.48.132 1 .623 1.158 1.094l.068.204c.156.471-.002 1.146-.353 1.495z"/>
</svg>
