<svg xmlns="http://www.w3.org/2000/svg" width="26" height="14" viewBox="0 0 26 14">
    <path fill="#FFF" fill-rule="evenodd" d="M6.614 12.7C.902 10.983 0 6.38 0 0h22.068c0 .664-.013 1.302-.037 1.925.836-.098 2.107-.086 3.01.696.467.403 1.011 1.181.955 2.583-.13 3.201-3.617 4.114-5.785 4.159-.995 1.517-2.495 2.658-4.757 3.337h5.581a1.12 1.12 0 0 1-1.134 1.108H2.758A1.12 1.12 0 0 1 1.625 12.7h4.989zm14.45-5.118c1.259-.19 3.18-.756 3.248-2.44.034-.832-.257-1.09-.35-1.173-.51-.45-1.517-.384-2.102-.28-.135 1.432-.38 2.734-.795 3.893z"/>
</svg>
