<svg xmlns="http://www.w3.org/2000/svg" width="18" height="25" viewBox="0 0 18 25">
    <path fill="#0E0D0D" fill-rule="nonzero" d="M13.08 4.543c.993 0 1.902.534 2.34 1.385l.694 1.31C17.15 7.255 18 8.074 18 9.087c0 .892-.659 1.633-1.523 1.808l-.378 3.635-.566 5.386-.229 2.354c-.159 1.281-1.284 2.231-2.62 2.231H5.316c-1.337 0-2.462-.95-2.623-2.244l-.226-2.337-.567-5.39-.378-3.635C.66 10.72 0 9.978 0 9.086c0-1.013.85-1.832 1.886-1.847l.691-1.307c.44-.855 1.35-1.389 2.343-1.389h3.923l.815-2.327C10.02 1.186 11.021.5 12.146.5h3.229c.662 0 1.208.52 1.208 1.174 0 .654-.546 1.174-1.208 1.174h-3.229c-.096 0-.175.054-.2.126l-.55 1.569h1.684zm-3.882 0l-.472.335.117-.335h.355zm1.02.335l.784-2.235c.168-.48.63-.795 1.144-.795h3.229c.12 0 .208-.084.208-.174 0-.09-.087-.174-.208-.174h-3.229c-.707 0-1.325.424-1.544 1.047l-1.05 2.996H4.92c-.625 0-1.188.33-1.456.852l-.976 1.843h-.571c-.509 0-.917.389-.917.848 0 .46.408.848.917.848h.512l.047.448.42 4.042.567 5.395.225 2.327c.096.77.787 1.354 1.629 1.354h7.366c.842 0 1.533-.584 1.628-1.34l.227-2.345.566-5.39.467-4.491h.512c.509 0 .917-.389.917-.848 0-.46-.408-.848-.917-.848h-.571l-.141-.266-.837-1.581c-.266-.517-.829-.848-1.454-.848H9.986l.233-.665z"/>
</svg>
