<svg xmlns="http://www.w3.org/2000/svg" width="40" height="40" viewBox="0 0 40 40">
    <path fill="#212123" fill-rule="evenodd" d="M36.415 34.984H3.57a3.446 3.446 0 0 1-2.34-.87l11.33-11.176c.284.201.546.388.783.56a52.558 52.558 0 0 0 2.064 1.44c.528.346 1.23.698 2.108 1.057.878.36 1.696.539 2.455.539h.045c.758 0 1.576-.18 2.454-.54.878-.358 1.58-.71 2.109-1.056a52.254 52.254 0 0 0 2.064-1.44c.249-.178.512-.365.784-.557l11.328 11.173c-.662.578-1.44.87-2.34.87zM2.254 15.906a772.415 772.415 0 0 1 7.73 5.236L0 30.99V13.991a11.785 11.785 0 0 0 2.254 1.915zm35.5 0a12.265 12.265 0 0 0 2.231-1.915V30.99l-9.98-9.844a657.718 657.718 0 0 1 7.749-5.24zM36.414 4c.968 0 1.805.345 2.511 1.034.706.69 1.06 1.519 1.06 2.487 0 1.159-.365 2.266-1.093 3.322a10.539 10.539 0 0 1-2.722 2.707 21055.703 21055.703 0 0 0-10.442 7.152l-.334.234-.615.437c-.483.345-.885.624-1.204.837-.32.212-.707.45-1.161.715a6.798 6.798 0 0 1-1.283.594 3.596 3.596 0 0 1-1.116.198h-.044c-.342 0-.714-.066-1.116-.198a6.813 6.813 0 0 1-1.283-.594 22.78 22.78 0 0 1-1.16-.715c-.32-.213-.722-.492-1.205-.837a308.74 308.74 0 0 0-.615-.437c-.15-.105-.262-.185-.334-.234a1479.225 1479.225 0 0 0-5.846-4.016 960.875 960.875 0 0 1-4.574-3.136c-.922-.616-1.793-1.463-2.61-2.541C.41 9.93 0 8.93 0 8.006 0 6.862.31 5.908.926 5.145 1.544 4.383 2.424 4 3.57 4h32.845z"/>
</svg>
