<svg xmlns="http://www.w3.org/2000/svg" width="40" height="40" viewBox="0 0 40 40">
    <path fill="#212123" fill-rule="nonzero" d="M.707 19.264l9.216 3.545 3.568 11.823c.228.758 1.127 1.038 1.723.535l5.138-4.316a1.497 1.497 0 0 1 1.868-.054l9.266 6.933c.638.478 1.542.118 1.702-.677l6.788-33.649c.175-.868-.652-1.592-1.454-1.272L.696 17.17c-.934.37-.926 1.733.01 2.094zm12.209 1.658L30.929 9.49c.324-.205.657.246.379.512l-14.866 14.24a3.209 3.209 0 0 0-.955 1.9l-.507 3.868c-.067.517-.77.568-.909.068l-1.948-7.052a1.896 1.896 0 0 1 .793-2.103z"/>
</svg>
