<svg xmlns="http://www.w3.org/2000/svg" width="38" height="50" viewBox="0 0 38 50">
    <g fill="#212123" fill-rule="evenodd">
        <path d="M20.563 11.719c-.164 0-.33-.025-.495-.076-.818-.255-1.26-1.084-.987-1.853l2.412-6.786C22.133 1.207 23.92 0 25.94 0h7.122c.864 0 1.563.655 1.563 1.465s-.699 1.465-1.563 1.465H25.94c-.673 0-1.27.402-1.483 1.001l-2.413 6.786c-.218.614-.827 1.002-1.482 1.002"/>
        <path d="M34.469 15.469l-2.282-4.248c-.78-1.494-2.406-2.432-4.187-2.432H10c-1.781 0-3.406.938-4.187 2.432L3.53 15.469c-.219.44-.219.996.063 1.406.312.44.812.703 1.344.703h28.125c.53 0 1.031-.264 1.343-.703.282-.41.282-.967.063-1.406M34.625 19.219l-1.063 10.078-3.374 2.93H7.155l-2.718-2.93-1.063-10.078c-.031-.44.094-.85.406-1.143.281-.322.719-.498 1.156-.498h28.125c.438 0 .876.176 1.157.498.312.293.437.703.406 1.143M32.313 41.016l-.5 5.087C31.53 48.33 29.53 50 27.124 50h-16.25c-2.406 0-4.406-1.67-4.687-3.897l-.5-5.087 2.906-2.93H28.25l4.063 2.93"/>
        <path d="M28.25 38.086l4.063 2.93-.5 5.087C31.53 48.33 29.53 50 27.125 50H19V38.086h9.25M19 17.578h14.063c.437 0 .875.176 1.156.498.312.293.437.703.406 1.143L19 17.579z"/>
        <path d="M33.562 29.297l-1.25 11.719H5.689l-1.25-11.72h29.124"/>
        <path d="M33.562 29.297l-1.25 11.719H19v-11.72zM37.75 17.578c0 1.611-1.406 2.93-3.125 2.93H3.375c-1.719 0-3.125-1.319-3.125-2.93 0-1.611 1.406-2.93 3.125-2.93h31.25c1.719 0 3.125 1.319 3.125 2.93"/>
        <path d="M37.75 17.578c0 1.611-1.406 2.93-3.125 2.93H19v-5.86h15.625c1.719 0 3.125 1.319 3.125 2.93"/>
        <path d="M34.406 16.875c-.312.44-.812.703-1.343.703H19V8.79h9c1.781 0 3.406.938 4.187 2.432l2.282 4.248c.219.44.219.996-.063 1.406"/>
    </g>
</svg>
