<svg xmlns="http://www.w3.org/2000/svg" width="50" height="50" viewBox="0 0 50 50">
    <g fill="none" fill-rule="nonzero">
        <path fill="#212123" d="M40.46 12.5c-5.078 0-9.21 3.933-9.21 8.767 0 2.177 3.093 7.568 9.278 16.17 6.095-7.794 9.143-13.185 9.143-16.17 0-4.834-4.132-8.767-9.21-8.767zm0 10.958c-1.269 0-2.302-.983-2.302-2.191 0-1.209 1.033-2.192 2.303-2.192 1.269 0 2.302.983 2.302 2.192 0 1.208-1.033 2.191-2.302 2.191zM21.71 0c-5.078 0-9.21 3.933-9.21 8.767 0 2.177 3.093 7.568 9.278 16.17 6.095-7.794 9.143-13.185 9.143-16.17C30.921 3.933 26.79 0 21.711 0zm0 10.958c-1.269 0-2.302-.983-2.302-2.191 0-1.209 1.033-2.192 2.303-2.192 1.269 0 2.302.983 2.302 2.192 0 1.208-1.033 2.191-2.302 2.191zM9.21 25C4.133 25 0 28.933 0 33.767c0 2.177 3.093 7.568 9.278 16.17 6.095-7.794 9.143-13.185 9.143-16.17 0-4.834-4.132-8.767-9.21-8.767zm0 10.958c-1.269 0-2.302-.983-2.302-2.191 0-1.209 1.033-2.192 2.303-2.192 1.269 0 2.302.983 2.302 2.192 0 1.208-1.033 2.191-2.302 2.191z"/>
        <path stroke="#212123" stroke-dasharray="3.75" stroke-linecap="round" stroke-linejoin="round" stroke-width="1.875" d="M22.992 25.552l17.085 11.26-27.871 12.072"/>
    </g>
</svg>
