<svg xmlns="http://www.w3.org/2000/svg" width="50" height="50" viewBox="0 0 50 50">
    <g fill="#212123" fill-rule="evenodd">
        <path fill-rule="nonzero" d="M0 49.999h22.727V27.272H0v22.727zm4.545-18.181h13.636v13.6H4.545v-13.6z"/>
        <path d="M9.091 36.363h4.545v4.546H9.091zM36.362 45.454h4.546v4.545h-4.546zM45.453 45.454h4.546v4.545h-4.546z"/>
        <path d="M45.453 31.818h-4.545v-4.546H27.272v22.727h4.546V36.363h4.544v4.545H50V27.272h-4.546z"/>
        <path fill-rule="nonzero" d="M0 22.727h22.727V0H0v22.727zM4.545 4.545h13.636v13.636H4.545V4.545z"/>
        <path d="M9.091 9.091h4.545v4.546H9.091z"/>
        <path fill-rule="nonzero" d="M27.272 0v22.727h22.727V0H27.272zm18.181 18.181H31.818V4.545h13.635v13.636z"/>
        <path d="M36.362 9.091h4.546v4.546h-4.546z"/>
    </g>
</svg>
