<svg xmlns="http://www.w3.org/2000/svg" width="28" height="50" viewBox="0 0 28 50">
    <g fill="none" fill-rule="evenodd">
        <path fill="#212123" fill-rule="nonzero" d="M25.216 0H2.762C1.272 0 .061 1.124.061 2.505v44.972c0 1.379 1.21 2.503 2.701 2.503h22.454c1.49 0 2.702-1.124 2.702-2.503V2.504C27.918 1.123 26.707 0 25.216 0zM10.07 3.892h7.839v.53h-7.84v-.53zm3.92 43.466c-.834 0-1.511-.652-1.511-1.454 0-.8.677-1.452 1.51-1.452.834 0 1.512.652 1.512 1.452 0 .802-.678 1.454-1.511 1.454zm12.084-5.443H1.908V7.435h24.166v34.48z"/>
        <path fill="#070707" d="M12.666 19.867c-.02.054-.047.067-.108.047-.309-.134-.605-.087-.894.088-.013.006-.033.006-.06.006.013-.027.013-.04.02-.047.067-.053.135-.1.202-.148.033-.02.06-.033.094-.053.087-.047.168-.101.255-.141.088-.034.27-.095.29-.101.241.013.302.054.41.074.08.013.12.053.174.14-.08.008-.148.014-.215.014-.087 0-.135.034-.168.121zm1.78 1.102c.142.128.35.189.424.384-.127-.081-.255-.168-.383-.25-.054-.033-.047-.08-.04-.134zm-.14-.793c-.054-.02-.06-.074-.034-.147.188.16.383.268.632.221-.087.068-.188.06-.276.04-.114-.026-.215-.073-.322-.114zm-1.123-1.841c.068.013.135.04.202.06.054.014.1.027.155.04 0 .014-.007.02-.007.034l-.249-.04-.107-.02c-.141-.014-.283-.007-.424-.007-.107 0-.222.007-.33.007-.006-.007-.006-.02-.013-.027.256-.027.518-.067.773-.047zm-1.539 1.929a.87.87 0 0 1 .397-.242c.007.007.013.02.02.027-.054.053-.114.094-.161.148-.047.047-.088.1-.128.16-.034.055-.074.041-.108.014-.033-.027-.053-.067-.02-.107zm12.951.92c.619 1.452.928 2.991.928 4.577a11.728 11.728 0 0 1-3.448 8.314 11.644 11.644 0 0 1-3.737 2.52c-1.451.619-2.99.928-4.577.928a11.728 11.728 0 0 1-8.313-3.448 11.644 11.644 0 0 1-2.52-3.737A11.608 11.608 0 0 1 2 25.761c0-1.586.31-3.125.927-4.576a11.571 11.571 0 0 1 2.52-3.737 11.571 11.571 0 0 1 3.738-2.52A11.608 11.608 0 0 1 13.76 14c1.586 0 3.126.31 4.577.927a11.717 11.717 0 0 1 3.737 2.52 11.644 11.644 0 0 1 2.52 3.738zM5.622 33.9c.162.162.323.316.478.464v-.013c-.007-.02-.007-.048-.014-.074-.175-.404-.309-1.049-.484-1.452-.074-.182-.168-.766-.161-.988.027-.598.33-2.38.41-2.534.013-.222.013-.726.007-.833-.014-.296-.034-.592-.007-.887a5.82 5.82 0 0 1 .229-1.069c.235-.806 1.041-3.42 2.264-3.555.202-.08.404-.162.605-.249.188-.08.377-.175.565-.255.134-.06.275-.115.417-.175v-.02c-.081-.054-.162-.101-.242-.155a1.316 1.316 0 0 0-.384-.14c-.04-.008-.08.006-.12.013a.76.76 0 0 1-.437-.054.438.438 0 0 1-.222-.188.58.58 0 0 0-.31-.229c-.093-.033-.154-.114-.214-.188a.772.772 0 0 0-.189-.202.85.85 0 0 1-.356-.41c-.02-.04-.047-.08-.074-.12-.006 0-.013.006-.02.006-.007.014-.007.034-.007.047.02.155.034.316.06.47.021.095-.012.175-.04.256a.69.69 0 0 0-.02.37c.06.255.014.504-.08.739-.054.128-.114.242-.088.383.014.067-.033.108-.073.155a.719.719 0 0 0-.195.329c-.007.02-.014.04-.007.06.027.081-.007.142-.054.209-.054.08-.1.168-.154.255l-.04.06c-.008-.006-.014-.006-.02-.013.033-.067.066-.134.107-.201a.565.565 0 0 0 .114-.357c-.007-.12.06-.215.134-.295a.391.391 0 0 0 .128-.262c.013-.182.107-.337.161-.505a1.17 1.17 0 0 0 .04-.504c-.013-.12-.033-.235-.013-.356.027-.195 0-.383-.027-.571-.02-.182-.047-.356-.067-.538a.175.175 0 0 0-.02-.074c-.074.088-.148.168-.175.283-.007.033-.013.067-.013.1a.33.33 0 0 1-.141.29c-.148.114-.242.255-.229.463 0 .04-.007.08-.013.121a.295.295 0 0 1-.135.215c-.04.027-.087.054-.127.08l-.02.021c-.068.06-.155.1-.236.141a.89.89 0 0 0-.195.222c-.148.222-.289.45-.497.618a.631.631 0 0 1-.121.08c-.135.068-.692.841-.948 1.063a4.142 4.142 0 0 1-.96.806c-.149.088-.807.424-1.137.726-.006.094-.006.188-.006.282 0 1.553.302 3.065.907 4.476A11.466 11.466 0 0 0 5.622 33.9zm7.447-17.386c-.141.04-.269.1-.383.194a2.892 2.892 0 0 0-.376.384c-.04.053-.088.1-.135.147l-.262.242c-.154.148-.302.31-.464.45a3.089 3.089 0 0 0-.504.599c-.013.02-.013.047-.02.074l.02.02c.027-.027.06-.047.081-.08.121-.182.282-.303.43-.451.135-.128.282-.242.41-.376.269-.29.524-.592.8-.874.128-.128.275-.242.457-.29a.204.204 0 0 0 .047-.033c0-.006-.007-.013-.007-.02-.033.007-.067.007-.094.014zm-.363.067c.135 0 .363-.128.37-.202a1.003 1.003 0 0 0-.37.202zm4.853 6.835c.013.013.006.309.013.403l-.1.639c-.041.228-.075.463-.128.692a6.38 6.38 0 0 1-.148.51c-.074.25-.135.511-.249.747-.181.376-.383.739-.578 1.108-.04.081-.108.142-.148.222-.12.249-.309.437-.484.639-.282.316-.591.605-.887.907-.047.047-.1.087-.154.134.107-.154.215-.295.329-.43.275-.329.578-.631.793-1.014.1-.189.215-.37.33-.552.08-.134.187-.262.248-.41.128-.302.235-.611.343-.927.067-.195.114-.403.154-.612.04-.188.188-1.458.141-2.097-.013-.181-.006-.37-.026-.55a1.29 1.29 0 0 0-.169-.538c-.053-.08-.094-.168-.14-.27-.007.028-.02.048-.02.068a3.12 3.12 0 0 0-.008.356c.007.101.027.202.027.303 0 .161-.013.316-.02.47-.007.088-.007.175-.02.262a5.096 5.096 0 0 1-.202.706c-.053.128-.329.793-.336.8-.134.269-.268.537-.416.8-.148.255-.33.49-.478.739-.114.195-.396.78-.396.874.148-.095.289-.162.417-.256.134-.1.255-.235.383-.356.027-.027.06-.054.087-.087-.04.08-.08.154-.12.235-.169.309-.344.632-.552.9l-.383.484c-.255.209-.51.41-.76.619-.087.073-.16.181-.255.248a.835.835 0 0 0-.235.296c-.06.114-.121.228-.202.316a.834.834 0 0 1-.336.208c-.04.014-.067.04-.1.06 0 .007.006.02.006.028.088.013.168.026.256.033.134.014.275.014.41.02.087 0 .174.014.262.014.248.006.477-.094.725-.074.007 0 .007-.007.014-.007.161-.04.33-.074.49-.128.169-.06.33-.154.505-.208.275-.087.49-.269.699-.464.094-.087.181-.181.262-.275.147-.182.302-.363.443-.551.08-.115.148-.242.222-.363.215-.356.444-.706.585-1.102l.06-.175c-.007-.007-.013-.007-.02-.014a.241.241 0 0 0-.047.068c-.027.04-.04.087-.067.127-.195.256-.383.518-.585.773-.161.208-.33.41-.497.605-.202.229-.417.45-.625.679-.081.087-.162.188-.249.275-.1.101-.215.195-.31.303-.093.1-.187.134-.328.08.04-.026.073-.053.1-.073.303-.222.558-.498.807-.78.175-.202.33-.423.504-.625.141-.161.255-.336.356-.524.034-.068.067-.135.108-.202.074-.12.148-.242.215-.363.033-.067.053-.148.094-.215.14-.235.302-.464.39-.733.047-.134.114-.262.168-.39.074-.174.168-.342.215-.524.067-.282.114-.564.148-.846.026-.215.006-1.062-.054-1.21-.047-.121-.249-.135-.377-.188-.14-.054-.275-.128-.41-.188-.02-.014-.053 0-.067.02a.16.16 0 0 0-.033.094c0 .161 0 .316.006.477.007.202.04.403.034.605-.007.269-.047.53-.074.8-.013.127-.034.262-.047.39 0 .006.007.02.013.053.034-.054.06-.087.081-.12.108-.176.141-.37.182-.559.047-.228.06-.457.094-.685.02-.155.053-.31.08-.464.007-.013.027-.027.04-.04zm.484-1.842a1.563 1.563 0 0 1-.034-.188c0-.06.02-.12.02-.181 0-.175.007-.357.007-.531 0-.007-.007-.007-.014-.014-.006 0-.013 0-.02.007a.463.463 0 0 0-.074.087c-.181.25-.39.457-.685.538l-.04.02c-.054.02-.068.054-.075.108-.006.12-.006.235-.033.35a.931.931 0 0 0 .033.47c.027.074.04.148.068.221.006.034.027.06.047.081.154.175.37.215.578.269.067-.182.134-.356.195-.531.013-.027.006-.06.013-.087.014-.074.034-.142.047-.215.007-.047.034-.095.027-.142-.007-.087-.04-.174-.06-.262zm-2.138 10.693c-.033-.074-.174-.128-.255-.08a.3.3 0 0 0-.087.147c-.007.04.067.101.12.101.074-.027.148-.047.216-.08.013-.007.02-.068.006-.088zm-.167-.244c.02.02.031.031.042.052l.02-.02c-.02-.011-.03-.032-.052-.043l-.01.01zm.665.694c-.121.06-.162.175-.182.31-.007.033.007.073.014.127.033-.02.047-.027.053-.04.068-.094.142-.188.202-.29.013-.02.007-.066-.007-.086-.013-.02-.06-.034-.08-.02zm-.101-.295c-.007 0-.02.047-.02.06.006.06.02.114.033.175.115-.034.148-.155.074-.222-.02-.013-.06-.02-.087-.013zm-.02.934c-.034.02-.054.06-.088.087a22.4 22.4 0 0 1-.416.282c.047.034.087.061.127.095-.006.006-.006.02-.013.026-.06-.02-.121-.04-.195-.067.02.054.034.101.04.141.007.02-.006.04-.006.06-.02-.006-.047-.006-.06-.02a.181.181 0 0 1-.048-.053l-.108-.128c-.047.027-.067.04-.107.06.007-.087-.034-.114-.087-.14a.6.6 0 0 1-.195-.148c-.115-.141-.27-.148-.424-.168 0 0-.006.006-.02.027.034.033.067.067.108.1.114.101.14.229.074.39.013.014.04.027.067.047.175.135.35.262.53.39.068.047.149.04.216-.007.114-.087.235-.16.35-.248.046-.034.093-.081.107-.128.04-.148.087-.289.168-.417.04-.06.06-.127.087-.188a.093.093 0 0 0-.02-.027c-.027.014-.06.014-.087.034zm.208 1.001c-.034.034-.067.04-.094 0-.06-.054-.108-.114-.161-.175-.014-.013-.027-.04-.047-.06-.108.054-.209.1-.31.155-.047.02-.08.06-.12.094-.169.134-.337.094-.505.006-.12-.06-.201-.154-.289-.255a.494.494 0 0 0-.127-.108c-.128-.073-.229-.194-.336-.302a1.937 1.937 0 0 0-.236-.175c-.013-.013-.047 0-.074.007a3.379 3.379 0 0 0-.275.114c-.054.027-.094.06-.148.094-.054.02-.114.027-.168.054-.128.06-.249.128-.376.182-.188.08-.383.154-.572.221-.181.068-.356.121-.537.182a.591.591 0 0 0-.101.033c-.114.04-.188-.04-.276-.094-.074-.047-.147-.107-.228-.154-.014-.014-.047-.007-.074 0-.087.027-.161.047-.229-.04-.08-.095-.174-.182-.268-.276-.02-.02-.047-.034-.081-.054.067.128.04.457-.04.854.282.074.557.161.84.221.632.142 1.277.175 1.922.209.356.02.712.04 1.062.007.786-.074 1.525-.39 2.245-.706-.02-.155.006-.04-.02-.215-.007-.06-.034-.114-.048-.175-.006-.007-.013-.007-.02-.007-.047.06-.1.115-.148.175-.053.06-.107.128-.161.188zm-.007-.37c.027.04.04.088.08.115.014.007.068-.014.088-.04.054-.074.115-.148.162-.229.026-.047.02-.094-.034-.128-.087-.06-.094-.067-.155.034-.013.013-.026.02-.033.034-.034.067-.067.14-.108.215zm-1.646 1.392a11.428 11.428 0 0 0 2.13-.444l-.04-.269c-.592.094-1.13.404-1.7.599-.128.047-.256.08-.39.114zM17 35.197c-1.015.296-2.03.538-3.078.511-1.09-.027-2.043-.087-2.984-.43-.054-.02-.148-.047-.242-.08-.02.067-.034.134-.054.201.47.175 1.243.497 3.212.544 1.083.027 2.158-.174 3.18-.484a3.493 3.493 0 0 0-.034-.262zm-5.988-1.606c-.014.02-.04.06-.034.067.067.074.141.148.208.222.047-.007.074-.054.06-.1a.335.335 0 0 0-.167-.202c-.02-.007-.054 0-.067.013zm2.298-1.109c-.06 0-.12-.013-.181-.013-.088.006-.155.06-.168.14a.42.42 0 0 1 .416.149c.115-.128.06-.27-.067-.276zm-.06-.215c-.007.067.026.094.12.094.02-.06.034-.114.054-.175.014-.04 0-.053-.033-.06-.06-.007-.141.074-.141.141zm.194.699c-.02-.054-.1-.074-.14-.054-.101.054-.196.108-.29.162-.027.013-.04.04-.053.053 0 .068.033.094.08.081.04-.007.08-.034.121-.027.108.014.188-.04.256-.114.02-.02.04-.074.026-.101zm-.322-.766c.033-.047.06-.094.087-.135-.087-.107-.134-.067-.242.04l.155.095zm-.135.096a.429.429 0 0 0-.309.038c.06.085.155.062.31-.038zm-.302.24c-.013 0-.027.047-.04.076.006.01.006.019.013.028l.141-.028v-.048c-.04-.01-.074-.028-.114-.028zm.06.208a.528.528 0 0 0-.147.034c-.027.013-.047.06-.054.094a.28.28 0 0 0 .074.047c.04.02.08.027.12.04.061.014.115.027.149.04.148.007.235-.067.248-.18.007-.075-.04-.129-.114-.115l-.275.04zm.027.518c.06-.014.095-.101.054-.141-.06-.074-.228-.088-.296-.02-.026.033-.067.094-.06.127.013.04.074.054.1.067.081-.013.142-.02.202-.033zm-.295-.867c.06-.007.127-.074.12-.141-.006-.014-.013-.068-.026-.068-.067 0-.141-.006-.195.027-.04.027-.054.108-.074.168 0 0 .034.027.054.027.04 0 .08-.007.12-.013zm.04.14c-.141-.006-.282.115-.262.223.175.027.275-.06.262-.222zm-.155.35c-.08.02-.16.047-.242.074a.678.678 0 0 0-.1.047c-.068.04-.074.148-.02.175.047.027.1.047.154.06.02.007.067.007.08-.013.068-.074.135-.154.189-.242.034-.047 0-.1-.06-.1zm-.208-.39c.027-.033.034-.087.047-.134 0-.013-.02-.04-.04-.047-.08-.02-.242.114-.249.202v.006c0 .068.04.101.101.074.047-.026.107-.053.141-.1zm-.013.209a.367.367 0 0 0-.27.06.284.284 0 0 0-.113.29.12.12 0 0 0 .033.046s.034-.013.034-.02c.033-.107.127-.148.195-.215.047-.04.074-.1.12-.161zm-.363-.074c.013-.027.02-.08 0-.108-.014-.013-.067-.02-.094-.006a.485.485 0 0 0-.249.215c-.06.12 0 .269.12.275.028-.053.041-.1.068-.14.047-.081.108-.155.155-.236zm-.249.565c-.067 0-.094.026-.06.087l.1.35c.027.087.054.18.02.275-.046.12-.026.161.108.235.06.034.128.067.188.101.014.013.034.027.054.027.128 0 .255.033.376-.02.081-.04.168-.068.256-.094.356-.121.685-.31.974-.565.02-.02.034-.047.047-.074.047-.12.108-.215.242-.249.047-.006.08-.047.121-.073-.006-.007-.006-.014-.013-.02h-.067c-.135.02-.27.04-.404.053-.215.02-.356.141-.47.316-.02.027-.034.06-.054.087-.013.014-.04.014-.06.02 0-.013-.014-.04-.007-.053.027-.08.04-.175.134-.209.014 0 .014-.02.034-.047-.262.054-.497.101-.746.155.027.087 0 .155-.074.215 0-.027-.007-.047-.007-.06-.013-.175-.027-.195-.188-.242-.087-.027-.181-.054-.249-.128-.067-.074-.16-.094-.255-.087zm3.24-.47c-.054 0-.101.013-.155.026.007-.013.007-.034.013-.074-.067.02-.12.034-.114.114 0 .068.047.088.094.094.06 0 .121-.006.182-.013.06-.007.067-.047.033-.1-.013-.021-.033-.048-.054-.048zm1.303.342c-.1-.067-.289.007-.322.128 0 0 0 .006 0 0 .053.047.094.087.14.12.014.007.055.014.068 0a.755.755 0 0 0 .134-.12c.034-.034.02-.101-.02-.128zm-.221-.276c-.02.02.087.155.127.148.168.034.235-.033.229-.208v-.014c-.007-.006-.007-.013-.007-.02-.074 0-.148-.02-.215-.007a.324.324 0 0 0-.134.101zm.29.503l-.021-.021c-.01.01-.021.01-.032.02.01.011.01.022.021.022.01 0 .032-.01.032-.021zm-.398.183c.034-.027.054-.06.04-.108-.027-.06-.074-.067-.127-.06-.054.007-.074.047-.074.094s.006.1.013.154l.02.02c.04-.033.088-.067.128-.1zm-.047-.43c.047.02.134-.047.134-.108 0-.067-.087-.114-.147-.087-.101.04-.195.054-.29-.007-.013-.007-.033-.007-.053-.007 0 .027-.007.054 0 .068.013.02.033.047.06.053.094.034.195.06.296.088zm-.302.006c-.061.007-.135.014-.148.101.114.034.221.135.342.02.007-.006.02-.006.04-.013-.073-.074-.147-.114-.234-.108zm0 .491c.047.013.073-.02.06-.074-.04-.161-.276-.228-.403-.1.027.02.054.033.08.046.074.04.148.074.222.115.014.006.027.006.04.013zm-.162-.733c.074-.047.067-.147 0-.208a.292.292 0 0 0-.047-.04c-.128-.074-.235-.074-.296.06a.097.097 0 0 0-.013.02c.027.074.047.142.074.202.007.02.047.054.067.047.074-.02.155-.04.215-.08zm-.094.35c-.007-.1-.175-.195-.269-.148-.013.007-.027.027-.027.04-.02.121.04.195.162.195.027-.006.06-.006.087-.02.02-.013.047-.047.047-.067zm-.585-.108c-.06 0-.12.021-.154.105h.316c0-.007.006-.014.006-.021a.221.221 0 0 0-.168-.084zm.027.457c-.027 0-.053 0-.08-.006.013.027.013.06.033.074.027.033.067.053.101.08.047.047.087.094.134.148.068-.06.061-.1.027-.161a.281.281 0 0 0-.215-.135zm-.215-.55c.074-.115.074-.216 0-.343-.107.02-.168.094-.168.201 0 .014.007.034.02.04.047.034.094.068.148.101zm-.06.1c-.02-.1-.141-.161-.229-.114-.067.033-.127.074-.201.114.12.034.235.074.35.1.053.014.093-.04.08-.1zm-.155.376c.067-.047.08-.094.06-.174-.053 0-.107-.02-.147 0-.094.04-.195.1-.282.161-.04.02-.061.074-.074.121-.014.074.026.108.094.08.12-.053.242-.107.35-.188zm1.754-.86c.094.007.195.007.31.007.006-.087-.054-.121-.115-.148-.054-.027-.1-.027-.14.027-.021.034-.048.047-.088.013-.014-.006-.04.007-.06.014.006.02.006.047.02.06a.14.14 0 0 0 .073.027zm-.235.121c.007-.04-.074-.154-.12-.175-.068-.026-.075.034-.102.068a.093.093 0 0 1-.02.027c-.06.08-.04.134.047.154.02 0 .04.007.054.007.067 0 .134-.034.141-.08zm-.31-.437c.061.027.088.007.075-.08 0-.007 0-.027-.007-.04a.268.268 0 0 0-.35-.128c-.053.027-.067.067-.06.12.007.054.054.048.088.054.087.027.174.047.255.074zm-.234.007c-.081 0-.168-.013-.236.08.034.028.074.081.101.081a.474.474 0 0 1 .323.101c.047-.054.027-.08-.02-.107-.02-.007-.054-.034-.054-.047.007-.088-.047-.108-.114-.108zm-.236-.074c.014-.027.007-.074-.013-.1-.087-.135-.255-.149-.376-.115-.034.014-.047.034-.027.074.02.04.04.087.06.148.088.013.182.033.276.04.027 0 .067-.02.08-.047zm-.114.242c-.107-.154-.275-.114-.396.007.04.047.067.107.114.128.067.02.148.02.222.02.027 0 .074-.02.08-.047a.15.15 0 0 0-.02-.108zm-.376-.202c.013 0 .033-.047.027-.073 0-.027-.034-.068-.047-.068-.101.014-.195.034-.296.047-.007.014-.007.02-.013.034.033.034.067.1.107.1.074.008.148-.02.222-.04zm-.29.115a.564.564 0 0 0-.302.134c-.033.027-.047.074-.06.121-.007.047.013.074.06.067.06-.006.115-.02.168-.013.088.013.148-.02.215-.074.054-.04.048-.094.027-.148-.02-.054-.04-.094-.107-.087zm-.328.053c.094-.053.174-.107.262-.16-.027-.021-.047-.028-.06-.041-.055-.06-.102-.034-.149.02-.02.027-.053.047-.087.08.013.034.02.061.034.101zm-.121-.248c.073-.034.14-.067.221-.108-.114-.067-.221-.013-.221.108zm.114.645c-.121.02-.148.155-.229.222-.013.013-.013.04-.02.087.121-.054.235-.054.336-.128.047-.04.067-.114.034-.168-.027-.053-.074-.02-.121-.013zm-.141-.33a.27.27 0 0 0-.02-.12c-.027-.054-.074-.047-.108 0-.06.08-.04.208.054.322.027-.074.06-.134.074-.201zm-.222-.483c.067.007.074-.027.054-.114a1.68 1.68 0 0 0-.168-.444c-.094-.181-.242-.316-.377-.457-.053-.054-.094-.128-.154-.175-.296-.235-.592-.47-.894-.705-.02-.02-.067-.034-.088-.027-.094.04-.194.087-.282.148a.247.247 0 0 0-.067.342c.04.06.074.121.12.195-.08-.033-.147-.08-.214-.094-.175-.04-.41.08-.49.269-.135.316-.263.638-.377.968-.067.208-.108.423-.148.638-.047.269-.02.524.195.72.054.046.114.093.161.154.074.094.121.107.209.04.1-.08.248-.06.322.047.034.047.06.094.088.141.053.088.094.175.013.27-.013.013-.013.04-.013.06 0 .02.006.053.02.06.013.007.053.014.06 0 .04-.04.101-.094.101-.14 0-.102-.013-.216-.047-.317-.067-.188-.148-.363-.229-.544-.04-.101-.08-.215-.181-.282-.02-.014-.047-.014-.06-.034-.054-.094-.108-.188-.155-.29-.027-.06-.007-.08.054-.066.02 0 .04.006.053.013.101.04.148.007.162-.1a.615.615 0 0 0-.06-.364c-.014-.013-.014-.033-.02-.053l.013-.014c.02.007.047.02.08.034.014-.121-.161-.188-.074-.33.02.027.04.04.054.061.06.067.121.141.188.202.034.027.08.047.128.047a.334.334 0 0 0 .255-.115c.047-.047.101-.087.148-.127l.02.02c-.013.08-.067.134-.114.188-.047.06-.094.121-.148.168-.06.047-.127.08-.195.128.06.006.101.013.148.013.054 0 .108 0 .155-.02.188-.08.356-.175.47-.363.08-.134.168-.262.202-.417.007-.06.04-.114.06-.168.007.007.02.007.027.014a.81.81 0 0 1-.08.309 2.37 2.37 0 0 1-.236.397c-.161.201-.356.336-.618.362a.39.39 0 0 0-.195.101c-.04.034-.054.101-.074.155-.013.027-.007.054-.013.08.027 0 .06.014.08.007.108-.04.229-.074.33-.134a4.78 4.78 0 0 0 .497-.316c.121-.087.269-.1.403-.1.135 0 .229-.028.283-.169a.349.349 0 0 1 .16-.188c-.066.107-.147.228-.234.363a.235.235 0 0 0 .208-.047.285.285 0 0 1 .222-.04c.087.013.175.033.262.04zm-3.206-7.077c.1.168.215.343.29.484a.463.463 0 0 1-.075-.088c-.128-.174-.249-.356-.376-.537-.114-.155-.235-.303-.336-.464-.209-.323-.746-1.243-.834-1.364-.013-.02-.174.033-.228.053-.014.007-.027.007-.034.014H8.58a.567.567 0 0 0-.162.04c-.208.047-.363.182-.517.33-.161.154-.33.295-.437.497-.08.12-.141.248-.202.376-.1.202-.201.41-.289.618-.033.081-.06.155-.087.236-.013.033-.027.06-.04.087-.081.175-.121.37-.175.558-.094.343-.222.672-.29 1.021-.006.02-.1.337-.133.478-.02.074-.007.154-.007.248.275-.208.645-.383.813-.309.047.007.1.02.148.047.094.054.195.094.296.141.174.088.35.162.51.262.27.168.518.357.78.525.289.181.591.356.887.53.128.075.262.142.39.216.114.06.228.148.35.195.275.1.55.188.826.268.262.074.531.128.807.135.147 0 .302.02.45-.007.208-.033.403-.1.605-.154.04-.014.074-.034.127-.054-.047-.06-.074-.108-.114-.148-.02-.02-.054-.02-.08-.034-.115-.067-.222-.134-.337-.195-.08-.047-.168-.087-.248-.134-.014-.007-.02-.04-.027-.06.02 0 .047-.014.067-.007.034.007.06.02.094.033.114.047.222.094.33.142.053.026.107.06.16.08.102.034.202.054.303.08.101.028.135.014.162-.107a1.094 1.094 0 0 0-.088-.04c-.1-.034-.195-.074-.296-.1a4.411 4.411 0 0 1-.907-.364c-.33-.181-.652-.383-.974-.578-.162-.094-1.5-1.089-1.6-1.176-.235-.208-.504-.383-.706-.625-.598-.719-.994-1.505-.988-1.606.148.215.8 1.001.948 1.216.907 1.29 3.925 2.843 3.932 2.843.148.02.356.161.504.188.1.02.1-.168.161-.262-.235-.134-.464-.262-.685-.396-.222-.135-.45-.276-.672-.417-.222-.134-.437-.282-.66-.423.008-.007.008-.02.014-.027.02.006.047.013.068.027.08.053.154.114.235.16.282.149.578.297.867.444.08.04.154.081.228.115.101.047.209.094.31.148.094.047.18.1.275.147.054.027.108.047.161.068.034.013.06.013.06-.034.007-.013.02-.02.028-.034-.007-.006-.014-.006-.02-.013-.007.013-.007.027-.014.04a.268.268 0 0 0-.12-.161c-.283-.195-.559-.396-.848-.578-.262-.168-.537-.302-.793-.47-1.297-.847-2.077-2.044-2.305-2.373-.168-.235-.316-.49-.47-.732-.135-.209-.256-.424-.31-.666.014.014.02.02.027.034.067.1.45.732.585.934.215.323.437.632.652.94.074.108.148.21.235.31.094.108.202.195.29.296.147.175 1.007.894 1.02.887.142.08.276.168.41.249.027.013.054.013.081.02 0-.007.007-.014.007-.02-.02-.027-.047-.047-.074-.074-.12-.108-.235-.236-.37-.33-.47-.329-1.014-1.176-1.041-1.223-.135-.255-.27-.504-.397-.76-.074-.154-.1-.275-.168-.436a4.154 4.154 0 0 1-.161-.565c-.108-.672-.06-1.055-.088-1.055-.02 0-.383.161-.578.242-.1.04-.127.114-.08.215.094.215.188.43.289.645.033.068.074.121.1.189.048.107.101.215.162.315.007.007.007.02.013.027.06.128.115.249.182.37.067.155.148.296.235.437zm3.945-6.553c0-.007-.007-.013-.013-.027.02-.013.033-.027.053-.033.068-.02.142-.047.209-.047.195-.007.363-.068.53-.155.115-.054.128-.134.028-.222-.014-.007-.02-.013-.027-.02-.094-.06-.182-.128-.276-.181-.074-.048-.154-.095-.248-.081-.068.007-.142 0-.216 0-.188 0-.362-.047-.524-.141-.02-.007-.04-.007-.06-.007-.08.013-.168.02-.249.047-.168.054-.322.128-.49.168-.437.114-.773.578-.767.612-.02.02-.027.04-.033.074.074.067.174-.027.248.067-.02.013-.033.02-.047.027-.134.06-.268.12-.376.235-.027.027-.06.067-.094.087a.387.387 0 0 0-.161.236c-.007.02-.007.053.006.067.014.006.04.006.06 0 .068-.02.135-.04.202-.067a.147.147 0 0 0 .068-.06c.04-.061.067-.095.14-.041.02.013.081 0 .102-.02.013-.007 0-.06-.007-.095-.007-.02-.02-.033-.027-.047l.02-.02c.02.007.047.02.067.034.014.013.02.033.027.054.034.1.108.134.202.127.02-.006.047 0 .06 0 .081.014.168.014.236.054.1.06.181.135.268.215.142.128.25.29.25.497 0 .115 0 .236-.008.35 0 .027-.02.06-.04.067-.114.027-.155.121-.195.215-.02.06-.074.101-.087.168a.61.61 0 0 1 .107-.342.596.596 0 0 0-.033-.733c-.135-.155-.525-.215-.525-.208-.275-.027-.403.114-.443.201-.02.04-.04.08-.067.114-.014.02-.04.02-.06.027a.196.196 0 0 1-.014-.06c0-.04.013-.08.02-.128-.121.007-.175.067-.195.168-.007.047-.04.094-.067.135-.06.08-.148.14-.182.228-.067.182-.134 1.526.229 1.385.027-.007.054-.054.074-.034.02-.06.02-.134.04-.175.014 0 .014-.148.02-.148.034.155-.067.323.047.478.047-.034.088-.06.121-.101.094-.121.195-.235.336-.303.02-.013.04-.033.06-.047l.014.014c-.027.033-.04.08-.074.1-.188.101-.262.31-.363.484a.135.135 0 0 0-.02.074c0 .027.007.068.02.074.027.014.068.014.088 0 .033-.02.054-.06.08-.094.06-.074.108-.154.175-.222.06-.067.128-.127.155-.221.006-.02.02-.034.033-.054.007.007.014.007.02.007.007.026.02.053.02.087.007.067.048.087.101.094.054.013.068-.034.088-.067l.12-.202c.048-.08.102-.148.135-.235.054-.141.088-.289.135-.437.006-.027.027-.054.04-.08.007.006.013.006.02.013l-.06.255a1.816 1.816 0 0 0-.06.323.21.21 0 0 1-.048.12.658.658 0 0 0-.161.303c.033 0 .054.007.08.007.101-.013.175.04.25.108.033.026.06.06.093.08.027.02.06.034.094.047l.014-.013a.596.596 0 0 1-.054-.114c-.013-.034-.047-.074.007-.108.027.013.047.034.074.047.1.054.201.027.262-.067a.89.89 0 0 0 .134-.598c-.013-.108-.033-.209-.047-.316-.02-.155.014-.303.06-.45.007-.02.007-.054-.006-.068-.02-.013-.047-.013-.074-.013-.013 0-.034.013-.047.02a.172.172 0 0 1-.188-.074c.013 0 .027-.007.033-.007.101.027.168-.026.236-.094a.14.14 0 0 0 .033-.14l-.1-.458c-.007-.047.006-.074.053-.094a.379.379 0 0 1 .229-.02.5.5 0 0 0 .262-.02.851.851 0 0 1 .316-.06c.14 0 .282.04.423.066.027.007.06.007.094.014.047.013.1.034.148.054v.027a.519.519 0 0 0-.1.013c-.034.007-.068.007-.102.02-.027.007-.047.034-.067.047.027.014.047.04.074.047.067.014.141.014.208.027.068.007.202-.087.202-.161-.007-.161-.175-.336-.35-.31-.107.02-.214.007-.322.007-.013.007-.027-.006-.04-.013v-.027c.14-.027.289-.047.436-.074 0-.067-.02-.094-.067-.094-.134 0-.269-.007-.403.034-.282.08-.558.195-.853.181-.095-.007-.189.007-.263-.08.047-.02.101-.034.148-.04.128-.014.256-.008.377-.028.154-.027.309-.074.47-.1.161-.034.31-.101.47-.195-.033-.014-.06-.034-.087-.034-.04 0-.087.007-.134.007-.175.013-.343.074-.524.04-.048-.013-.095.013-.142.027-.027.007-.047.013-.067.02zm2.158 3.797c.053.37.06.74.08 1.103 0 .127-.007.262-.007.39 0 .046.014.1.02.147h.028c.006-.02.02-.047.02-.074.02-.161.04-.33.053-.49.014-.209.04-.41.034-.619-.007-.228-.04-.457-.067-.685-.014-.114-.04-.229-.06-.343-.007-.02-.034-.034-.048-.054-.02.02-.047.034-.047.054-.006.188-.033.383-.006.571zm-.142-1.203a.963.963 0 0 1 .39.726.628.628 0 0 0-.06-.605c-.094-.134-.242-.228-.343-.363-.114-.148-.087-.564-.114-.76.02.135-.068.492-.088.612a.472.472 0 0 0-.006.168c.02.121.127.155.221.222zm-1.66 6.647c-.006-.336.02-.665.068-.995.067-.41.194-.806.322-1.203.014-.053.02-.114.027-.168 0-.033.074-.846.094-1.223a4.472 4.472 0 0 0-.04-.9 11.867 11.867 0 0 0-.088-.478c-.033-.174-.087-.342-.087-.524a.539.539 0 0 0-.06-.201c-.088-.148-.189-.296-.283-.437a8.57 8.57 0 0 0-.215-.31c-.013.048-.02.101-.013.148a.5.5 0 0 1-.02.263c-.034.1-.088.127-.175.087-.014-.007-.02-.007-.034-.013a.217.217 0 0 0-.275.127c0 .014-.007.034 0 .047.02.074.134.141.208.115.067-.02.114-.007.161.047.054.053.115.1.168.147.007-.006.014-.006.02-.013a.993.993 0 0 0-.06-.37c.007-.006.014-.006.02-.013.08.141.168.282.249.423a.15.15 0 0 0 .054-.181c-.02-.047-.034-.101-.054-.148.007 0 .013-.007.02-.013.02.013.047.02.054.04.027.054.054.1.06.154.02.142.027.283.054.417.054.242.128.484.175.733.027.12.047.242.067.363 0 .127.02.248.014.37 0 .04-.007.08-.007.12 0-.006-.007-.02-.007-.027l-.02.155c-.02.208-.034.417-.06.625-.02.168-.061.336-.095.504-.033.168-.067.33-.094.497-.074.41-.148.82-.208 1.23-.027.155-.034.316-.04.47v.263c.04-.007.067-.007.1-.014v-.114zm-.255-4.335c.013.209.027.41.027.625.007.121-.014.235-.027.356-.013.175-.027.35-.047.518-.04.302-.087.612-.128.914 0 .02.007.034.007.054h.02l.02-.128c.02-.12.027-.249.054-.37.067-.342.148-.692.215-1.035.047-.221.067-.436.027-.658-.04-.242-.128-.45-.289-.612l-.02-.02c-.84-.396-1.069.323-1.075.444-.02.087 0 .181.033.268.067.175.141.343.195.518.047.148.074.31.108.464.033.148.073.295.114.443.013.047.033.094.047.141.007-.006.02-.006.027-.006v-.081c-.014-.094-.02-.188-.034-.282-.033-.188-.047-.377-.1-.558a5.458 5.458 0 0 1-.122-.78c0-.074 0-.148.02-.221 0 .073.014.147.027.221.04.202.081.41.094.619 0 .033.074.262.108.363.013-.095.034-.189.027-.283v-.054c.007-.013.007-.02.007-.033-.007-.04-.027-.652-.02-.766.006-.054.006-.101.013-.155 0-.04.013-.074.027-.114.007.013.013.02.013.033.007.04 0 .088 0 .128a7.55 7.55 0 0 0-.013.39c0 .148.013.289.007.437 0 .235-.02.464-.027.699 0 .127.006.248.013.376.007.135 0 .262.014.397l.06.53c0 .034.027.27.02.27.007.094.02.188.034.282.006-.007.02-.007.027-.007a23.974 23.974 0 0 1-.027-.403v-.088c-.014-.221-.027-.45-.034-.678-.007-.142-.013-.276-.013-.417 0-.161 0-.323.013-.484.014-.155.047-.753.047-.9 0-.122 0-.25.027-.363.02-.088.06-.081.047.006-.027.135-.033 2.191-.027 2.265.014.148.034.303.047.45.027.29.047.585.074.874l.02.08c.02-.013.027-.026.027-.033.007-.114.02-.222.02-.336.007-.094.02-.457.027-.544.027-.256.047-.518.081-.773.02-.182.067-.356.08-.538.027-.309.02-.618.054-.927.02-.155.014-.303 0-.457 0-.02.007-.04.007-.06h.027zm-3.36-.632c0-.06.006-.12-.007-.201-.014-.101-.034-.202-.054-.316-.02.02-.033.02-.033.027a.125.125 0 0 0-.014.047 1.856 1.856 0 0 0-.02.578c.02.161.047.322.067.484.02.175.074.336.141.497.04.094.067.188.101.276.067.174.134.356.215.53.06.128.135.25.195.377.067.141.175.242.269.35.007-.007.013-.007.02-.014-.007-.02-.02-.034-.027-.054-.148-.275-.302-.544-.443-.826a4.894 4.894 0 0 1-.209-.518 3.17 3.17 0 0 1-.1-.437c-.034-.188-.061-.376-.088-.571-.013-.074-.013-.155-.013-.229zm.45-.631c.013-.034.013-.074.027-.115-.007-.006-.014-.006-.02-.006a2.814 2.814 0 0 0-.215.558c-.054.221-.095.436-.014.658.007.007.007.014.007.02.047.209.087.417.134.625.027.121.067.236.101.35.034.12.06.242.1.356.014.04.048.074.075.108l.027-.014c-.007-.04-.007-.087-.02-.128-.061-.194-.142-.383-.148-.598-.007-.168-.054-.342-.074-.51-.027-.202-.06-.397-.067-.599-.007-.242-.014-.483.087-.705zm.1-.074c-.073.175-.087.363-.093.564 0 .02.006.047.013.068h.02c.007-.02.027-.047.034-.068.067-.208.14-.41.208-.618.007-.013.014-.027.007-.034a.269.269 0 0 0-.067-.08c-.007-.007-.04.013-.054.033a.836.836 0 0 0-.067.135zm-.107-.41a.228.228 0 0 0-.027-.235c-.168.16-.45.934-.302 1.142.02-.047.04-.08.054-.12.094-.263.174-.525.275-.787zm.29 2.91c.073.228.147.45.234.679.088.201.182.403.296.591.128.229.282.437.43.652.06.087.141.161.209.249.127.161.248.322.376.484.013.02.034.033.054.053l.02-.013a.239.239 0 0 0-.027-.06c-.094-.135-.181-.27-.276-.404-.221-.33-.45-.652-.665-.981-.087-.141-.181-.282-.249-.437a4.974 4.974 0 0 1-.336-.981 3.96 3.96 0 0 1-.114-.793c-.007-.35.027-.686.094-1.028.014-.068.007-.142.014-.209-.007-.006-.02-.013-.027-.02-.02.02-.054.027-.067.047-.034.054-.06.121-.088.182-.06.147-.1.309-.107.47 0 .128-.027.255-.014.376.047.39.121.773.242 1.143zm.255-1.788c-.014-.107 0-.222 0-.316 0-.053.006-.1.013-.154-.067.006-.1.02-.108.087-.013.114-.053.229-.067.35-.027.181-.054.356-.06.537-.007.148.013.296.013.45.007.256.047.498.114.74.048.154.088.302.148.45.074.182.155.363.236.538.04.08.08.161.127.242.088.148.168.295.262.437.101.154.215.302.323.457.074.107.148.221.222.329.006.013.02.02.033.034a5.416 5.416 0 0 0-.262-.478c-.087-.14-.188-.275-.275-.416-.101-.162-.189-.33-.236-.518-.047-.195-.1-.39-.134-.591a6.3 6.3 0 0 1-.067-.612c-.014-.201-.027-.396-.034-.598-.007-.1.007-.208-.007-.316a35.58 35.58 0 0 1-.06-.968c0-.04-.04-.08-.02-.127-.094.067-.161 1.653-.02 2.21.02.075.02.155.033.23-.006.006-.013.006-.02.006-.013-.06-.033-.114-.047-.168-.034-.134-.047-.276-.087-.41-.034-.121-.007-1.317-.02-1.425zm.336.067c-.007.189.026.377.033.558.007.377.02.746.027 1.123.007.302.074.591.161.873.04.141.108.27.175.397.1.208.215.41.323.611.013.027.04.04.06.06.007-.006.014-.006.02-.013.007-.02.014-.04.007-.06-.027-.121-.047-.249-.087-.363-.101-.296-.215-.578-.31-.874a4.508 4.508 0 0 1-.18-.719c-.048-.336-.048-.679-.075-1.021-.013-.141-.054-1.31-.067-1.378-.02.027-.08.632-.087.806zm.84 3.193c.08.208.168.41.255.632.04.114.067.235.108.349.006.027.033.047.047.067l.02-.02c0-.007.007-.013.007-.02v-.054a5.203 5.203 0 0 0-.27-1.203c-.093-.289-.214-.564-.329-.84-.053-.128-.114-.242-.16-.37a5.405 5.405 0 0 1-.135-.47 8.017 8.017 0 0 1-.074-.975c.006-.188.054-.37.067-.557.013-.155.027-.303.087-.444a.678.678 0 0 1 .101-.141c-.007.067-.094.249-.08.296.02.08.053.107.12.074.034-.02.068-.088.095-.121.033-.04.053-.095.08-.135.034-.047.074-.094.108-.134.006.006.027-.034.033-.027a.82.82 0 0 0-.047.114c-.013.047-.06.128-.02.168.047.04.108-.027.141-.047.04-.027.088-.067.148 0-.047.027-.087.054-.128.074-.047.02-.087.054-.1.134.08-.006.16 0 .228-.02.215-.06.43-.027.632.047.094.034.168.02.242-.06-.067-.047-.135-.108-.209-.141-.067-.034-.147-.034-.221-.04-.068-.007-.108-.041-.108-.101-.007-.135-.08-.195-.201-.216-.162-.033-.323-.087-.47.034-.061.047-.108.02-.135-.034a.398.398 0 0 0-.242-.188c-.101-.033-.135-.013-.162.094-.006.02-.013.047-.026.068-.054.087-.048.181-.02.275.006.02.013.04.013.06.007.343.02 1.466.02 1.56-.013.35.027.699.108 1.042.053.235.12.47.235.685.094.188.161.39.242.585zm-.115-4.537c.054.115.155.148.242.101-.094-.128-.154-.148-.242-.1zm1.526 1.95c.013.221.047.443.034.658-.014.208-.081.41-.128.618-.034.141-.067.27-.027.417.034.1.027.222.04.33.007.06.02.12.027.18h.02c.007-.013.02-.026.02-.046l.04-.262c.035-.242.082-.478.102-.72.027-.315.033-.625.047-.94.007-.175.007-.343-.06-.505-.028-.067-.068-.12-.108-.174-.047-.068-.108-.121-.148-.195a.258.258 0 0 0-.141-.114c-.054.047-.108.087-.148.12.1.088.181.169.269.242.067.054.094.142.12.222.014.054.034.108.041.168zm-.652-.814a.573.573 0 0 0 .215-.013c.007-.007.007-.014.014-.02-.034-.027-.074-.081-.115-.088-.275-.027-.557-.067-.806.108-.034.027-.06.06-.087.094 0 .013.006.02.013.033.054.014.128-.006.181-.033.189-.101.384-.101.585-.08zm-.383 3.656c.074.269.1.551.134.813 0 .02.02.04.034.06.02-.02.047-.04.047-.06.007-.047-.007-.1-.007-.147a5.747 5.747 0 0 0-.127-1.009c-.094-.403-.242-.786-.377-1.169a6.494 6.494 0 0 1-.195-.578 1.806 1.806 0 0 1 .088-1.13c.033-.08.154-.16.215-.187.134-.06.249-.06.39-.088.04-.006.08-.02.12-.027v-.026c-.026 0-.053-.014-.08-.007-.141.02-.282.054-.423.074-.088.013-.175.04-.263 0-.02-.007-.053 0-.06.013-.08.114-.168.229-.188.37a2.014 2.014 0 0 0-.027.605c.034.282.12.544.188.813.04.161.114.31.161.464.128.403.263.806.37 1.216zm-.403-2.453c-.02.02-.027.034-.027.047-.007.229.013.45.114.652.121.242.202.497.282.76.034.094.06.194.095.295.013 0 .02-.007.026-.007a9.931 9.931 0 0 0-.49-1.747zm1.25 1.506c-.08.12-.182 1.196-.128 1.384.054.007.074-.027.08-.067.028-.101.048-.209.068-.31.067-.309.047-.618.007-.927-.007-.027-.02-.047-.027-.08zm-.088 2.184a.473.473 0 0 0 .007.195c.007.006.014.006.02.013.014-.027.04-.04.047-.067.034-.168.074-.336.101-.51.027-.169.047-.337.067-.505.02-.107.027-.222.047-.336.068-.336.148-.665.216-1.001.06-.316.1-.639.127-.968a2.183 2.183 0 0 0-.067-.834c-.007-.026-.007-.06-.013-.094h-.02c-.007.014-.007.034-.007.047 0 .155.013.31 0 .457-.02.27-.014.545-.067.814-.054.262-.074.53-.121.793-.04.222-.088.437-.128.658-.034.195-.06.397-.094.592-.04.248-.08.497-.115.746zm.626-7.292c-.323 0-.612-.115-.773-.45-.02.073-.034.134-.04.201-.014.161-.095.316-.068.49.02.149.04.29.141.404.034.034.054.08.08.12.021.048.095.169.122.23.02-.048.027-.081.047-.122.02.034.027.06.04.081.02.04.034.087.06.121.068.08.142.148.216.222.047.047.094.1.14.154.041.04.075.081.115.128.121-.06.027-.201.101-.275.074.053.007.201.155.215a46.877 46.877 0 0 0-.02-.336c.067 0 .067.006.087.067.02.074.033.148.06.222.007.02.034.047.047.047.068 0 .101-.054.081-.121a.96.96 0 0 1-.054-.148c-.013-.047-.02-.101-.033-.148.013-.007.013-.007.02-.013.087.06.067.188.154.262.04-.04.081-.081.108-.135.033-.074.067-.148.087-.228.034-.162.108-.323.06-.498-.013-.047-.013-.094-.02-.14-.02-.149-.08-.256-.221-.303-.04-.014-.074-.047-.121-.047.175-.06.262.094.396.154.007-.02.034-.08.034-.1 0-.162 0-.316-.054-.47a.131.131 0 0 0 .007-.088.266.266 0 0 0-.067-.101c-.027-.02-.06-.047-.081-.04-.027.006-.06.067-.06.067-.04.013-.283.094-.35.174.094.02.182.027.262.04.014.041.02.075.014.108h-.007c-.108-.013-.208-.033-.316-.047a2.168 2.168 0 0 0-.208-.013c-.074 0-.141.02-.209.027-.114.013-.282-.007-.396.006.04.014-.074.027.06.088-.006.02.511.141.666.054.02-.014.047-.007.074-.014 0 .014.094-.007.094.007-.115.04-.316.148-.43.148zm-.599-.928c-.107 0-.16.074-.12.188.006.04.013.088.026.128.014.034.027.08.08.06.082-.026.162-.046.236-.087a.328.328 0 0 1 .262-.027c.121.034.236.074.35.108a.29.29 0 0 0 .107 0c.074-.02.155-.047.236-.074.006-.007.013-.013.026-.02-.006-.014-.006-.027-.013-.027a.451.451 0 0 0-.323-.054c-.1.02-.188.007-.248-.1a.141.141 0 0 0-.074-.048 6.25 6.25 0 0 0-.377-.067c-.04-.007-.074.007-.114.014-.02 0-.04.006-.054.006zm.874 4.389c.007.275 0 .551-.007.82a.74.74 0 0 1-.013.12c-.014.142-.034.276-.047.418.007 0 .02.006.027.006.027-.054.06-.114.067-.174.02-.155.034-.31.054-.47.027-.243.06-.485.074-.727.013-.195 0-.396 0-.591 0-.222-.068-.424-.148-.619-.007-.026-.027-.04-.04-.067-.04.054-.095.074-.088.155.027.208.047.423.067.632.02.168.047.329.054.497zm.141.961c-.007.034-.013.074-.007.108.007 0 .014.006.02.006a.12.12 0 0 0 .034-.047c.148-.269.209-.571.27-.873.04-.202.046-.41 0-.619-.028-.114-.014-.242-.035-.363-.026-.161-.006-.329-.073-.49-.06-.141-.108-.283-.222-.383-.02-.014-.047-.007-.067-.014a.133.133 0 0 0-.007.074c0 .02.027.04.033.067.034.141.068.283.095.43.073.397.094.793.073 1.19-.013.31-.073.612-.114.914zm-1.048-3.42c0-.129-.094-.162-.074-.189-.094.027-.128.114-.155.195-.02.06.014.107.074.134.014.007.02.02.034.034.02.02.047.054.054.047.026-.014.06-.047.06-.067-.007-.054.007-.101.007-.155zm.45 5.671c-.007.027 0 .054-.013.088.006 0 .013.007.02.007.007-.02.02-.047.027-.068.074-.174.14-.342.215-.517.094-.215.195-.424.282-.639.047-.12.067-.255.108-.376.067-.202.127-.397.181-.591.034-.088.06-.175.087-.263a5.927 5.927 0 0 0 .195-1.19l.06-.564c.014-.127.02-.262.02-.39a8.08 8.08 0 0 0-.013-.403c0-.087 0-.174-.013-.255-.007-.04-.007-.108-.067-.1-.06.013-.034.073-.034.12.007.262.007.524.007.786 0 .027-.007.047-.013.068-.068-.262.013-.545-.108-.82-.02.04-.047.067-.047.094.013.107-.04.222.013.33.014.033.014.073.02.107l.061.618c.013.128.02.255.034.383a5.759 5.759 0 0 1-.094.753c-.007.04-.02.087-.027.127-.047.148-.094.296-.148.437-.08.229-.182.457-.269.686-.067.181-.121.376-.181.564-.108.336-.202.672-.303 1.008zm.47-.732c-.1.249-.194.497-.262.76.068-.095.128-.196.195-.29.195-.289.477-1.411.498-1.458.06-.155.134-.316.181-.477.067-.242.121-.49.182-.74.06-.248.134-.497.168-.752.033-.229.02-.47.02-.706 0-.067-.047-.605-.06-.699-.014-.114-.041-.222-.061-.336 0-.013-.014-.027-.027-.04-.04.067-.054.12-.02.188.013.013.013.04.013.06.007.195.02.39.027.585-.007.195-.02.397-.02.592.007.242-.161 1.156-.188 1.263-.04.141-.067.29-.108.43-.08.256-.537 1.613-.537 1.62zm.444-.813c-.04.12-.074.242-.1.363l.02.02c.013-.014.033-.027.046-.047.054-.074.054-.162.074-.249.027-.12.074-.228.121-.343.034-.08.081-.161.115-.248.127-.37.181-.753.235-1.136v-.094c-.007-.007-.02-.007-.027-.007-.02.08-.04.168-.06.255-.04.202-.074.404-.128.599-.034.147-.094.289-.141.436-.054.148-.108.303-.155.45zm.255-.316c-.04.12-.067.242-.114.376.007 0 .014.007.02.007l.02-.02c.061-.101.128-.195.189-.296.027-.047.054-.094.074-.141.107-.269.168-.551.221-.833.014-.074.034-.155.04-.229.014-.195.014-.39.014-.585-.007-.228-.013-.463-.027-.699-.006-.154-.033-.316-.047-.47-.006-.047-.006-.094-.006-.148-.007-.141 0-.289-.014-.43a1.372 1.372 0 0 0-.054-.29c0-.02-.04-.033-.067-.053-.007.027-.033.06-.027.088.02.14.054.282.074.423.034.242.06.484.074.726.02.262.014.524.02.786.007.336-.013.672-.127.995-.094.262-.175.53-.263.793zm.578-4.43c.061-.087.054-.2.04-.295-.04-.363-.214-.645-.45-.9-.013-.014-.033-.02-.047-.027 0 .006-.006.006-.013.013.013.034.02.067.04.1.081.129.162.25.242.377.02.02.027.054.027.088.007.16.007.316.014.477 0 .054.013.114.033.168.007.027.034.054.054.054.02 0 .047-.034.06-.054zm-.026-.84a.71.71 0 0 0-.081-.335 2.101 2.101 0 0 0-.464-.45c-.027-.014-.054-.027-.094-.04 0 .093.08.241.155.302.174.14.342.275.443.483.007.014.027.027.04.04zm-.35-.759l.128.088c-.114-.316-.37-.457-.632-.605a.4.4 0 0 0 .235.363c.094.047.182.1.27.154zm-2.493-1.68c.107-.013.074-.154-.02-.128-.101.034-.202.074-.296.121-.195.101-.975.498-1.465 1.11-.074.087-.121.194-.195.282-.188.235-.303.504-.41.78-.04.113-.101.228-.155.342l-.262.504c-.013.027-.013.054-.02.08.067.028.114.014.141-.046.08-.175.168-.35.249-.525.06-.147.107-.302.181-.443.155-.269.31-.531.477-.793.182-.29.41-.524.693-.713.215-.14.934-.55 1.082-.57zm-2.205 3.065c-.053.168-.067.316-.195.457-.06.067-.127.12-.174.188-.054.074-.081.168-.108.255a7.266 7.266 0 0 0-.222.935l.262-.726a.927.927 0 0 1 .095-.202c.053-.067.127-.128.188-.188.161-.161.316-.51.154-.72zm-.598 3.3c-.242-.706-.35-1.23-.443-1.203-.081.013-.189.699-.108 1.418.02.181.074.342.141.51.088.236.188.417.303.639.127.249.275.477.416.72.007.02.027.033.04.053.122.134.236.275.364.403.188.188.376.37.57.538.216.181.438.35.66.524.094.074.18.148.275.215.08.054.155.108.235.161.027.014.047.034.067.047l.02-.02c-.006-.006-.006-.02-.013-.027-.766-.692-1.357-1.545-1.841-2.46-.074-.12-.141-.248-.209-.37a3.63 3.63 0 0 1-.134-.207l-.235-.632c-.007-.007-.007-.02-.014-.034l-.201-.544c.033.087.074.181.107.269zm6.331-2.104c0-.094.027-.376.02-.47-.013-.074-.033-.142-.047-.215-.054-.236-.06-.66-.074-.894-.033.699-.161.685-.053.934.026.054.053.1.08.154.04.095.047.384.074.491zm-.141-.188a.741.741 0 0 0-.195-.41c-.1-.108-.12-.182-.195-.303a.453.453 0 0 0 .074.363c.188.296.249.666.168 1.009.1-.242.148-.397.148-.66zm-.134-.968c.006-.074.013-.06.006-.134a3.779 3.779 0 0 0-.06-.383c-.054-.189-.094-.377-.148-.565-.034-.128-.087-.249-.134-.376a.316.316 0 0 1-.027-.108c0-.074.006-.154-.007-.228-.02-.189-.114-.357-.202-.518a2.046 2.046 0 0 1-.248-.712c-.007-.047-.027-.094-.04-.141-.014.006.026.423.067.544.053.161.114.316.168.47.087.256.174.518.262.773.053.182.12.357.16.545.061.242.102.497.149.746.007.047.02.094.033.14.014 0 .007-.053.02-.053zm-.693-2.157c-.094-.215-.201-.424-.275-.652-.02-.08-.074-.524-.088-.652-.006-.067-.033-.148-.12-.175-.014.04-.048.074-.048.114-.006.189-.006.377.06.558.102.29.21.571.317.854.074.188.148.37.235.55.128.25.215.518.289.787.047.161.074.33.114.49.007.034.02.068.027.102h.02c0-.027.007-.047.007-.068a2.415 2.415 0 0 0-.114-.651c-.067-.195-.128-.39-.195-.585-.074-.222-.135-.457-.229-.672zm-.282.1a.974.974 0 0 1-.383-.544c-.054-.154-.108-.302-.161-.457-.034-.094-.06-.181-.094-.275-.014-.034-.034-.068-.047-.101a1.408 1.408 0 0 0-.263-.444c-.013-.02-.047-.04-.067-.033-.02.006-.04.04-.04.067a.1.1 0 0 0 .027.087c.094.135.175.276.235.43.054.148.094.303.148.45.013.04.033.081.054.122.047.114.12.215.147.329.04.154.088.302.216.403.12.1.248.208.376.31.007-.014.013-.02.02-.028-.047-.087-.087-.181-.128-.275-.006-.02-.027-.027-.04-.04zm-1.015-1.498c-.094-.162-.168-.343-.37-.377-.046-.013-.1-.053-.127.007-.007.027.033.08.06.114l.202.242.06.101c.068.101.148.188.195.296.108.228.195.464.303.699.033.08.087.148.134.222.007-.007.02-.007.027-.014v-.047a1.49 1.49 0 0 0-.154-.47 1.981 1.981 0 0 1-.115-.276c-.047-.107-.08-.222-.127-.33a1.32 1.32 0 0 0-.088-.167zm-.47-.007c-.034-.04-.06-.094-.108-.107-.127-.088-.262-.162-.39-.242-.053-.034-.1-.074-.154-.101-.054-.034-.108-.054-.168-.02.02.114.148.255.235.282.1.027.188.074.282.114.068.034.135.074.202.108.02.006.06 0 .087 0 .007-.014.007-.02.014-.034zm-.551-.094c-.094-.047-.202-.08-.276-.168-.06-.074-.107-.155-.168-.235-.047.067-.047.127 0 .181.054.06.1.121.155.168.195.175.396.343.591.518.074.067.134.161.202.235.02.027.06.04.094.047.007 0 .033-.054.033-.08.014-.115.014-.222-.08-.31-.047-.047-.094-.094-.155-.12-.06-.02-.107-.068-.161-.102a2.67 2.67 0 0 0-.235-.134zm.033.296c-.168-.155-.336-.31-.51-.464.026.215.302.477.497.484.007-.007.007-.014.013-.02zm-.47.006a.364.364 0 0 0-.074-.04c-.014-.007-.034 0-.047 0-.195.027-.363.128-.524.222-.209.12-.39.289-.565.457-.202.195-.39.403-.544.638l-.02.06c.006.008.013.008.02.014l.04-.02c.094-.094.195-.188.289-.289.302-.336.625-.632 1.028-.813.121-.054.27-.074.363-.168.02-.014.027-.04.034-.06zm-.108-.268c.014-.06-.027-.088-.107-.068-.175.06-.29.202-.43.316l-.121.101c.006.014.02.02.027.034l.04-.02c.161-.135.356-.216.537-.303a.115.115 0 0 0 .054-.06zm-.947.228c-.175.121-.31.29-.457.424-.135.14-.27.288-.404.43-.06.06-.12.12-.174.181-.088.1-.182.202-.27.303-.02.033-.033.073-.046.107l.02.02a.543.543 0 0 0 .107-.107c.162-.222.37-.397.565-.585.121-.121.255-.222.37-.35.168-.174.309-.376.504-.524.013-.013.02-.033.033-.047-.006-.006-.006-.013-.013-.02-.027.02-.054.027-.08.047-.055.04-.102.08-.155.121zm-.242-.202c-.034.027-.054.081-.027.142.222-.094.376-.276.571-.404-.007-.006-.007-.013-.013-.02-.014 0-.034 0-.047.007-.068.034-.135.06-.202.1-.094.054-.195.108-.282.175zm-.968 2.144c-.1.155-.195.316-.276.478-.02.047-.047.094-.074.14l-.12.343c-.007.04-.014.074-.02.121.228-.349.376-.739.523-1.122a.178.178 0 0 0-.033.04zm-.403 1.936c-.06.128-.088.269-.115.403l-.181.867c.04-.007.074-.02.114-.027.074-.504.148-1.028.41-1.472.088-.147.336-.376.282-.557-.16.268-.39.497-.51.786zm-.283-.8a3.807 3.807 0 0 1 .007-.618c.014-.141.054-.282.087-.45-.201-.209-.356-.484-.49-.78-.054.087-.094.168-.088.262l.02.29c.007.107.014.22.041.322.04.127.067.248.087.383.027.188.047.363-.08.524a.383.383 0 0 0-.074.188c-.007.141 0 .282.006.424 0 .02.007.04 0 .053-.033.081-.073.168-.114.242-.06.108-.127.202-.181.303-.04.074-.027.1.047.134.087.034.1.067.067.161a1.543 1.543 0 0 1-.114.263c-.054.1-.054.12.02.208.107.128.228.242.376.316.06.027.141 0 .168-.067l.04-.121c.048-.175.095-.343.135-.518.04-.181.074-.356.1-.538.014-.14.028-.282.014-.423-.013-.188-.06-.37-.074-.558zm-.484-.753a2.744 2.744 0 0 1-.356-.678c-.047.094-.094.181-.134.275-.054.108-.121.168-.235.175h-.02a.176.176 0 0 0-.142.114 5.989 5.989 0 0 0-.134.37c-.027.074-.06.134-.148.134-.067 0-.128.014-.195.02-.033.007-.067.007-.087.027-.06.047-.121.094-.168.155-.034.04-.06.067-.114.08a.097.097 0 0 0-.054.061c-.02.06-.054.054-.108.047a.394.394 0 0 0-.154.007c-.108.033-.182.12-.27.188-.08.06-.1.141-.087.222.02.087.06.175.101.255a.951.951 0 0 0 .316.377c.1.067.182.16.269.241.06.061.114.135.215.148.04.007.087.04.114.081.128.175.27.316.49.35.169.026.303-.04.424-.142.06-.06.101-.154.148-.228a.364.364 0 0 0 .04-.074c-.047-.02-.087-.04-.127-.06-.128-.061-.135-.088-.067-.222.087-.162.168-.316.248-.478a.18.18 0 0 0 .027-.114c-.04-.127 0-.242.04-.356.034-.1.054-.208.108-.296a.732.732 0 0 0 .074-.645c-.007-.007-.007-.02-.014-.034zm-1.928 14.47c-.02-.242.02-.477.06-.746.02-.12.054-.235.074-.356.06-.316.168-.618.302-.907.135-.296.276-.592.417-.887.067-.148.121-.316.242-.437.02-.014.027-.04.04-.067a80.955 80.955 0 0 1-1.868-1.224.26.26 0 0 1-.074-.1c-.007-.02.007-.054.02-.068a.081.081 0 0 1 .067.007l.585.424c.094.067.195.127.29.181.16.094.322.195.49.276.14.073 1.35.665 1.364.672.04.006.074.02.108.033.134.04.262.108.403.101.027 0 .047-.013.08-.027a.11.11 0 0 0-.02-.04c-.215-.222-1.996-1.196-2.184-1.317-.222-.135-.43-.29-.645-.43-.034-.027-.074-.048-.108-.068.215.094.417.202.625.303.189.1.39.188.585.282.148.067.29.128.43.188.215.1 1.029.376 1.217.41.134.027.275.047.416.06.081.007.565 0 .713-.053a.39.39 0 0 1 .262-.02c.128.033.262.04.396.06.048.007.101.02.142.007.221-.06.416-.161.598-.303.054-.04.08-.107.114-.16l-.02-.021c-.047.02-.094.034-.141.054-.08.027-.155.06-.229.087-.06.02-.114.034-.175.047-.053.014-.114.034-.168.034-.107.006-.215 0-.322 0-.188-.007-.37-.007-.558-.014a1.072 1.072 0 0 1-.255-.047c-.182-.06-1.674-.867-1.775-.94-.074-.048-.14-.108-.215-.155-.242-.155-.477-.303-.712-.457-.202-.135-.39-.283-.598-.403a9.595 9.595 0 0 0-.7-.343c-.033-.014-.06-.027-.093-.034-.074.054-.49.356-.605.444a2.765 2.765 0 0 0-.403.39 12.824 12.824 0 0 0-.095 1.297c.074.074.068.282.061.37l-.02.282c.007.013.007.026.013.04-.013.107.027.215.128.269.087.047.215.053.302-.007 0 0-.16.181-.235.269-.013.02-.02.054-.033.08.026.007.04.014.053.014.202.034.37-.034.531-.155.06-.047.121-.087.182-.127.074-.047.154-.088.228-.128.067-.034.128-.067.195-.094a.334.334 0 0 1 .29.054c-.323.033-.592.195-.848.39-.033.026-.067.046-.094.073-.12.081-.242.175-.356.27-.114.08-.229.16-.316.268-.074.094-.107.222-.054.33.04.2.115.382.242.537.08.1.08.121-.006.208-.276.276-.209.666.134.827a.8.8 0 0 0 .242.06c-.161.101-.249.316-.242.511.007.135.027.283.128.383.134.135.336.115.463-.013a.615.615 0 0 0 .155-.343 4.99 4.99 0 0 0 .054-.443c.006-.02.006-.04.006-.06.02-.102.048-.203.088-.303a.958.958 0 0 0 .074-.236c.02-.174.067-.342.148-.49.14-.262.262-.538.43-.787.175-.262.302-.557.45-.84a.232.232 0 0 1 .054-.06c.04-.02.08-.027.128-.04-.014.02-.02.04-.034.06-.087.155-.188.31-.276.464-.174.309-.35.611-.47.947-.1.283-.188.565-.235.86-.04.243-.054.491-.094.74-.054.33-.06.33.013.652.034.168.087.33.134.497.007.02.068-.013.068-.04 0-.235-.027-.948-.027-1.008-.007-.215.013-.43.06-.639.034-.148.067-.302.101-.457.007-.04.034-.074.054-.107.007 0 .013.006.02.006 0 .02.007.034.007.048-.014.1-.027.208-.047.309-.007.033-.02.074-.02.114-.02.215-.034.43-.04.645 0 .229.046.86.066.948a.06.06 0 0 0 .034.006c.013-.026.04-.053.04-.087.007-.06.007-.141.007-.282 0-.175 0-.35-.013-.518zm2.07 2.91c.006-.006.006-.013-.02 0-.101-.16-.941-1.787-1.029-2.117a5.718 5.718 0 0 1-.175-1.39c.007-.27.054-.525.121-.78.047-.182.101-.363.162-.538.04-.141.1-.269.148-.403.053-.155.107-.316.168-.464.026-.074.08-.128.12-.195.02-.04.014-.067-.026-.087a.57.57 0 0 0-.316-.047c-.034 0-.074.033-.094.06a2.598 2.598 0 0 0-.182.29c-.094.18-.174.382-.275.564-.074.134-.094.275-.128.416 0 .007.007.02.013.047l.135-.067c-.014.034-.02.054-.027.067a5.717 5.717 0 0 0-.215.336c-.161.276-.31.558-.336.894-.007.088-.007.175-.014.262 0 .128-.006.256-.006.383 0 .06.02.115.04.175.013.04.047.067.074.034.06-.067.128-.141.155-.222.033-.1.053-.222.053-.33 0-.214.027-.423.06-.638a.544.544 0 0 1 .149-.282l.02.007c0 .027 0 .06-.014.08a1.024 1.024 0 0 0-.094.424c-.013.181-.02.363 0 .544.014.1.02.202.014.303-.007.194.161.806.201.88.108.302.256.591.404.88.013.014-.007.034-.02.027a1.034 1.034 0 0 1-.128-.053c-.094-.048-.182-.108-.276-.155-.047-.027-.107-.047-.161-.067-.027.02-.034.02-.054.04.007.067.014.141.04.195.121.222.296.396.498.538.047.033.1.067.148.094.04.013.074.033.114.047.228.094.457.181.685.262h.047c.007 0 .014 0 .02-.014 0 .007 0 0 0 0zm.127-3.797c.007-.094.02-.188.034-.289.027-.168.054-.343.074-.517.013-.094.007-.101-.08-.094-.008 0-.021 0-.055-.007l.068-.067c.06-.06.12-.121.174-.189.209-.268.323-.578.377-.914.013-.067-.007-.08-.074-.053-.175.06-.356.12-.531.188-.094.033-.182.08-.276.107a1.136 1.136 0 0 0-.39.202.188.188 0 0 0-.053.08c-.094.243-.195.478-.27.727-.06.194-.1.396-.134.598-.02.114-.013.221-.02.336-.006.114-.006.228-.006.342 0 .061.026.068.074.04.134-.066.268-.14.41-.194.194-.074.403-.135.604-.202.054-.013.068-.04.074-.094zm3.61 4.456c1.182 0 2.331-.175 3.434-.524-.04-.336-.081-.679-.128-1.022-1.042.283-2.11.49-3.192.518-1.015.02-2.043-.108-2.978-.464-.067-.027-.208-.067-.329-.12-.148.523-.302.974-.356 1.054a11.49 11.49 0 0 0 3.548.558zm3.232-3.764c.148-.275.215-.57.276-.873a1.74 1.74 0 0 1 .074-.363.537.537 0 0 0-.014-.37 2.847 2.847 0 0 1-.087-.255 2.681 2.681 0 0 0-.262-.457c-.142-.175-.296-.336-.45-.498-.028-.02-.061-.04-.095-.04-.087-.007-.175 0-.262 0-.02 0-.047-.02-.067-.034.02-.013.034-.04.054-.053.006-.014.027-.007.04-.014.074-.027.087-.074.027-.127-.034-.034-.074-.06-.1-.095-.068-.087-.155-.114-.243-.073-.618.309-.968.712-1.089.84-.154.174-.248.396-.356.605-.033.067-.067.134-.054.221.054-.02.101-.06.148-.06.121 0 .249.027.37.04.034 0 .074.007.107.007.182-.014.357 0 .498.148.047.053.094.047.154-.007-.033-.047-.074-.087-.107-.134-.014-.02-.007-.047-.014-.074.02 0 .04-.007.06 0l.303.14c.068.028.141.048.209.068.006-.007.006-.02.013-.027-.034-.027-.067-.08-.094-.074-.08.02-.094-.04-.121-.08-.034-.054-.067-.115-.1-.168-.095-.142-.182-.276-.102-.464.06.013.108.074.115.14.006.041.013.095.04.129.094.12.202.235.302.35.047.053.088.113.135.167.06.074.141.141.188.229.08.134.141.282.215.436.034-.006.074-.02.128-.033-.007.033-.007.067-.02.087-.047.094-.115.182-.142.276-.047.168-.147.316-.235.457-.114.175-.127.37-.161.564v.027c.007.074.094.175.155.175 0-.007.006-.013.006-.02-.013-.02-.02-.04-.033-.054-.06-.08-.06-.12-.014-.208.047-.088.088-.175.141-.256a.851.851 0 0 1 .141-.168c.014-.02.06-.02.088-.006.054.026.107.067.168.114.02-.04.04-.088.067-.135zm.29-.57c.026-.102.046-.108.133-.081.074.033.148.06.216.107.114.074.228.161.329.249.067.06.12.14.195.228.006-.047.02-.067.02-.094.007-.1.027-.202.027-.302 0-.357-.007-.72-.02-1.076-.007-.134-.014-.282-.121-.39-.081-.08-.491-.49-.531-.51-.128-.067-.242-.182-.363-.256-.06-.033-.282-.107-.37-.094.06.068.161.256.202.316.14.222.269.444.403.666.02.033.067.067.067.107.007.108.007.229-.02.336-.06.255-.134.504-.202.753-.006.027 0 .054 0 .08h.02c0-.013.007-.026.014-.04zm1.242 2.694c.054-.188.101-.383.162-.537.033-.142.074-.29.094-.43.027-.169.08-.014.094-.182.02-.249.054-.49.06-.733.014-.45.02-.893.027-1.337.007-.114 0-.229 0-.343-.006-.208.014-.423-.013-.632a3.18 3.18 0 0 0-.148-.55c-.047-.142-.168-.209-.296-.256-.013-.007-.027.007-.054.013l.121.7c.007.033.027.073.027.107l.02.813c.007.02-.006.034-.013.047h-.02c-.007-.033-.014-.06-.014-.087v-.377c0-.114 0-.228-.013-.336a1.76 1.76 0 0 0-.08-.363 6.307 6.307 0 0 0-.189-.497c-.013-.027-.04-.067-.067-.067a1.026 1.026 0 0 0-.249 0c-.04 0-.06.033-.033.08a3.7 3.7 0 0 0 .1.169c.027.047.081.094.095.147.08.303.194.592.194.914v1.13c0 .127 0 .255-.013.376a28.25 28.25 0 0 1-.107.86 22.211 22.211 0 0 1-.256 1.15c-.054.174-.087.268-.148.45-.02.053-.074.248-.1.309-.074.161-.135.33-.202.49v.007l.175-.06c.02-.027.04-.06.053-.094.128-.37.296-.72.377-1.11.067-.302.148-.604.201-.913.068-.41.155-.498.209-.908.006-.053.02-.1.033-.148.007.007.02.007.034.007 0 .067.007.135 0 .202-.007.074-.02.141-.034.215-.053.343-.148.376-.208.719-.047.255-.06.524-.141.78-.054.16-.08.329-.114.497-.027.148-.054.296-.074.444 0 .02.006.047.013.073 0 .007.007.014.014.014.006 0 .013 0 .02-.007a.361.361 0 0 0 .067-.107 7.55 7.55 0 0 0 .181-.551c.06-.195.115-.404.155-.605.054-.249.087-.498.134-.746.007-.027.168-.49.182-.518.013.074-.108.571-.121.632-.06.336-.135.672-.195 1.008-.02.094-.02.195-.034.296 0 .006.007.02.014.02.006 0 .013-.007.02-.014.02-.053.047-.107.06-.16zm2.48-2.097c-.02.007-.047-.013-.027-.067.014-.02.02-.047.04-.06.129-.088.256-.175.384-.27a.553.553 0 0 0 .188-.255c-.155.02-.228-.087-.323-.16a.857.857 0 0 1-.268-.33c-.121-.262-.236-.524-.417-.746a3.816 3.816 0 0 0-.316-.343c-.08-.074-.175-.121-.262-.188-.027-.02-.087-.047-.054-.094.014-.027.074-.014.114-.014.007 0 .014.007.02.014.128.114.263.222.397.33.014.012.034.02.054.033.027.013.06.02.087.04.195.175.417.316.605.51.108.115.215.223.256.377.013.047.04.06.08.054.108-.014.182-.135.161-.256-.033-.228-.181-.37-.342-.504a.936.936 0 0 0-.249-.147c-.094-.034-.188-.054-.289-.081-.027-.007-.054 0-.08 0-.014 0-.027-.014-.04-.02.006-.02.006-.054.02-.054a.337.337 0 0 1 .114-.007c.12.027.241.067.362.094.115.027.222.047.336.06.027 0 .061-.013.081-.033.094-.067.1-.181.121-.289.02-.107 0-.154-.094-.188-.013 0-.02-.007-.034-.007-.107-.027-.221-.033-.329-.06a1.664 1.664 0 0 0-.605-.074c-.08.007-.154.02-.228.027-.04 0-.094.027-.108-.054.054-.013.101-.04.155-.047.208-.027.423-.04.632-.06.168-.02.342-.034.49-.128.121-.08.121-.101.067-.202-.006-.013-.006-.033-.013-.054l-.02-.06c-.047-.087-.094-.182-.141-.269a.319.319 0 0 0-.068-.067c-.12-.1-.248-.128-.39-.054a1.596 1.596 0 0 0-.383.29c-.04.04 0 .013-.053-.014.161-.108.309-.31.423-.356a.563.563 0 0 0 .249-.202c0-.007.007-.014.007-.02.02-.29-.101-.558-.195-.847-.189-.598-.283-1.217-.39-1.835-.121-.732-.35-1.613-.538-2.325-.033-.108-.403-.887-.504-.8-.013.08.027 1.862-.013 2.5-.034.49-.498 1.022-.619 1.499.02-.128.034-.262.054-.397.06-.383.484-.826.464-1.216-.02-.256-.518-2.487-.545-2.655.014 2.386-.618 3.925-.813 4.382-.134.316-.336.692-.51 1.028-.088.168-.195.33-.29.491.014-.027.02-.06.034-.087.175-.424.35-.847.518-1.27.06-.142.1-.296.147-.444.081-.256.175-.504.25-.766.08-.256.14-.518.207-.773.06-.209.115-.41.121-.632.007-.262.04-.518.06-.78.021-.309.014-.618-.033-.927a.486.486 0 0 0-.127-.255c-.02-.027-.054-.054-.081-.081-.06-.047-.114-.1-.182-.135-.067-.033-.1-.013-.107.061-.013.1.255.31-.06 2.359-.034.195-.216.712-.222.726l-.101.302c-.027.094-.06.188-.094.282-.088.25-.162.498-.262.74a2.586 2.586 0 0 1-.363.598c-.229.269-.444.564-.679.827-.208.228-.45.43-.712.591-.209.128-.417.255-.625.376-.101.06-.209.121-.323.168-.255.108-.51.222-.766.316-.162.06-.33.108-.498.141-.127.034-.268.034-.403.054-.027.007-.047.02-.08.034.026.027.04.047.06.06.148.135.296.262.39.45.08.162.222.209.383.189.195-.027.35-.148.497-.262.188-.148.363-.316.538-.478.047-.04.464-.356.632-.457a3.24 3.24 0 0 1 .336-.181c.134-.06.282-.114.39-.013.053.06.107.127.168.181.053.054.12.128.188.134.12.02.248.02.376.02.02.007.047.014.067.014a3.565 3.565 0 0 0 1.54-.31c.235-.107.813-.295 1.007-.47.202-.181.363-.416.518-.645.188-.275.356-.564.497-.867.007-.013.007-.027.014-.04.006.02.02.054.027.074.006.027 0 .06 0 .087 0 .101-.007.202-.007.303-.007.114.007.235-.014.342a.983.983 0 0 1-.1.31c-.047.094-.094.201-.168.268-.189.175-.37.363-.605.47-.188.088-.74.243-.928.33-.08.034-.168.047-.248.067-.06.02-.115.034-.175.054v.02c.141.068.275.135.423.209.02.06.04.127.067.201.02.047.061.094.068.141.033.142.047.29.067.43.007.068.007.142.007.209.006.161.013.322.013.484-.007.181-.02.356-.02.537 0 .357 0 .706-.007 1.056-.007.242-.027.483-.047.725-.02.31-.08.296-.161.599-.04.154-.074.302-.108.457-.027.147.014.208.155.208.027 0 .054-.007.08 0 .095.02.155-.04.202-.1.067-.082.114-.182.175-.27.175-.269.632-.625.706-.934.067-.296.08-.269.06-.564-.034-.478-.155-.941-.242-1.405l-.12-.639c-.034-.208-.068-.43-.115-.638-.034-.155-.45-.242-.504-.39-.02-.06.356-.148.41-.188.013.06.027.121.047.175.087.255.168.517.201.793.014.12.048.235.074.356.02.087.034.181.054.269l.04.195c.048.322.095.645.148.968.027.194.068.39.094.584.027.215.068.424.182.605.033.06.195-.128.262-.134h.02c.054-.007.101.027.148.06a.404.404 0 0 0 .148-.188.373.373 0 0 0-.121-.208c-.014-.014-.014-.047-.02-.068.02.007.054 0 .067.014l.181.161c.02.02.047.034.068.047l.027-.027c.073-.154.154-.302.208-.463.04-.121-.007-.182-.135-.202a.165.165 0 0 0-.08.007c-.047.013-.088.027-.135.033zm3.367-3.293a12.38 12.38 0 0 0 .915-3.817c-.29-.215-.66-.323-.955-.531-.007 0-.007.006-.007.006-.006-.006-.006-.013-.013-.02a1.477 1.477 0 0 1-.155-.134c-.114-.128-.201-.276-.309-.41-.06-.067-.12-.134-.188-.202-.027-.027-.054-.053-.08-.074-.155-.127-.296-.275-.45-.403-.082-.067-.176-.114-.256-.181a1.589 1.589 0 0 1-.39-.404c-.067-.1-.134-.194-.202-.295a.668.668 0 0 1-.074-.135c-.087-.174-.255-.201-.416-.235-.081-.013-.162-.013-.242-.02-.027 0-.047.013-.074.02.007.027.013.054.033.074a.584.584 0 0 0 .101.087c.094.054.121.155.162.25.033.073.073.147.12.214.054.08.115.155.162.235.02.034.423.605.43.646-.121-.202-.699-.894-.773-1.13-.02-.053-.08-.1-.12-.147-.088-.088-.182-.175-.25-.276a1.076 1.076 0 0 0-.329-.323c-.161-.094-.699-.114-.8-.289-.04-.067-.094-.134-.12-.208-.095-.249-.263-.43-.41-.638a.624.624 0 0 0-.243-.215.463.463 0 0 0-.053-.02c-.135-.034-.202.02-.189.16.007.122.027.25.068.364.02.067.087.12.134.174l.182.182c.006.007.013.02.013.04-.134-.154-.33-.255-.403-.47-.034-.115-.074-.229-.108-.343-.067-.215-.14-.417-.275-.591a.147.147 0 0 1-.02-.034 3.003 3.003 0 0 0-.417-.41l-.135-.06c-.006 0-.013.006-.026.006 0 .114 0 .229-.007.343a.41.41 0 0 1-.047.161c-.074.128-.04.242.033.35.02.033.047.06.06.094.014.027.021.067.021.1-.007.108-.02.209.087.276.054.034.094.094.148.135.135.114.175.282.209.45a.241.241 0 0 1-.047-.067c-.054-.094-.101-.189-.162-.27-.04-.046-.094-.08-.134-.107-.054.047-.08.074-.121.101-.128.074-.182.188-.182.343 0 .054-.013.114-.02.168-.006.047.014.08.047.12.188.236 1.304.27 1.512.471.175-.027.914 1.143.968 1.277.202.518.29 1.069.383 1.62.215 1.27.45 2.54.733 3.797.054.135.1.276.161.41.094.222.121.457.155.692v.027c-.014.135-.034.27-.047.41l-.02.343a11.388 11.388 0 0 1-.108.74c-.013.087-.047.18-.067.268-.027.121-.047.249-.08.37-.041.14-.088.275-.135.41-.007.013-.007.02-.014.033v.511a11.54 11.54 0 0 0 2.836-4.019zm.834-4.22c.02.006.04.013.067.033.007-.1.007-.195.007-.289 0-1.552-.31-3.065-.908-4.483a11.54 11.54 0 0 0-6.13-6.13 11.371 11.371 0 0 0-4.482-.906 11.21 11.21 0 0 0-4.503.927 11.54 11.54 0 0 0-6.13 6.13c-.503 1.196-.799 2.46-.88 3.763.101-.087.222-.141.343-.188.31-.128.625-.269.921-.43l.101-.06c.074-.041.128-.101.195-.142.235-.14.45-.309.645-.51.02-.014.034-.034.054-.054.054-.06.107-.128.161-.189.054-.067.101-.127.141-.201.02-.034.04-.06.06-.094.21-.39.585-.68.848-1.042.14-.195.255-.417.463-.524.202-.108.383-.578.39-.598.108-.215.222-.43.303-.652.067-.182.168-.336.255-.504.02-.04.094-.034.114.02.027.087.101.128.168.168.02.013.06.013.08 0 .041-.02.082-.054.115-.08.1-.081.215-.102.336-.095.034 0 .08-.02.108-.047.094-.094.188-.188.275-.296.06-.074.101-.16.155-.242.027-.04.06-.08.08-.114.054.034.095.06.142.08.02.008.06-.013.074-.033.067-.1.127-.208.188-.322.027-.054.06-.074.114-.068.175.02.242-.033.302-.201l.04-.101c-.006-.1.041-.181.102-.269.053-.128.1-.262.154-.39.054-.148.168-.161.256-.027.06.095.107.195.16.296.088.168.155.35.297.484.04.047.107.034.14-.034.041-.073.075-.154.095-.235.06-.188.107-.383.161-.578a.317.317 0 0 1 .04-.1c.115-.189.229-.37.343-.558.007-.014.02-.027.027-.047.054-.216.202-.35.376-.457.054-.034.182-.202.222-.25a.786.786 0 0 1 .363-.248c.135-.054.202-.14.356-.114.162.034.316-.222.444-.249.181-.04.322-.1.49-.1.169 0 .337.02.505.026a.588.588 0 0 0 .107-.013c.208-.054.383.175.565.255.188.088.363.202.544.29.094.046.195.107.31.087.006 0 .02 0 .026.006.182.094.37.357.47.565.081.175.182.336.337.457a.62.62 0 0 1 .127.188c.067.141.128.29.195.43.027.054.08.101.114.155.115.168.162.356.182.55.007.055.02.108.04.156.047.114.175.497.209.57.094.196.094.814.087.814.027.161-.155.632-.1.968.14.067.261.013.375-.074.182-.141.303-.33.397-.545.027-.067.148-.37.289-.47.289.269.524.638.726.981.047.074.094.155.134.235.027.02.06.04.101.054.276.088.47.283.632.518.114.161.215.33.322.49.068.108.142.209.215.316.034.04.068.088.101.135.08.1.558.087.652.161a.747.747 0 0 1 .175.181c.074.108.181.074.296.088.053.007.37-.06.457-.229.074-.148.174-.47.221-.39.014.31.148.545.29.82.201.39.423.76.678 1.11l.498.45c.45.403.914.82 1.485 1.014zm-11.882-5.8c.013 0 .02.16.026.16.06.323-.053.632-.053.969-.088-.054-.101-.121-.088-.168.047-.169.08-.343.074-.511 0-.06 0-.128.007-.195 0-.034.02-.222.034-.256zm-.47-2.083c-.142-.007-.283.028-.438.041a.146.146 0 0 1 .054-.034.75.75 0 0 1 .517-.041c.054.02.115.027.168.041v.02c-.013.007-.04.014-.053.007a.502.502 0 0 0-.141-.02.513.513 0 0 0-.108-.014zm.06 1.834c.013-.007.04-.007.053.006.014.007.007.04 0 .054a.396.396 0 0 1-.201.162.658.658 0 0 1-.41-.02l-.04-.02c.006-.007.013-.02.02-.028.033 0 .073-.006.107 0a.497.497 0 0 0 .424-.127l.047-.027zm.154-1.365c.08.02.08.02.054.095-.141-.027-.276-.068-.41-.074-.134-.007-.269.013-.403.02 0-.007-.007-.02-.007-.027.047-.06.114-.06.175-.06.154 0 .316-.02.47.033.04.013.08.007.121.013z"/>
    </g>
</svg>
