<svg xmlns="http://www.w3.org/2000/svg" width="50" height="50" viewBox="0 0 50 50">
    <path fill="#212123" fill-rule="nonzero" d="M25 0C11.193 0 0 11.193 0 25s11.193 25 25 25 25-11.193 25-25S38.807 0 25 0zm8.353 16.097a3.846 3.846 0 1 1 0 7.693 3.846 3.846 0 0 1 0-7.693zm-16.706 0a3.846 3.846 0 1 1 0 7.693 3.846 3.846 0 0 1 0-7.693zM25 40.66c-6.53 0-12.436-4.121-14.698-10.255l3.093-1.14c1.786 4.844 6.45 8.099 11.605 8.099s9.819-3.255 11.605-8.1l3.093 1.14C37.436 36.539 31.53 40.66 25 40.66z"/>
</svg>
