<svg xmlns="http://www.w3.org/2000/svg" width="350" height="350" viewBox="0 0 350 350">
    <path fill="#070707" fill-rule="evenodd" d="M158.7 87.3c-.3.8-.7 1-1.6.7-4.6-2-9-1.3-13.3 1.3-.2.1-.5.1-.9.1.2-.4.2-.6.3-.7 1-.8 2-1.5 3-2.2.5-.3.9-.5 1.4-.8 1.3-.7 2.5-1.5 3.8-2.1 1.3-.5 4-1.4 4.3-1.5 3.6.2 4.5.8 6.1 1.1 1.2.2 1.8.8 2.6 2.1-1.2.1-2.2.2-3.2.2-1.3 0-2 .5-2.5 1.8zm26.5 16.4c2.1 1.9 5.2 2.8 6.3 5.7-1.9-1.2-3.8-2.5-5.7-3.7-.8-.5-.7-1.2-.6-2zm-2.1-11.8c-.8-.3-.9-1.1-.5-2.2 2.8 2.4 5.7 4 9.4 3.3-1.3 1-2.8.9-4.1.6-1.7-.4-3.2-1.1-4.8-1.7zm-16.7-27.4c1 .2 2 .6 3 .9.8.2 1.5.4 2.3.6 0 .2-.1.3-.1.5-1.2-.2-2.5-.4-3.7-.6-.5-.1-1.1-.2-1.6-.3-2.1-.2-4.2-.1-6.3-.1-1.6 0-3.3.1-4.9.1-.1-.1-.1-.3-.2-.4 3.8-.4 7.7-1 11.5-.7zm-22.9 28.7c1.6-1.8 3.7-2.9 5.9-3.6.1.1.2.3.3.4-.8.8-1.7 1.4-2.4 2.2-.7.7-1.3 1.5-1.9 2.4-.5.8-1.1.6-1.6.2-.5-.4-.8-1-.3-1.6zm192.7 13.7c9.2 21.6 13.8 44.5 13.8 68.1 0 23.6-4.7 46.5-13.8 68.1-8.8 20.8-21.4 39.5-37.5 55.6-16 16.1-34.8 28.7-55.6 37.5-21.6 9.2-44.5 13.8-68.1 13.8-23.6 0-46.5-4.7-68.1-13.8-20.8-8.8-39.5-21.4-55.6-37.5-16.1-16-28.7-34.8-37.5-55.6C4.6 221.5 0 198.6 0 175c0-23.6 4.6-46.5 13.8-68.1C22.6 86 35.2 67.3 51.3 51.3c16-16.1 34.7-28.7 55.6-37.5C128.5 4.6 151.4 0 175 0c23.6 0 46.5 4.6 68.1 13.8 20.8 8.8 39.5 21.4 55.6 37.5 16.1 16 28.7 34.8 37.5 55.6zM53.9 296.1c2.4 2.4 4.8 4.7 7.1 6.9v-.2c-.1-.3-.1-.7-.2-1.1-2.6-6-4.6-15.6-7.2-21.6-1.1-2.7-2.5-11.4-2.4-14.7.4-8.9 4.9-35.4 6.1-37.7.2-3.3.2-10.8.1-12.4-.2-4.4-.5-8.8-.1-13.2.5-5.4 1.9-10.7 3.4-15.9 3.5-12 15.5-50.9 33.7-52.9 3-1.2 6-2.4 9-3.7 2.8-1.2 5.6-2.6 8.4-3.8 2-.9 4.1-1.7 6.2-2.6v-.3c-1.2-.8-2.4-1.5-3.6-2.3-1.8-1.1-3.7-1.6-5.7-2.1-.6-.1-1.2.1-1.8.2-2.2.4-4.3.1-6.5-.8-1.5-.6-2.5-1.5-3.3-2.8-1.1-1.7-2.8-2.8-4.6-3.4-1.4-.5-2.3-1.7-3.2-2.8-.8-1.1-1.7-2.3-2.8-3-2.4-1.5-4.2-3.4-5.3-6.1-.3-.6-.7-1.2-1.1-1.8-.1 0-.2.1-.3.1-.1.2-.1.5-.1.7.3 2.3.5 4.7.9 7 .3 1.4-.2 2.6-.6 3.8-.6 1.8-.7 3.6-.3 5.5.9 3.8.2 7.5-1.2 11-.8 1.9-1.7 3.6-1.3 5.7.2 1-.5 1.6-1.1 2.3-1.4 1.4-2.4 3-2.9 4.9-.1.3-.2.6-.1.9.4 1.2-.1 2.1-.8 3.1-.8 1.2-1.5 2.5-2.3 3.8l-.6.9c-.1-.1-.2-.1-.3-.2.5-1 1-2 1.6-3 1.1-1.6 1.8-3.3 1.7-5.3-.1-1.8.9-3.2 2-4.4 1.1-1.1 1.8-2.3 1.9-3.9.2-2.7 1.6-5 2.4-7.5.8-2.5.9-5 .6-7.5-.2-1.8-.5-3.5-.2-5.3.4-2.9 0-5.7-.4-8.5-.3-2.7-.7-5.3-1-8 0-.3-.1-.7-.3-1.1-1.1 1.3-2.2 2.5-2.6 4.2-.1.5-.2 1-.2 1.5 0 1.8-.6 3.2-2.1 4.3-2.2 1.7-3.6 3.8-3.4 6.9 0 .6-.1 1.2-.2 1.8-.2 1.4-.9 2.5-2 3.2-.6.4-1.3.8-1.9 1.2l-.3.3c-1 .9-2.3 1.5-3.5 2.1-1.2.9-2 2-2.9 3.3-2.2 3.3-4.3 6.7-7.4 9.2-.6.5-1.2.9-1.8 1.2-2 1-10.3 12.5-14.1 15.8-4.1 4.7-8.8 8.6-14.3 12-2.2 1.3-12 6.3-16.9 10.8-.1 1.4-.1 2.8-.1 4.2 0 23.1 4.5 45.6 13.5 66.6 8.6 20.4 21 38.8 36.7 54.5zM164.7 37.4c-2.1.6-4 1.5-5.7 2.9-2.1 1.8-3.9 3.6-5.6 5.7-.6.8-1.3 1.5-2 2.2l-3.9 3.6c-2.3 2.2-4.5 4.6-6.9 6.7-2.9 2.6-5.3 5.6-7.5 8.9-.2.3-.2.7-.3 1.1l.3.3c.4-.4.9-.7 1.2-1.2 1.8-2.7 4.2-4.5 6.4-6.7 2-1.9 4.2-3.6 6.1-5.6 4-4.3 7.8-8.8 11.9-13 1.9-1.9 4.1-3.6 6.8-4.3.2-.1.5-.3.7-.5 0-.1-.1-.2-.1-.3-.5.1-1 .1-1.4.2zm-5.4 1c2 0 5.4-1.9 5.5-3-2 .5-3.7 1.6-5.5 3zm72.2 101.7c.2.2.1 4.6.2 6-.5 3.2-1 6.3-1.5 9.5-.6 3.4-1.1 6.9-1.9 10.3-.6 2.6-1.4 5.1-2.2 7.6-1.1 3.7-2 7.6-3.7 11.1-2.7 5.6-5.7 11-8.6 16.5-.6 1.2-1.6 2.1-2.2 3.3-1.8 3.7-4.6 6.5-7.2 9.5-4.2 4.7-8.8 9-13.2 13.5-.7.7-1.5 1.3-2.3 2 1.6-2.3 3.2-4.4 4.9-6.4 4.1-4.9 8.6-9.4 11.8-15.1 1.5-2.8 3.2-5.5 4.9-8.2 1.2-2 2.8-3.9 3.7-6.1 1.9-4.5 3.5-9.1 5.1-13.8 1-2.9 1.7-6 2.3-9.1.6-2.8 2.8-21.7 2.1-31.2-.2-2.7-.1-5.5-.4-8.2-.3-2.8-1-5.5-2.5-8-.8-1.2-1.4-2.5-2.1-4-.1.4-.3.7-.3 1-.1 1.7-.2 3.5-.1 5.3.1 1.5.4 3 .4 4.5 0 2.4-.2 4.7-.3 7-.1 1.3-.1 2.6-.3 3.9-.1 1-2.1 8.6-3 10.5-.8 1.9-4.9 11.8-5 11.9-2 4-4 8-6.2 11.9-2.2 3.8-4.9 7.3-7.1 11-1.7 2.9-5.9 11.6-5.9 13 2.2-1.4 4.3-2.4 6.2-3.8 2-1.5 3.8-3.5 5.7-5.3.4-.4.9-.8 1.3-1.3-.6 1.2-1.2 2.3-1.8 3.5-2.5 4.6-5.1 9.4-8.2 13.4l-5.7 7.2c-3.8 3.1-7.6 6.1-11.3 9.2-1.3 1.1-2.4 2.7-3.8 3.7-1.6 1.2-2.6 2.7-3.5 4.4-.9 1.7-1.8 3.4-3 4.7-1.4 1.4-3.1 2.5-5 3.1-.6.2-1 .6-1.5.9 0 .1.1.3.1.4 1.3.2 2.5.4 3.8.5 2 .2 4.1.2 6.1.3 1.3 0 2.6.2 3.9.2 3.7.1 7.1-1.4 10.8-1.1.1 0 .1-.1.2-.1 2.4-.6 4.9-1.1 7.3-1.9 2.5-.9 4.9-2.3 7.5-3.1 4.1-1.3 7.3-4 10.4-6.9 1.4-1.3 2.7-2.7 3.9-4.1 2.2-2.7 4.5-5.4 6.6-8.2 1.2-1.7 2.2-3.6 3.3-5.4 3.2-5.3 6.6-10.5 8.7-16.4.3-.9.6-1.7.9-2.6-.1-.1-.2-.1-.3-.2-.3.3-.5.6-.7 1-.4.6-.6 1.3-1 1.9-2.9 3.8-5.7 7.7-8.7 11.5-2.4 3.1-4.9 6.1-7.4 9-3 3.4-6.2 6.7-9.3 10.1-1.2 1.3-2.4 2.8-3.7 4.1-1.5 1.5-3.2 2.9-4.6 4.5-1.4 1.5-2.8 2-4.9 1.2.6-.4 1.1-.8 1.5-1.1 4.5-3.3 8.3-7.4 12-11.6 2.6-3 4.9-6.3 7.5-9.3 2.1-2.4 3.8-5 5.3-7.8.5-1 1-2 1.6-3 1.1-1.8 2.2-3.6 3.2-5.4.5-1 .8-2.2 1.4-3.2 2.1-3.5 4.5-6.9 5.8-10.9.7-2 1.7-3.9 2.5-5.8 1.1-2.6 2.5-5.1 3.2-7.8 1-4.2 1.7-8.4 2.2-12.6.4-3.2.1-15.8-.8-18-.7-1.8-3.7-2-5.6-2.8-2.1-.8-4.1-1.9-6.1-2.8-.3-.2-.8 0-1 .3-.3.4-.5.9-.5 1.4 0 2.4 0 4.7.1 7.1.1 3 .6 6 .5 9-.1 4-.7 7.9-1.1 11.9-.2 1.9-.5 3.9-.7 5.8 0 .1.1.3.2.8.5-.8.9-1.3 1.2-1.8 1.6-2.6 2.1-5.5 2.7-8.3.7-3.4.9-6.8 1.4-10.2.3-2.3.8-4.6 1.2-6.9.1-.2.4-.4.6-.6zm7.2-27.4c-.2-.9-.4-1.8-.5-2.8 0-.9.3-1.8.3-2.7 0-2.6.1-5.3.1-7.9 0-.1-.1-.1-.2-.2-.1 0-.2 0-.3.1-.4.4-.8.8-1.1 1.3-2.7 3.7-5.8 6.8-10.2 8l-.6.3c-.8.3-1 .8-1.1 1.6-.1 1.8-.1 3.5-.5 5.2-.5 2.4-.2 4.7.5 7 .4 1.1.6 2.2 1 3.3.1.5.4.9.7 1.2 2.3 2.6 5.5 3.2 8.6 4 1-2.7 2-5.3 2.9-7.9.2-.4.1-.9.2-1.3.2-1.1.5-2.1.7-3.2.1-.7.5-1.4.4-2.1-.1-1.3-.6-2.6-.9-3.9zm-31.8 159.1c-.5-1.1-2.6-1.9-3.8-1.2-.6.5-1.1 1.4-1.3 2.2-.1.6 1 1.5 1.8 1.5 1.1-.4 2.2-.7 3.2-1.2.2-.1.3-1 .1-1.3zm-2.6-3.8c.2.2.3.3.4.5l.2-.2c-.2-.1-.3-.3-.5-.4l-.1.1zm10 10.5c-1.8.9-2.4 2.6-2.7 4.6-.1.5.1 1.1.2 1.9.5-.3.7-.4.8-.6 1-1.4 2.1-2.8 3-4.3.2-.3.1-1-.1-1.3-.2-.3-.9-.5-1.2-.3zm-1.5-4.4c-.1 0-.3.7-.3.9.1.9.3 1.7.5 2.6 1.7-.5 2.2-2.3 1.1-3.3-.3-.2-.9-.3-1.3-.2zm-.3 13.9c-.5.3-.8.9-1.3 1.3-2 1.4-4.1 2.8-6.2 4.2.7.5 1.3.9 1.9 1.4-.1.1-.1.3-.2.4-.9-.3-1.8-.6-2.9-1 .3.8.5 1.5.6 2.1.1.3-.1.6-.1.9-.3-.1-.7-.1-.9-.3-.3-.2-.5-.5-.7-.8-.6-.7-1.1-1.3-1.6-1.9-.7.4-1 .6-1.6.9.1-1.3-.5-1.7-1.3-2.1-1.1-.5-2.1-1.3-2.9-2.2-1.7-2.1-4-2.2-6.3-2.5 0 0-.1.1-.3.4.5.5 1 1 1.6 1.5 1.7 1.5 2.1 3.4 1.1 5.8.2.2.6.4 1 .7 2.6 2 5.2 3.9 7.9 5.8 1 .7 2.2.6 3.2-.1 1.7-1.3 3.5-2.4 5.2-3.7.7-.5 1.4-1.2 1.6-1.9.6-2.2 1.3-4.3 2.5-6.2.6-.9.9-1.9 1.3-2.8-.1-.2-.2-.3-.3-.4-.4.2-.9.2-1.3.5zm3.1 14.9c-.5.5-1 .6-1.4 0-.9-.8-1.6-1.7-2.4-2.6-.2-.2-.4-.6-.7-.9-1.6.8-3.1 1.5-4.6 2.3-.7.3-1.2.9-1.8 1.4-2.5 2-5 1.4-7.5.1-1.8-.9-3-2.3-4.3-3.8-.5-.6-1.2-1.2-1.9-1.6-1.9-1.1-3.4-2.9-5-4.5-1.1-1-2.3-1.8-3.5-2.6-.2-.2-.7 0-1.1.1-1.4.5-2.8 1.1-4.1 1.7-.8.4-1.4.9-2.2 1.4-.8.3-1.7.4-2.5.8-1.9.9-3.7 1.9-5.6 2.7-2.8 1.2-5.7 2.3-8.5 3.3-2.7 1-5.3 1.8-8 2.7-.5.1-1 .3-1.5.5-1.7.6-2.8-.6-4.1-1.4-1.1-.7-2.2-1.6-3.4-2.3-.2-.2-.7-.1-1.1 0-1.3.4-2.4.7-3.4-.6-1.2-1.4-2.6-2.7-4-4.1-.3-.3-.7-.5-1.2-.8 1 1.9.6 6.8-.6 12.7 4.2 1.1 8.3 2.4 12.5 3.3 9.4 2.1 19 2.6 28.6 3.1 5.3.3 10.6.6 15.8.1 11.7-1.1 22.7-5.8 33.4-10.5-.3-2.3.1-.6-.3-3.2-.1-.9-.5-1.7-.7-2.6-.1-.1-.2-.1-.3-.1-.7.9-1.5 1.7-2.2 2.6-.8.9-1.6 1.9-2.4 2.8zm-.1-5.5c.4.6.6 1.3 1.2 1.7.2.1 1-.2 1.3-.6.8-1.1 1.7-2.2 2.4-3.4.4-.7.3-1.4-.5-1.9-1.3-.9-1.4-1-2.3.5-.2.2-.4.3-.5.5-.5 1-1 2.1-1.6 3.2zM191 318.1c10.8-1.1 21.4-3.5 31.7-6.6-.2-1.3-.4-2.7-.6-4-8.8 1.4-16.8 6-25.3 8.9-1.9.7-3.8 1.2-5.8 1.7zm32.2-2.7c-15.1 4.4-30.2 8-45.8 7.6-16.2-.4-30.4-1.3-44.4-6.4-.8-.3-2.2-.7-3.6-1.2-.3 1-.5 2-.8 3 7 2.6 18.5 7.4 47.8 8.1 16.1.4 32.1-2.6 47.3-7.2-.1-1.3-.3-2.6-.5-3.9zm-89.1-23.9c-.2.3-.6.9-.5 1 1 1.1 2.1 2.2 3.1 3.3.7-.1 1.1-.8.9-1.5-.4-1.4-1.3-2.3-2.5-3-.3-.1-.8 0-1 .2zm34.2-16.5c-.9 0-1.8-.2-2.7-.2-1.3.1-2.3.9-2.5 2.1 2.4-.4 4.5.2 6.2 2.2 1.7-1.9.9-4-1-4.1zm-.9-3.2c-.1 1 .4 1.4 1.8 1.4.3-.9.5-1.7.8-2.6.2-.6 0-.8-.5-.9-.9-.1-2.1 1.1-2.1 2.1zm2.9 10.4c-.3-.8-1.5-1.1-2.1-.8-1.5.8-2.9 1.6-4.3 2.4-.4.2-.6.6-.8.8 0 1 .5 1.4 1.2 1.2.6-.1 1.2-.5 1.8-.4 1.6.2 2.8-.6 3.8-1.7.3-.3.6-1.1.4-1.5zm-4.8-11.4c.5-.7.9-1.4 1.3-2-1.3-1.6-2-1-3.6.6.8.5 1.5.9 2.3 1.4zm-2 1.4c-1.7-.4-3.1-.1-4.6.5.9 1.1 2.3.8 4.6-.5zm-4.5 3.6c-.2 0-.4.5-.6.8.1.1.1.2.2.3l2.1-.3v-.5c-.6-.1-1.1-.3-1.7-.3zm.9 3.1c-.8.1-1.5.2-2.2.5-.4.2-.7.9-.8 1.4 0 .1.7.5 1.1.7.6.3 1.2.4 1.8.6.9.2 1.7.4 2.2.6 2.2.1 3.5-1 3.7-2.7.1-1.1-.6-1.9-1.7-1.7-1.4.2-2.7.4-4.1.6zm.4 7.7c.9-.2 1.4-1.5.8-2.1-.9-1.1-3.4-1.3-4.4-.3-.4.5-1 1.4-.9 1.9.2.6 1.1.8 1.5 1 1.2-.2 2.1-.3 3-.5zm-4.4-12.9c.9-.1 1.9-1.1 1.8-2.1-.1-.2-.2-1-.4-1-1 0-2.1-.1-2.9.4-.6.4-.8 1.6-1.1 2.5 0 0 .5.4.8.4.6 0 1.2-.1 1.8-.2zm.6 2.1c-2.1-.1-4.2 1.7-3.9 3.3 2.6.4 4.1-.9 3.9-3.3zm-2.3 5.2c-1.2.3-2.4.7-3.6 1.1-.5.2-1 .4-1.5.7-1 .6-1.1 2.2-.3 2.6.7.4 1.5.7 2.3.9.3.1 1 .1 1.2-.2 1-1.1 2-2.3 2.8-3.6.5-.7 0-1.5-.9-1.5zm-3.1-5.8c.4-.5.5-1.3.7-2 0-.2-.3-.6-.6-.7-1.2-.3-3.6 1.7-3.7 3v.1c0 1 .6 1.5 1.5 1.1.7-.4 1.6-.8 2.1-1.5zm-.2 3.1c-1.3-.3-3.1.2-4 .9-1.3.8-2.1 2.8-1.7 4.3.1.3.3.5.5.7 0 0 .5-.2.5-.3.5-1.6 1.9-2.2 2.9-3.2.7-.6 1.1-1.5 1.8-2.4zm-5.4-1.1c.2-.4.3-1.2 0-1.6-.2-.2-1-.3-1.4-.1-1.5.7-2.9 1.6-3.7 3.2-.9 1.8 0 4 1.8 4.1.4-.8.6-1.5 1-2.1.7-1.2 1.6-2.3 2.3-3.5zm-3.7 8.4c-1 0-1.4.4-.9 1.3.5 1.7 1 3.5 1.5 5.2.4 1.3.8 2.7.3 4.1-.7 1.8-.4 2.4 1.6 3.5.9.5 1.9 1 2.8 1.5.2.2.5.4.8.4 1.9 0 3.8.5 5.6-.3 1.2-.6 2.5-1 3.8-1.4 5.3-1.8 10.2-4.6 14.5-8.4.3-.3.5-.7.7-1.1.7-1.8 1.6-3.2 3.6-3.7.7-.1 1.2-.7 1.8-1.1-.1-.1-.1-.2-.2-.3h-1c-2 .3-4 .6-6 .8-3.2.3-5.3 2.1-7 4.7-.3.4-.5.9-.8 1.3-.2.2-.6.2-.9.3 0-.2-.2-.6-.1-.8.4-1.2.6-2.6 2-3.1.2 0 .2-.3.5-.7-3.9.8-7.4 1.5-11.1 2.3.4 1.3 0 2.3-1.1 3.2 0-.4-.1-.7-.1-.9-.2-2.6-.4-2.9-2.8-3.6-1.3-.4-2.7-.8-3.7-1.9-1-1.1-2.4-1.4-3.8-1.3zm48.2-7c-.8 0-1.5.2-2.3.4.1-.2.1-.5.2-1.1-1 .3-1.8.5-1.7 1.7 0 1 .7 1.3 1.4 1.4.9 0 1.8-.1 2.7-.2.9-.1 1-.7.5-1.5-.2-.3-.5-.7-.8-.7zm19.4 5.1c-1.5-1-4.3.1-4.8 1.9 0 0 0 .1 0 0 .8.7 1.4 1.3 2.1 1.8.2.1.8.2 1 0 .7-.5 1.4-1.1 2-1.8.5-.5.3-1.5-.3-1.9zm-3.3-4.1c-.3.3 1.3 2.3 1.9 2.2 2.5.5 3.5-.5 3.4-3.1v-.2c-.1-.1-.1-.2-.1-.3-1.1 0-2.2-.3-3.2-.1-.7.2-1.5.9-2 1.5zm3.9 7.2l-.2-.2c-.1.1-.2.1-.3.2.1.1.1.2.2.2s.3-.1.3-.2zm-5.5 3c.5-.4.8-.9.6-1.6-.4-.9-1.1-1-1.9-.9-.8.1-1.1.7-1.1 1.4s.1 1.5.2 2.3l.3.3c.6-.5 1.3-1 1.9-1.5zm-.7-6.4c.7.3 2-.7 2-1.6 0-1-1.3-1.7-2.2-1.3-1.5.6-2.9.8-4.3-.1-.2-.1-.5-.1-.8-.1 0 .4-.1.8 0 1 .2.3.5.7.9.8 1.4.5 2.9.9 4.4 1.3zm-4.5.1c-.9.1-2 .2-2.2 1.5 1.7.5 3.3 2 5.1.3.1-.1.3-.1.6-.2-1.1-1.1-2.2-1.7-3.5-1.6zm0 7.3c.7.2 1.1-.3.9-1.1-.6-2.4-4.1-3.4-6-1.5.4.3.8.5 1.2.7 1.1.6 2.2 1.1 3.3 1.7.2.1.4.1.6.2zm-2.4-10.9c1.1-.7 1-2.2 0-3.1-.2-.2-.4-.4-.7-.6-1.9-1.1-3.5-1.1-4.4.9-.1.1-.2.3-.2.3.4 1.1.7 2.1 1.1 3 .1.3.7.8 1 .7 1.1-.3 2.3-.6 3.2-1.2zm-1.4 5.2c-.1-1.5-2.6-2.9-4-2.2-.2.1-.4.4-.4.6-.3 1.8.6 2.9 2.4 2.9.4-.1.9-.1 1.3-.3.3-.2.7-.7.7-1zm-8.7-1.6c-.9 0-1.8.3-2.3 1.5h4.7c0-.1.1-.2.1-.3-.6-.7-1.5-1.2-2.5-1.2zm.4 6.8c-.4 0-.8 0-1.2-.1.2.4.2.9.5 1.1.4.5 1 .8 1.5 1.2.7.7 1.3 1.4 2 2.2 1-.9.9-1.5.4-2.4-.8-1.3-1.9-1.8-3.2-2zm-3.2-8.2c1.1-1.7 1.1-3.2 0-5.1-1.6.3-2.5 1.4-2.5 3 0 .2.1.5.3.6.7.5 1.4 1 2.2 1.5zm-.9 1.5c-.3-1.5-2.1-2.4-3.4-1.7-1 .5-1.9 1.1-3 1.7 1.8.5 3.5 1.1 5.2 1.5.8.2 1.4-.6 1.2-1.5zm-2.3 5.6c1-.7 1.2-1.4.9-2.6-.8 0-1.6-.3-2.2 0-1.4.6-2.9 1.5-4.2 2.4-.6.3-.9 1.1-1.1 1.8-.2 1.1.4 1.6 1.4 1.2 1.8-.8 3.6-1.6 5.2-2.8zm26.1-12.8c1.4.1 2.9.1 4.6.1.1-1.3-.8-1.8-1.7-2.2-.8-.4-1.5-.4-2.1.4-.3.5-.7.7-1.3.2-.2-.1-.6.1-.9.2.1.3.1.7.3.9.3.2.7.4 1.1.4zm-3.5 1.8c.1-.6-1.1-2.3-1.8-2.6-1-.4-1.1.5-1.5 1-.1.2-.2.3-.3.4-.9 1.2-.6 2 .7 2.3.3 0 .6.1.8.1 1 0 2-.5 2.1-1.2zm-4.6-6.5c.9.4 1.3.1 1.1-1.2 0-.1 0-.4-.1-.6-.9-1.9-3.3-2.8-5.2-1.9-.8.4-1 1-.9 1.8.1.8.8.7 1.3.8 1.3.4 2.6.7 3.8 1.1zm-3.5.1c-1.2 0-2.5-.2-3.5 1.2.5.4 1.1 1.2 1.5 1.2 1.8-.1 3.3.4 4.8 1.5.7-.8.4-1.2-.3-1.6-.3-.1-.8-.5-.8-.7.1-1.3-.7-1.6-1.7-1.6zm-3.5-1.1c.2-.4.1-1.1-.2-1.5-1.3-2-3.8-2.2-5.6-1.7-.5.2-.7.5-.4 1.1.3.6.6 1.3.9 2.2 1.3.2 2.7.5 4.1.6.4 0 1-.3 1.2-.7zm-1.7 3.6c-1.6-2.3-4.1-1.7-5.9.1.6.7 1 1.6 1.7 1.9 1 .3 2.2.3 3.3.3.4 0 1.1-.3 1.2-.7.1-.5 0-1.2-.3-1.6zm-5.6-3c.2 0 .5-.7.4-1.1 0-.4-.5-1-.7-1-1.5.2-2.9.5-4.4.7-.1.2-.1.3-.2.5.5.5 1 1.5 1.6 1.5 1.1.1 2.2-.3 3.3-.6zm-4.3 1.7c-1.7.2-3.2.9-4.5 2-.5.4-.7 1.1-.9 1.8-.1.7.2 1.1.9 1 .9-.1 1.7-.3 2.5-.2 1.3.2 2.2-.3 3.2-1.1.8-.6.7-1.4.4-2.2-.3-.8-.6-1.4-1.6-1.3zm-4.9.8c1.4-.8 2.6-1.6 3.9-2.4-.4-.3-.7-.4-.9-.6-.8-.9-1.5-.5-2.2.3-.3.4-.8.7-1.3 1.2.2.5.3.9.5 1.5zm-1.8-3.7c1.1-.5 2.1-1 3.3-1.6-1.7-1-3.3-.2-3.3 1.6zm1.7 9.6c-1.8.3-2.2 2.3-3.4 3.3-.2.2-.2.6-.3 1.3 1.8-.8 3.5-.8 5-1.9.7-.6 1-1.7.5-2.5-.4-.8-1.1-.3-1.8-.2zm-2.1-4.9c.1-.5-.1-1.2-.3-1.8-.4-.8-1.1-.7-1.6 0-.9 1.2-.6 3.1.8 4.8.4-1.1.9-2 1.1-3zm-3.3-7.2c1 .1 1.1-.4.8-1.7-.5-2.4-1.4-4.5-2.5-6.6-1.4-2.7-3.6-4.7-5.6-6.8-.8-.8-1.4-1.9-2.3-2.6-4.4-3.5-8.8-7-13.3-10.5-.3-.3-1-.5-1.3-.4-1.4.6-2.9 1.3-4.2 2.2-1.7 1.1-2.1 3.4-1 5.1.6.9 1.1 1.8 1.8 2.9-1.2-.5-2.2-1.2-3.2-1.4-2.6-.6-6.1 1.2-7.3 4-2 4.7-3.9 9.5-5.6 14.4-1 3.1-1.6 6.3-2.2 9.5-.7 4-.3 7.8 2.9 10.7.8.7 1.7 1.4 2.4 2.3 1.1 1.4 1.8 1.6 3.1.6 1.5-1.2 3.7-.9 4.8.7.5.7.9 1.4 1.3 2.1.8 1.3 1.4 2.6.2 4-.2.2-.2.6-.2.9 0 .3.1.8.3.9.2.1.8.2.9 0 .6-.6 1.5-1.4 1.5-2.1 0-1.5-.2-3.2-.7-4.7-1-2.8-2.2-5.4-3.4-8.1-.6-1.5-1.2-3.2-2.7-4.2-.3-.2-.7-.2-.9-.5-.8-1.4-1.6-2.8-2.3-4.3-.4-.9-.1-1.2.8-1 .3 0 .6.1.8.2 1.5.6 2.2.1 2.4-1.5.2-1.9 0-3.7-.9-5.4-.2-.2-.2-.5-.3-.8l.2-.2c.3.1.7.3 1.2.5.2-1.8-2.4-2.8-1.1-4.9.3.4.6.6.8.9.9 1 1.8 2.1 2.8 3 .5.4 1.2.7 1.9.7 1.4 0 2.7-.5 3.8-1.7.7-.7 1.5-1.3 2.2-1.9l.3.3c-.2 1.2-1 2-1.7 2.8-.7.9-1.4 1.8-2.2 2.5-.9.7-1.9 1.2-2.9 1.9.9.1 1.5.2 2.2.2.8 0 1.6 0 2.3-.3 2.8-1.2 5.3-2.6 7-5.4 1.2-2 2.5-3.9 3-6.2.1-.9.6-1.7.9-2.5.1.1.3.1.4.2-.1 1.6-.5 3.2-1.2 4.6-1 2-2.1 4.1-3.5 5.9-2.4 3-5.3 5-9.2 5.4-1 .1-2.1.8-2.9 1.5-.6.5-.8 1.5-1.1 2.3-.2.4-.1.8-.2 1.2.4 0 .9.2 1.2.1 1.6-.6 3.4-1.1 4.9-2 2.6-1.4 5-3 7.4-4.7 1.8-1.3 4-1.5 6-1.5s3.4-.4 4.2-2.5c.5-1.3 1.4-2.3 2.4-2.8-1 1.6-2.2 3.4-3.5 5.4 1.4.3 2.3-.1 3.1-.7 1-.7 2.1-.8 3.3-.6 1.3.2 2.6.5 3.9.6zm-47.7-105.3c1.5 2.5 3.2 5.1 4.3 7.2-.4-.4-.8-.8-1.1-1.3-1.9-2.6-3.7-5.3-5.6-8-1.7-2.3-3.5-4.5-5-6.9-3.1-4.8-11.1-18.5-12.4-20.3-.2-.3-2.6.5-3.4.8-.2.1-.4.1-.5.2h-.5c-.9.1-1.7.3-2.4.6-3.1.7-5.4 2.7-7.7 4.9-2.4 2.3-4.9 4.4-6.5 7.4-1.2 1.8-2.1 3.7-3 5.6-1.5 3-3 6.1-4.3 9.2-.5 1.2-.9 2.3-1.3 3.5-.2.5-.4.9-.6 1.3-1.2 2.6-1.8 5.5-2.6 8.3-1.4 5.1-3.3 10-4.3 15.2-.1.3-1.5 5-2 7.1-.3 1.1-.1 2.3-.1 3.7 4.1-3.1 9.6-5.7 12.1-4.6.7.1 1.5.3 2.2.7 1.4.8 2.9 1.4 4.4 2.1 2.6 1.3 5.2 2.4 7.6 3.9 4 2.5 7.7 5.3 11.6 7.8 4.3 2.7 8.8 5.3 13.2 7.9 1.9 1.1 3.9 2.1 5.8 3.2 1.7.9 3.4 2.2 5.2 2.9 4.1 1.5 8.2 2.8 12.3 4 3.9 1.1 7.9 1.9 12 2 2.2 0 4.5.3 6.7-.1 3.1-.5 6-1.5 9-2.3.6-.2 1.1-.5 1.9-.8-.7-.9-1.1-1.6-1.7-2.2-.3-.3-.8-.3-1.2-.5-1.7-1-3.3-2-5-2.9-1.2-.7-2.5-1.3-3.7-2-.2-.1-.3-.6-.4-.9.3 0 .7-.2 1-.1.5.1.9.3 1.4.5 1.7.7 3.3 1.4 4.9 2.1.8.4 1.6.9 2.4 1.2 1.5.5 3 .8 4.5 1.2 1.5.4 2 .2 2.4-1.6-.4-.2-.8-.4-1.3-.6-1.5-.5-2.9-1.1-4.4-1.5-4.7-1.3-9.2-3.1-13.5-5.4-4.9-2.7-9.7-5.7-14.5-8.6-2.4-1.4-22.3-16.2-23.8-17.5-3.5-3.1-7.5-5.7-10.5-9.3-8.9-10.7-14.8-22.4-14.7-23.9 2.2 3.2 11.9 14.9 14.1 18.1 13.5 19.2 58.4 42.3 58.5 42.3 2.2.3 5.3 2.4 7.5 2.8 1.5.3 1.5-2.5 2.4-3.9-3.5-2-6.9-3.9-10.2-5.9-3.3-2-6.7-4.1-10-6.2-3.3-2-6.5-4.2-9.8-6.3.1-.1.1-.3.2-.4.3.1.7.2 1 .4 1.2.8 2.3 1.7 3.5 2.4 4.2 2.2 8.6 4.4 12.9 6.6 1.2.6 2.3 1.2 3.4 1.7 1.5.7 3.1 1.4 4.6 2.2 1.4.7 2.7 1.5 4.1 2.2.8.4 1.6.7 2.4 1 .5.2.9.2.9-.5.1-.2.3-.3.4-.5-.1-.1-.2-.1-.3-.2-.1.2-.1.4-.2.6-.3-1.1-.9-1.8-1.8-2.4-4.2-2.9-8.3-5.9-12.6-8.6-3.9-2.5-8-4.5-11.8-7-19.3-12.6-30.9-30.4-34.3-35.3-2.5-3.5-4.7-7.3-7-10.9-2-3.1-3.8-6.3-4.6-9.9.2.2.3.3.4.5 1 1.5 6.7 10.9 8.7 13.9 3.2 4.8 6.5 9.4 9.7 14 1.1 1.6 2.2 3.1 3.5 4.6 1.4 1.6 3 2.9 4.3 4.4 2.2 2.6 15 13.3 15.2 13.2 2.1 1.2 4.1 2.5 6.1 3.7.4.2.8.2 1.2.3 0-.1.1-.2.1-.3-.3-.4-.7-.7-1.1-1.1-1.8-1.6-3.5-3.5-5.5-4.9-7-4.9-15.1-17.5-15.5-18.2-2-3.8-4-7.5-5.9-11.3-1.1-2.3-1.5-4.1-2.5-6.5-.8-2.2-2-6.1-2.4-8.4-1.6-10-.9-15.7-1.3-15.7-.3 0-5.7 2.4-8.6 3.6-1.5.6-1.9 1.7-1.2 3.2 1.4 3.2 2.8 6.4 4.3 9.6.5 1 1.1 1.8 1.5 2.8.7 1.6 1.5 3.2 2.4 4.7.1.1.1.3.2.4.9 1.9 1.7 3.7 2.7 5.5 1 2.3 2.2 4.4 3.5 6.5zm58.7-97.5c0-.1-.1-.2-.2-.4.3-.2.5-.4.8-.5 1-.3 2.1-.7 3.1-.7 2.9-.1 5.4-1 7.9-2.3 1.7-.8 1.9-2 .4-3.3-.2-.1-.3-.2-.4-.3-1.4-.9-2.7-1.9-4.1-2.7-1.1-.7-2.3-1.4-3.7-1.2-1 .1-2.1 0-3.2 0-2.8 0-5.4-.7-7.8-2.1-.3-.1-.6-.1-.9-.1-1.2.2-2.5.3-3.7.7-2.5.8-4.8 1.9-7.3 2.5-6.5 1.7-11.5 8.6-11.4 9.1-.3.3-.4.6-.5 1.1 1.1 1 2.6-.4 3.7 1-.3.2-.5.3-.7.4-2 .9-4 1.8-5.6 3.5-.4.4-.9 1-1.4 1.3-1.3.8-2 2.1-2.4 3.5-.1.3-.1.8.1 1 .2.1.6.1.9 0 1-.3 2-.6 3-1 .4-.2.8-.5 1-.9.6-.9 1-1.4 2.1-.6.3.2 1.2 0 1.5-.3.2-.1 0-.9-.1-1.4-.1-.3-.3-.5-.4-.7l.3-.3c.3.1.7.3 1 .5.2.2.3.5.4.8.5 1.5 1.6 2 3 1.9.3-.1.7 0 .9 0 1.2.2 2.5.2 3.5.8 1.5.9 2.7 2 4 3.2 2.1 1.9 3.7 4.3 3.7 7.4 0 1.7 0 3.5-.1 5.2 0 .4-.3.9-.6 1-1.7.4-2.3 1.8-2.9 3.2-.3.9-1.1 1.5-1.3 2.5 0-1.9.6-3.6 1.6-5.1 2.3-3.4 2.2-7.8-.5-10.9-2-2.3-7.8-3.2-7.8-3.1-4.1-.4-6 1.7-6.6 3-.3.6-.6 1.2-1 1.7-.2.3-.6.3-.9.4-.1-.3-.2-.6-.2-.9 0-.6.2-1.2.3-1.9-1.8.1-2.6 1-2.9 2.5-.1.7-.6 1.4-1 2-.9 1.2-2.2 2.1-2.7 3.4-1 2.7-2 22.7 3.4 20.6.4-.1.8-.8 1.1-.5.3-.9.3-2 .6-2.6.2 0 .2-2.2.3-2.2.5 2.3-1 4.8.7 7.1.7-.5 1.3-.9 1.8-1.5 1.4-1.8 2.9-3.5 5-4.5.3-.2.6-.5.9-.7l.2.2c-.4.5-.6 1.2-1.1 1.5-2.8 1.5-3.9 4.6-5.4 7.2-.2.3-.3.7-.3 1.1 0 .4.1 1 .3 1.1.4.2 1 .2 1.3 0 .5-.3.8-.9 1.2-1.4.9-1.1 1.6-2.3 2.6-3.3.9-1 1.9-1.9 2.3-3.3.1-.3.3-.5.5-.8.1.1.2.1.3.1.1.4.3.8.3 1.3.1 1 .7 1.3 1.5 1.4.8.2 1-.5 1.3-1l1.8-3c.7-1.2 1.5-2.2 2-3.5.8-2.1 1.3-4.3 2-6.5.1-.4.4-.8.6-1.2.1.1.2.1.3.2-.3 1.3-.6 2.5-.9 3.8-.4 1.6-.8 3.2-.9 4.8-.1.7-.2 1.2-.7 1.8-1.2 1.2-1.9 2.7-2.4 4.5.5 0 .8.1 1.2.1 1.5-.2 2.6.6 3.7 1.6.5.4.9.9 1.4 1.2.4.3.9.5 1.4.7l.2-.2c-.3-.5-.6-1.1-.8-1.7-.2-.5-.7-1.1.1-1.6.4.2.7.5 1.1.7 1.5.8 3 .4 3.9-1 1.7-2.7 2.4-5.7 2-8.9-.2-1.6-.5-3.1-.7-4.7-.3-2.3.2-4.5.9-6.7.1-.3.1-.8-.1-1-.3-.2-.7-.2-1.1-.2-.2 0-.5.2-.7.3-1 .3-2.3-.2-2.8-1.1.2 0 .4-.1.5-.1 1.5.4 2.5-.4 3.5-1.4.6-.7.7-1.3.5-2.1-.5-2.2-1-4.5-1.5-6.8-.1-.7.1-1.1.8-1.4 1.1-.5 2.2-.5 3.4-.3 1.3.2 2.6.2 3.9-.3 1.5-.5 3.1-1 4.7-.9 2.1 0 4.2.6 6.3 1 .4.1.9.1 1.4.2.7.2 1.5.5 2.2.8v.4c-.5 0-1 .1-1.5.2s-1 .1-1.5.3c-.4.1-.7.5-1 .7.4.2.7.6 1.1.7 1 .2 2.1.2 3.1.4 1 .1 3-1.3 3-2.4-.1-2.4-2.6-5-5.2-4.6-1.6.3-3.2.1-4.8.1-.2.1-.4-.1-.6-.2v-.4c2.1-.4 4.3-.7 6.5-1.1 0-1-.3-1.4-1-1.4-2 0-4-.1-6 .5-4.2 1.2-8.3 2.9-12.7 2.7-1.4-.1-2.8.1-3.9-1.2.7-.3 1.5-.5 2.2-.6 1.9-.2 3.8-.1 5.6-.4 2.3-.4 4.6-1.1 7-1.5 2.4-.5 4.6-1.5 7-2.9-.5-.2-.9-.5-1.3-.5-.6 0-1.3.1-2 .1-2.6.2-5.1 1.1-7.8.6-.7-.2-1.4.2-2.1.4-.4.1-.7.2-1 .3zm32.1 56.5c.8 5.5.9 11 1.2 16.4 0 1.9-.1 3.9-.1 5.8 0 .7.2 1.5.3 2.2h.4c.1-.3.3-.7.3-1.1.3-2.4.6-4.9.8-7.3.2-3.1.6-6.1.5-9.2-.1-3.4-.6-6.8-1-10.2-.2-1.7-.6-3.4-.9-5.1-.1-.3-.5-.5-.7-.8-.3.3-.7.5-.7.8-.1 2.8-.5 5.7-.1 8.5zm-2.1-17.9c3.4 2.4 5.6 6.6 5.8 10.8 1.3-2.9.9-6.4-.9-9-1.4-2-3.6-3.4-5.1-5.4-1.7-2.2-1.3-8.4-1.7-11.3.3 2-1 7.3-1.3 9.1-.2.7-.2 1.8-.1 2.5.3 1.8 1.9 2.3 3.3 3.3zm-24.7 98.9c-.1-5 .3-9.9 1-14.8 1-6.1 2.9-12 4.8-17.9.2-.8.3-1.7.4-2.5 0-.5 1.1-12.6 1.4-18.2.2-4.5.1-9-.6-13.4-.4-2.4-.8-4.7-1.3-7.1-.5-2.6-1.3-5.1-1.3-7.8-.1-1-.4-2.1-.9-3-1.3-2.2-2.8-4.4-4.2-6.5-1-1.5-2.1-3.1-3.2-4.6-.2.7-.3 1.5-.2 2.2.3 1.3.1 2.6-.3 3.9-.5 1.5-1.3 1.9-2.6 1.3-.2-.1-.3-.1-.5-.2-1.6-.6-3.4.2-4.1 1.9 0 .2-.1.5 0 .7.3 1.1 2 2.1 3.1 1.7 1-.3 1.7-.1 2.4.7.8.8 1.7 1.5 2.5 2.2.1-.1.2-.1.3-.2.1-1.9-.3-3.7-.9-5.5.1-.1.2-.1.3-.2 1.2 2.1 2.5 4.2 3.7 6.3.9-.6 1.2-1.8.8-2.7-.3-.7-.5-1.5-.8-2.2.1 0 .2-.1.3-.2.3.2.7.3.8.6.4.8.8 1.5.9 2.3.3 2.1.4 4.2.8 6.2.8 3.6 1.9 7.2 2.6 10.9.4 1.8.7 3.6 1 5.4 0 1.9.3 3.7.2 5.5 0 .6-.1 1.2-.1 1.8 0-.1-.1-.3-.1-.4-.1.8-.2 1.5-.3 2.3-.3 3.1-.5 6.2-.9 9.3-.3 2.5-.9 5-1.4 7.5-.5 2.5-1 4.9-1.4 7.4-1.1 6.1-2.2 12.2-3.1 18.3-.4 2.3-.5 4.7-.6 7v3.9c.6-.1 1-.1 1.5-.2v-1.7zm-3.8-64.5c.2 3.1.4 6.1.4 9.3.1 1.8-.2 3.5-.4 5.3-.2 2.6-.4 5.2-.7 7.7-.6 4.5-1.3 9.1-1.9 13.6 0 .3.1.5.1.8h.3c.1-.6.2-1.3.3-1.9.3-1.8.4-3.7.8-5.5 1-5.1 2.2-10.3 3.2-15.4.7-3.3 1-6.5.4-9.8-.6-3.6-1.9-6.7-4.3-9.1l-.3-.3c-12.5-5.9-15.9 4.8-16 6.6-.3 1.3 0 2.7.5 4 1 2.6 2.1 5.1 2.9 7.7.7 2.2 1.1 4.6 1.6 6.9.5 2.2 1.1 4.4 1.7 6.6.2.7.5 1.4.7 2.1.1-.1.3-.1.4-.1v-1.2c-.2-1.4-.3-2.8-.5-4.2-.5-2.8-.7-5.6-1.5-8.3-.4-1.3-1.8-9.2-1.8-11.6 0-1.1 0-2.2.3-3.3 0 1.1.2 2.2.4 3.3.6 3 1.2 6.1 1.4 9.2 0 .5 1.1 3.9 1.6 5.4.2-1.4.5-2.8.4-4.2v-.8c.1-.2.1-.3.1-.5-.1-.6-.4-9.7-.3-11.4.1-.8.1-1.5.2-2.3 0-.6.2-1.1.4-1.7.1.2.2.3.2.5.1.6 0 1.3 0 1.9-.1 1.9-.2 3.9-.2 5.8 0 2.2.2 4.3.1 6.5 0 3.5-.3 6.9-.4 10.4 0 1.9.1 3.7.2 5.6.1 2 0 3.9.2 5.9.3 2.6.6 5.3.9 7.9 0 .5.4 4 .3 4 .1 1.4.3 2.8.5 4.2.1-.1.3-.1.4-.1-.1-1-.4-6-.4-6V180c-.2-3.3-.4-6.7-.5-10.1-.1-2.1-.2-4.1-.2-6.2 0-2.4 0-4.8.2-7.2.2-2.3.7-11.2.7-13.4 0-1.8 0-3.7.4-5.4.3-1.3.9-1.2.7.1-.4 2-.5 32.6-.4 33.7.2 2.2.5 4.5.7 6.7.4 4.3.7 8.7 1.1 13l.3 1.2c.3-.2.4-.4.4-.5.1-1.7.3-3.3.3-5 .1-1.4.3-6.8.4-8.1.4-3.8.7-7.7 1.2-11.5.3-2.7 1-5.3 1.2-8 .4-4.6.3-9.2.8-13.8.3-2.3.2-4.5 0-6.8 0-.3.1-.6.1-.9h.4zm-50-9.4c0-.9.1-1.8-.1-3-.2-1.5-.5-3-.8-4.7-.3.3-.5.3-.5.4-.1.2-.2.5-.2.7-.5 2.9-.7 5.7-.3 8.6.3 2.4.7 4.8 1 7.2.3 2.6 1.1 5 2.1 7.4.6 1.4 1 2.8 1.5 4.1 1 2.6 2 5.3 3.2 7.9.9 1.9 2 3.7 2.9 5.6 1 2.1 2.6 3.6 4 5.2.1-.1.2-.1.3-.2-.1-.3-.3-.5-.4-.8-2.2-4.1-4.5-8.1-6.6-12.3-1.2-2.5-2.2-5.1-3.1-7.7-.7-2.1-1.1-4.3-1.5-6.5-.5-2.8-.9-5.6-1.3-8.5-.2-1.1-.2-2.3-.2-3.4zm6.7-9.4c.2-.5.2-1.1.4-1.7-.1-.1-.2-.1-.3-.1-1.3 2.7-2.5 5.4-3.2 8.3-.8 3.3-1.4 6.5-.2 9.8.1.1.1.2.1.3.7 3.1 1.3 6.2 2 9.3.4 1.8 1 3.5 1.5 5.2.5 1.8.9 3.6 1.5 5.3.2.6.7 1.1 1.1 1.6l.4-.2c-.1-.6-.1-1.3-.3-1.9-.9-2.9-2.1-5.7-2.2-8.9-.1-2.5-.8-5.1-1.1-7.6-.4-3-.9-5.9-1-8.9-.1-3.6-.2-7.2 1.3-10.5zm1.5-1.1c-1.1 2.6-1.3 5.4-1.4 8.4 0 .3.1.7.2 1h.3c.1-.3.4-.7.5-1 1-3.1 2.1-6.1 3.1-9.2.1-.2.2-.4.1-.5-.3-.5-.6-.9-1-1.2-.1-.1-.6.2-.8.5-.4.6-.7 1.3-1 2zm-1.6-6.1c.5-1.3.4-2.4-.4-3.5-2.5 2.4-6.7 13.9-4.5 17 .3-.7.6-1.2.8-1.8 1.4-3.9 2.6-7.8 4.1-11.7zm4.3 43.3c1.1 3.4 2.2 6.7 3.5 10.1 1.3 3 2.7 6 4.4 8.8 1.9 3.4 4.2 6.5 6.4 9.7.9 1.3 2.1 2.4 3.1 3.7 1.9 2.4 3.7 4.8 5.6 7.2.2.3.5.5.8.8l.3-.2c-.1-.3-.2-.6-.4-.9-1.4-2-2.7-4-4.1-6-3.3-4.9-6.7-9.7-9.9-14.6-1.3-2.1-2.7-4.2-3.7-6.5-2.1-4.7-3.9-9.5-5-14.6-.9-3.9-1.6-7.8-1.7-11.8-.1-5.2.4-10.2 1.4-15.3.2-1 .1-2.1.2-3.1-.1-.1-.3-.2-.4-.3-.3.3-.8.4-1 .7-.5.8-.9 1.8-1.3 2.7-.9 2.2-1.5 4.6-1.6 7 0 1.9-.4 3.8-.2 5.6.7 5.8 1.8 11.5 3.6 17zm3.8-26.6c-.2-1.6 0-3.3 0-4.7 0-.8.1-1.5.2-2.3-1 .1-1.5.3-1.6 1.3-.2 1.7-.8 3.4-1 5.2-.4 2.7-.8 5.3-.9 8-.1 2.2.2 4.4.2 6.7.1 3.8.7 7.4 1.7 11 .7 2.3 1.3 4.5 2.2 6.7 1.1 2.7 2.3 5.4 3.5 8 .6 1.2 1.2 2.4 1.9 3.6 1.3 2.2 2.5 4.4 3.9 6.5 1.5 2.3 3.2 4.5 4.8 6.8 1.1 1.6 2.2 3.3 3.3 4.9.1.2.3.3.5.5-1.2-2.5-2.5-4.8-3.9-7.1-1.3-2.1-2.8-4.1-4.1-6.2-1.5-2.4-2.8-4.9-3.5-7.7-.7-2.9-1.5-5.8-2-8.8-.5-3-.8-6.1-1-9.1-.2-3-.4-5.9-.5-8.9-.1-1.5.1-3.1-.1-4.7-.2-1.5-.8-12.4-.9-14.4 0-.6-.6-1.2-.3-1.9-1.4 1-2.4 24.6-.3 32.9.3 1.1.3 2.3.5 3.4-.1.1-.2.1-.3.1-.2-.9-.5-1.7-.7-2.5-.5-2-.7-4.1-1.3-6.1-.5-1.8-.1-19.6-.3-21.2zm5 1c-.1 2.8.4 5.6.5 8.3.1 5.6.3 11.1.4 16.7.1 4.5 1.1 8.8 2.4 13 .6 2.1 1.6 4 2.6 5.9 1.5 3.1 3.2 6.1 4.8 9.1.2.4.6.6.9.9.1-.1.2-.1.3-.2.1-.3.2-.6.1-.9-.4-1.8-.7-3.7-1.3-5.4-1.5-4.4-3.2-8.6-4.6-13-1.1-3.5-2.2-7.1-2.7-10.7-.7-5-.7-10.1-1.1-15.2-.2-2.1-.8-19.5-1-20.5-.3.4-1.2 9.4-1.3 12zm12.5 47.5c1.2 3.1 2.5 6.1 3.8 9.4.6 1.7 1 3.5 1.6 5.2.1.4.5.7.7 1l.3-.3c0-.1.1-.2.1-.3v-.8c-.6-6.2-2-12.1-4-17.9-1.4-4.3-3.2-8.4-4.9-12.5-.8-1.9-1.7-3.6-2.4-5.5-.8-2.3-1.4-4.6-2-7-.4-1.8-1.2-11.5-1.1-14.5.1-2.8.8-5.5 1-8.3.2-2.3.4-4.5 1.3-6.6.2-.4 1.1-1.8 1.5-2.1-.1 1-1.4 3.7-1.2 4.4.3 1.2.8 1.6 1.8 1.1.5-.3 1-1.3 1.4-1.8.5-.6.8-1.4 1.2-2 .5-.7 1.1-1.4 1.6-2 .1.1.4-.5.5-.4-.2.4-.6 1.3-.7 1.7-.2.7-.9 1.9-.3 2.5.7.6 1.6-.4 2.1-.7.6-.4 1.3-1 2.2 0-.7.4-1.3.8-1.9 1.1-.7.3-1.3.8-1.5 2 1.2-.1 2.4 0 3.4-.3 3.2-.9 6.4-.4 9.4.7 1.4.5 2.5.3 3.6-.9-1-.7-2-1.6-3.1-2.1-1-.5-2.2-.5-3.3-.6-1-.1-1.6-.6-1.6-1.5-.1-2-1.2-2.9-3-3.2-2.4-.5-4.8-1.3-7 .5-.9.7-1.6.3-2-.5-.8-1.5-2.1-2.3-3.6-2.8s-2-.2-2.4 1.4c-.1.3-.2.7-.4 1-.8 1.3-.7 2.7-.3 4.1.1.3.2.6.2.9.1 5.1.3 21.8.3 23.2-.2 5.2.4 10.4 1.6 15.5.8 3.5 1.8 7 3.5 10.2 1.4 2.8 2.4 5.8 3.6 8.7zm-1.7-67.5c.8 1.7 2.3 2.2 3.6 1.5-1.4-1.9-2.3-2.2-3.6-1.5zm22.7 29c.2 3.3.7 6.6.5 9.8-.2 3.1-1.2 6.1-1.9 9.2-.5 2.1-1 4-.4 6.2.5 1.5.4 3.3.6 4.9.1.9.3 1.8.4 2.7h.3c.1-.2.3-.4.3-.7l.6-3.9c.5-3.6 1.2-7.1 1.5-10.7.4-4.7.5-9.3.7-14 .1-2.6.1-5.1-.9-7.5-.4-1-1-1.8-1.6-2.6-.7-1-1.6-1.8-2.2-2.9-.6-.9-1.2-1.4-2.1-1.7-.8.7-1.6 1.3-2.2 1.8 1.5 1.3 2.7 2.5 4 3.6 1 .8 1.4 2.1 1.8 3.3.2.8.5 1.6.6 2.5zm-9.7-12.1c1.1.1 2.2.1 3.2-.2.1-.1.1-.2.2-.3-.5-.4-1.1-1.2-1.7-1.3-4.1-.4-8.3-1-12 1.6-.5.4-.9.9-1.3 1.4 0 .2.1.3.2.5.8.2 1.9-.1 2.7-.5 2.8-1.5 5.7-1.5 8.7-1.2zm-5.7 54.4c1.1 4 1.5 8.2 2 12.1 0 .3.3.6.5.9.3-.3.7-.6.7-.9.1-.7-.1-1.5-.1-2.2-.3-5-.7-10-1.9-15-1.4-6-3.6-11.7-5.6-17.4-1.1-2.9-2.1-5.7-2.9-8.6-1.4-5.7-.9-11.4 1.3-16.8.5-1.2 2.3-2.4 3.2-2.8 2-.9 3.7-.9 5.8-1.3.6-.1 1.2-.3 1.8-.4v-.4c-.4 0-.8-.2-1.2-.1-2.1.3-4.2.8-6.3 1.1-1.3.2-2.6.6-3.9 0-.3-.1-.8 0-.9.2-1.2 1.7-2.5 3.4-2.8 5.5-.5 2.9-.8 5.9-.4 9 .5 4.2 1.8 8.1 2.8 12.1.6 2.4 1.7 4.6 2.4 6.9 1.9 6 3.9 12 5.5 18.1zm-6-36.5c-.3.3-.4.5-.4.7-.1 3.4.2 6.7 1.7 9.7 1.8 3.6 3 7.4 4.2 11.3.5 1.4.9 2.9 1.4 4.4.2 0 .3-.1.4-.1-1.6-8.9-4.1-17.5-7.3-26zm18.6 22.4c-1.2 1.8-2.7 17.8-1.9 20.6.8.1 1.1-.4 1.2-1 .4-1.5.7-3.1 1-4.6 1-4.6.7-9.2.1-13.8-.1-.4-.3-.7-.4-1.2zm-1.3 32.5c-.2 1-.1 2 .1 2.9.1.1.2.1.3.2.2-.4.6-.6.7-1 .5-2.5 1.1-5 1.5-7.6.4-2.5.7-5 1-7.5.3-1.6.4-3.3.7-5 1-5 2.2-9.9 3.2-14.9.9-4.7 1.5-9.5 1.9-14.4.4-4.2.2-8.3-1-12.4-.1-.4-.1-.9-.2-1.4h-.3c-.1.2-.1.5-.1.7 0 2.3.2 4.6 0 6.8-.3 4-.2 8.1-1 12.1-.8 3.9-1.1 7.9-1.8 11.8-.6 3.3-1.3 6.5-1.9 9.8-.5 2.9-.9 5.9-1.4 8.8-.6 3.7-1.2 7.4-1.7 11.1zm9.3-108.5c-4.8 0-9.1-1.7-11.5-6.7-.3 1.1-.5 2-.6 3-.2 2.4-1.4 4.7-1 7.3.3 2.2.6 4.3 2.1 6 .5.5.8 1.2 1.2 1.8.3.7 1.4 2.5 1.8 3.4.3-.7.4-1.2.7-1.8.3.5.4.9.6 1.2.3.6.5 1.3.9 1.8 1 1.2 2.1 2.2 3.2 3.3.7.7 1.4 1.5 2.1 2.3.6.6 1.1 1.2 1.7 1.9 1.8-.9.4-3 1.5-4.1 1.1.8.1 3 2.3 3.2-.1-1.8-.2-3.4-.3-5 1 0 1 .1 1.3 1 .3 1.1.5 2.2.9 3.3.1.3.5.7.7.7 1 0 1.5-.8 1.2-1.8-.3-.7-.6-1.4-.8-2.2-.2-.7-.3-1.5-.5-2.2.2-.1.2-.1.3-.2 1.3.9 1 2.8 2.3 3.9.6-.6 1.2-1.2 1.6-2 .5-1.1 1-2.2 1.3-3.4.5-2.4 1.6-4.8.9-7.4-.2-.7-.2-1.4-.3-2.1-.3-2.2-1.2-3.8-3.3-4.5-.6-.2-1.1-.7-1.8-.7 2.6-.9 3.9 1.4 5.9 2.3.1-.3.5-1.2.5-1.5 0-2.4 0-4.7-.8-7 .2-.4.2-.9.1-1.3-.2-.6-.6-1.1-1-1.5-.4-.3-.9-.7-1.2-.6-.4.1-.9 1-.9 1-.6.2-4.2 1.4-5.2 2.6 1.4.3 2.7.4 3.9.6.2.6.3 1.1.2 1.6h-.1c-1.6-.2-3.1-.5-4.7-.7-1-.1-2.1-.2-3.1-.2-1.1 0-2.1.3-3.1.4-1.7.2-4.2-.1-5.9.1.6.2-1.1.4.9 1.3-.1.3 7.6 2.1 9.9.8.3-.2.7-.1 1.1-.2 0 .2 1.4-.1 1.4.1-1.7.6-4.7 2.2-6.4 2.2zm-8.9-13.8c-1.6 0-2.4 1.1-1.8 2.8.1.6.2 1.3.4 1.9.2.5.4 1.2 1.2.9 1.2-.4 2.4-.7 3.5-1.3 1.3-.7 2.6-.8 3.9-.4 1.8.5 3.5 1.1 5.2 1.6.5.1 1.1.1 1.6 0 1.1-.3 2.3-.7 3.5-1.1.1-.1.2-.2.4-.3-.1-.2-.1-.4-.2-.4-1.5-.9-3.1-1.1-4.8-.8-1.5.3-2.8.1-3.7-1.5-.2-.3-.7-.6-1.1-.7-1.8-.4-3.7-.7-5.6-1-.6-.1-1.1.1-1.7.2-.3 0-.6.1-.8.1zm13 65.3c.1 4.1 0 8.2-.1 12.2 0 .6-.1 1.2-.2 1.8-.2 2.1-.5 4.1-.7 6.2.1 0 .3.1.4.1.4-.8.9-1.7 1-2.6.3-2.3.5-4.6.8-7 .4-3.6.9-7.2 1.1-10.8.2-2.9 0-5.9 0-8.8 0-3.3-1-6.3-2.2-9.2-.1-.4-.4-.6-.6-1-.6.8-1.4 1.1-1.3 2.3.4 3.1.7 6.3 1 9.4.3 2.5.7 4.9.8 7.4zm2.1 14.3c-.1.5-.2 1.1-.1 1.6.1 0 .2.1.3.1.2-.2.4-.4.5-.7 2.2-4 3.1-8.5 4-13 .6-3 .7-6.1 0-9.2-.4-1.7-.2-3.6-.5-5.4-.4-2.4-.1-4.9-1.1-7.3-.9-2.1-1.6-4.2-3.3-5.7-.3-.2-.7-.1-1-.2-.1.3-.2.7-.1 1.1 0 .3.4.6.5 1 .5 2.1 1 4.2 1.4 6.4 1.1 5.9 1.4 11.8 1.1 17.7-.2 4.6-1.1 9.1-1.7 13.6zm-15.6-50.9c0-1.9-1.4-2.4-1.1-2.8-1.4.4-1.9 1.7-2.3 2.9-.3.9.2 1.6 1.1 2 .2.1.3.3.5.5.3.3.7.8.8.7.4-.2.9-.7.9-1-.1-.8.1-1.5.1-2.3zM188 190c-.1.4 0 .8-.2 1.3.1 0 .2.1.3.1.1-.3.3-.7.4-1 1.1-2.6 2.1-5.1 3.2-7.7 1.4-3.2 2.9-6.3 4.2-9.5.7-1.8 1-3.8 1.6-5.6 1-3 1.9-5.9 2.7-8.8.5-1.3.9-2.6 1.3-3.9.6-2.3 1.2-4.7 1.6-7 .7-3.6 1.1-7.1 1.3-10.7l.9-8.4c.2-1.9.3-3.9.3-5.8 0-2-.1-4-.2-6 0-1.3 0-2.6-.2-3.8-.1-.6-.1-1.6-1-1.5-.9.2-.5 1.1-.5 1.8.1 3.9.1 7.8.1 11.7 0 .4-.1.7-.2 1-1-3.9.2-8.1-1.6-12.2-.3.6-.7 1-.7 1.4.2 1.6-.6 3.3.2 4.9.2.5.2 1.1.3 1.6.3 3.1.6 6.1.9 9.2.2 1.9.3 3.8.5 5.7-.2 3.7-.7 7.5-1.4 11.2-.1.6-.3 1.3-.4 1.9-.7 2.2-1.4 4.4-2.2 6.5-1.2 3.4-2.7 6.8-4 10.2-1 2.7-1.8 5.6-2.7 8.4-1.6 5-3 10-4.5 15zm7-10.9c-1.5 3.7-2.9 7.4-3.9 11.3 1-1.4 1.9-2.9 2.9-4.3 2.9-4.3 7.1-21 7.4-21.7.9-2.3 2-4.7 2.7-7.1 1-3.6 1.8-7.3 2.7-11 .9-3.7 2-7.4 2.5-11.2.5-3.4.3-7 .3-10.5 0-1-.7-9-.9-10.4-.2-1.7-.6-3.3-.9-5 0-.2-.2-.4-.4-.6-.6 1-.8 1.8-.3 2.8.2.2.2.6.2.9.1 2.9.3 5.8.4 8.7-.1 2.9-.3 5.9-.3 8.8.1 3.6-2.4 17.2-2.8 18.8-.6 2.1-1 4.3-1.6 6.4-1.2 3.8-8 24-8 24.1zm6.6-12.1c-.6 1.8-1.1 3.6-1.5 5.4l.3.3c.2-.2.5-.4.7-.7.8-1.1.8-2.4 1.1-3.7.4-1.8 1.1-3.4 1.8-5.1.5-1.2 1.2-2.4 1.7-3.7 1.9-5.5 2.7-11.2 3.5-16.9v-1.4c-.1-.1-.3-.1-.4-.1-.3 1.2-.6 2.5-.9 3.8-.6 3-1.1 6-1.9 8.9-.5 2.2-1.4 4.3-2.1 6.5-.8 2.2-1.6 4.5-2.3 6.7zm3.8-4.7c-.6 1.8-1 3.6-1.7 5.6.1 0 .2.1.3.1l.3-.3c.9-1.5 1.9-2.9 2.8-4.4.4-.7.8-1.4 1.1-2.1 1.6-4 2.5-8.2 3.3-12.4.2-1.1.5-2.3.6-3.4.2-2.9.2-5.8.2-8.7-.1-3.4-.2-6.9-.4-10.4-.1-2.3-.5-4.7-.7-7-.1-.7-.1-1.4-.1-2.2-.1-2.1 0-4.3-.2-6.4-.1-1.5-.4-2.9-.8-4.3 0-.3-.6-.5-1-.8-.1.4-.5.9-.4 1.3.3 2.1.8 4.2 1.1 6.3.5 3.6.9 7.2 1.1 10.8.3 3.9.2 7.8.3 11.7.1 5-.2 10-1.9 14.8-1.4 3.9-2.6 7.9-3.9 11.8zm8.6-65.9c.9-1.3.8-3 .6-4.4-.6-5.4-3.2-9.6-6.7-13.4-.2-.2-.5-.3-.7-.4 0 .1-.1.1-.2.2.2.5.3 1 .6 1.5 1.2 1.9 2.4 3.7 3.6 5.6.3.3.4.8.4 1.3.1 2.4.1 4.7.2 7.1 0 .8.2 1.7.5 2.5.1.4.5.8.8.8.3 0 .7-.5.9-.8zm-.4-12.5c.1-1.3-.5-4-1.2-5-2-2.6-4.3-4.9-6.9-6.7-.4-.2-.8-.4-1.4-.6 0 1.4 1.2 3.6 2.3 4.5 2.6 2.1 5.1 4.1 6.6 7.2.1.2.4.4.6.6zm-5.2-11.3c.6.4 1.2.8 1.9 1.3-1.7-4.7-5.5-6.8-9.4-9 0 2.4 1.4 4.4 3.5 5.4 1.4.7 2.7 1.5 4 2.3zm-37.1-25c1.6-.2 1.1-2.3-.3-1.9-1.5.5-3 1.1-4.4 1.8-2.9 1.5-14.5 7.4-21.8 16.5-1.1 1.3-1.8 2.9-2.9 4.2-2.8 3.5-4.5 7.5-6.1 11.6-.6 1.7-1.5 3.4-2.3 5.1l-3.9 7.5c-.2.4-.2.8-.3 1.2 1 .4 1.7.2 2.1-.7 1.2-2.6 2.5-5.2 3.7-7.8.9-2.2 1.6-4.5 2.7-6.6 2.3-4 4.6-7.9 7.1-11.8 2.7-4.3 6.1-7.8 10.3-10.6 3.2-2.1 13.9-8.2 16.1-8.5zm-32.8 45.6c-.8 2.5-1 4.7-2.9 6.8-.9 1-1.9 1.8-2.6 2.8-.8 1.1-1.2 2.5-1.6 3.8-1.4 4.5-2.5 9.2-3.3 13.9l3.9-10.8c.4-1.1.8-2.1 1.4-3 .8-1 1.9-1.9 2.8-2.8 2.4-2.4 4.7-7.6 2.3-10.7zm-8.9 49.1c-3.6-10.5-5.2-18.3-6.6-17.9-1.2.2-2.8 10.4-1.6 21.1.3 2.7 1.1 5.1 2.1 7.6 1.3 3.5 2.8 6.2 4.5 9.5 1.9 3.7 4.1 7.1 6.2 10.7.1.3.4.5.6.8 1.8 2 3.5 4.1 5.4 6 2.8 2.8 5.6 5.5 8.5 8 3.2 2.7 6.5 5.2 9.8 7.8 1.4 1.1 2.7 2.2 4.1 3.2 1.2.8 2.3 1.6 3.5 2.4.4.2.7.5 1 .7l.3-.3c-.1-.1-.1-.3-.2-.4-11.4-10.3-20.2-23-27.4-36.6-1.1-1.8-2.1-3.7-3.1-5.5-.7-1-1.4-2.1-2-3.1l-3.5-9.4c-.1-.1-.1-.3-.2-.5l-3-8.1c.5 1.3 1.1 2.7 1.6 4zm94.2-31.3c0-1.4.4-5.6.3-7-.2-1.1-.5-2.1-.7-3.2-.8-3.5-.9-9.8-1.1-13.3-.5 10.4-2.4 10.2-.8 13.9.4.8.8 1.5 1.2 2.3.6 1.4.7 5.7 1.1 7.3zm-2.1-2.8c0-1.1-1-4.2-2.9-6.1-1.5-1.6-1.8-2.7-2.9-4.5-.3 2-.2 3.4 1.1 5.4 2.8 4.4 3.7 9.9 2.5 15 1.5-3.6 2.2-5.9 2.2-9.8zm-2-14.4c.1-1.1.2-.9.1-2-.2-1.7-.5-4-.9-5.7-.8-2.8-1.4-5.6-2.2-8.4-.5-1.9-1.3-3.7-2-5.6-.2-.5-.4-1.1-.4-1.6 0-1.1.1-2.3-.1-3.4-.3-2.8-1.7-5.3-3-7.7-1.8-3.3-3.2-6.8-3.7-10.6-.1-.7-.4-1.4-.6-2.1-.2.1.4 6.3 1 8.1.8 2.4 1.7 4.7 2.5 7 1.3 3.8 2.6 7.7 3.9 11.5.8 2.7 1.8 5.3 2.4 8.1.9 3.6 1.5 7.4 2.2 11.1.1.7.3 1.4.5 2.1.2 0 .1-.8.3-.8zm-10.3-32.1c-1.4-3.2-3-6.3-4.1-9.7-.3-1.2-1.1-7.8-1.3-9.7-.1-1-.5-2.2-1.8-2.6-.2.6-.7 1.1-.7 1.7-.1 2.8-.1 5.6.9 8.3 1.5 4.3 3.1 8.5 4.7 12.7 1.1 2.8 2.2 5.5 3.5 8.2 1.9 3.7 3.2 7.7 4.3 11.7.7 2.4 1.1 4.9 1.7 7.3.1.5.3 1 .4 1.5h.3c0-.4.1-.7.1-1-.2-3.3-.6-6.5-1.7-9.7-1-2.9-1.9-5.8-2.9-8.7-1.1-3.3-2-6.8-3.4-10zm-4.2 1.5c-2.8-2.1-4.9-4.8-5.7-8.1-.8-2.3-1.6-4.5-2.4-6.8-.5-1.4-.9-2.7-1.4-4.1-.2-.5-.5-1-.7-1.5-.9-2.4-2.2-4.7-3.9-6.6-.2-.3-.7-.6-1-.5-.3.1-.6.6-.6 1-.1.5.1 1 .4 1.3 1.4 2 2.6 4.1 3.5 6.4.8 2.2 1.4 4.5 2.2 6.7.2.6.5 1.2.8 1.8.7 1.7 1.8 3.2 2.2 4.9.6 2.3 1.3 4.5 3.2 6 1.8 1.5 3.7 3.1 5.6 4.6.1-.2.2-.3.3-.4-.7-1.3-1.3-2.7-1.9-4.1-.1-.3-.4-.4-.6-.6zm-15.1-22.3c-1.4-2.4-2.5-5.1-5.5-5.6-.7-.2-1.5-.8-1.9.1-.1.4.5 1.2.9 1.7l3 3.6.9 1.5c1 1.5 2.2 2.8 2.9 4.4 1.6 3.4 2.9 6.9 4.5 10.4.5 1.2 1.3 2.2 2 3.3.1-.1.3-.1.4-.2v-.7c-.4-2.4-1.1-4.8-2.3-7-.7-1.3-1.2-2.7-1.7-4.1-.7-1.6-1.2-3.3-1.9-4.9-.4-.9-.8-1.7-1.3-2.5zm-7-.1c-.5-.6-.9-1.4-1.6-1.6-1.9-1.3-3.9-2.4-5.8-3.6-.8-.5-1.5-1.1-2.3-1.5-.8-.5-1.6-.8-2.5-.3.3 1.7 2.2 3.8 3.5 4.2 1.5.4 2.8 1.1 4.2 1.7 1 .5 2 1.1 3 1.6.3.1.9 0 1.3 0 .1-.2.1-.3.2-.5zm-8.2-1.4c-1.4-.7-3-1.2-4.1-2.5-.9-1.1-1.6-2.3-2.5-3.5-.7 1-.7 1.9 0 2.7.8.9 1.5 1.8 2.3 2.5 2.9 2.6 5.9 5.1 8.8 7.7 1.1 1 2 2.4 3 3.5.3.4.9.6 1.4.7.1 0 .5-.8.5-1.2.2-1.7.2-3.3-1.2-4.6-.7-.7-1.4-1.4-2.3-1.8-.9-.3-1.6-1-2.4-1.5-1.1-.7-2.3-1.4-3.5-2zm.5 4.4c-2.5-2.3-5-4.6-7.6-6.9.4 3.2 4.5 7.1 7.4 7.2.1-.1.1-.2.2-.3zm-7 .1c-.3-.2-.6-.4-1.1-.6-.2-.1-.5 0-.7 0-2.9.4-5.4 1.9-7.8 3.3-3.1 1.8-5.8 4.3-8.4 6.8-3 2.9-5.8 6-8.1 9.5l-.3.9c.1.1.2.1.3.2l.6-.3c1.4-1.4 2.9-2.8 4.3-4.3 4.5-5 9.3-9.4 15.3-12.1 1.8-.8 4-1.1 5.4-2.5.3-.2.4-.6.5-.9zm-1.6-4c.2-.9-.4-1.3-1.6-1-2.6.9-4.3 3-6.4 4.7l-1.8 1.5c.1.2.3.3.4.5l.6-.3c2.4-2 5.3-3.2 8-4.5.4-.2.7-.6.8-.9zm-14.1 3.4c-2.6 1.8-4.6 4.3-6.8 6.3-2 2.1-4 4.3-6 6.4-.9.9-1.8 1.8-2.6 2.7-1.3 1.5-2.7 3-4 4.5-.3.5-.5 1.1-.7 1.6l.3.3c.6-.5 1.2-1 1.6-1.6 2.4-3.3 5.5-5.9 8.4-8.7 1.8-1.8 3.8-3.3 5.5-5.2 2.5-2.6 4.6-5.6 7.5-7.8.2-.2.3-.5.5-.7-.1-.1-.1-.2-.2-.3-.4.3-.8.4-1.2.7-.8.6-1.5 1.2-2.3 1.8zm-3.6-3c-.5.4-.8 1.2-.4 2.1 3.3-1.4 5.6-4.1 8.5-6-.1-.1-.1-.2-.2-.3-.2 0-.5 0-.7.1-1 .5-2 .9-3 1.5-1.4.8-2.9 1.6-4.2 2.6zm-14.4 31.9c-1.5 2.3-2.9 4.7-4.1 7.1-.3.7-.7 1.4-1.1 2.1l-1.8 5.1c-.1.6-.2 1.1-.3 1.8 3.4-5.2 5.6-11 7.8-16.7-.2.2-.4.4-.5.6zm-6 28.8c-.9 1.9-1.3 4-1.7 6l-2.7 12.9c.6-.1 1.1-.3 1.7-.4 1.1-7.5 2.2-15.3 6.1-21.9 1.3-2.2 5-5.6 4.2-8.3-2.4 4-5.8 7.4-7.6 11.7zm-4.2-11.9c-.2-3-.2-6.1.1-9.2.2-2.1.8-4.2 1.3-6.7-3-3.1-5.3-7.2-7.3-11.6-.8 1.3-1.4 2.5-1.3 3.9.1 1.5.2 2.9.3 4.3.1 1.6.2 3.3.6 4.8.6 1.9 1 3.7 1.3 5.7.4 2.8.7 5.4-1.2 7.8-.6.8-1 1.8-1.1 2.8-.1 2.1 0 4.2.1 6.3 0 .3.1.6 0 .8-.5 1.2-1.1 2.5-1.7 3.6-.9 1.6-1.9 3-2.7 4.5-.6 1.1-.4 1.5.7 2 1.3.5 1.5 1 1 2.4s-1 2.7-1.7 3.9c-.8 1.5-.8 1.8.3 3.1 1.6 1.9 3.4 3.6 5.6 4.7.9.4 2.1 0 2.5-1l.6-1.8c.7-2.6 1.4-5.1 2-7.7.6-2.7 1.1-5.3 1.5-8 .2-2.1.4-4.2.2-6.3-.2-2.8-.9-5.5-1.1-8.3zm-7.2-11.2c-2.3-3.2-4.1-6.7-5.3-10.1-.7 1.4-1.4 2.7-2 4.1-.8 1.6-1.8 2.5-3.5 2.6h-.3c-1 .2-1.7.7-2.1 1.7-.7 1.8-1.4 3.6-2 5.5-.4 1.1-.9 2-2.2 2-1 0-1.9.2-2.9.3-.5.1-1 .1-1.3.4-.9.7-1.8 1.4-2.5 2.3-.5.6-.9 1-1.7 1.2-.3.1-.7.5-.8.9-.3.9-.8.8-1.6.7-.8-.1-1.6-.1-2.3.1-1.6.5-2.7 1.8-4 2.8-1.2.9-1.5 2.1-1.3 3.3.3 1.3.9 2.6 1.5 3.8 1.1 2.3 2.6 4.1 4.7 5.6 1.5 1 2.7 2.4 4 3.6.9.9 1.7 2 3.2 2.2.6.1 1.3.6 1.7 1.2 1.9 2.6 4 4.7 7.3 5.2 2.5.4 4.5-.6 6.3-2.1.9-.9 1.5-2.3 2.2-3.4.2-.3.4-.6.6-1.1-.7-.3-1.3-.6-1.9-.9-1.9-.9-2-1.3-1-3.3 1.3-2.4 2.5-4.7 3.7-7.1.3-.5.5-1.2.4-1.7-.6-1.9 0-3.6.6-5.3.5-1.5.8-3.1 1.6-4.4 1.8-3.1 2.3-6.2 1.1-9.6-.1-.1-.1-.3-.2-.5zM88.6 293.2c-.3-3.6.3-7.1.9-11.1.3-1.8.8-3.5 1.1-5.3.9-4.7 2.5-9.2 4.5-13.5 2-4.4 4.1-8.8 6.2-13.2 1-2.2 1.8-4.7 3.6-6.5.3-.2.4-.6.6-1-.7-.3-24.6-15.9-27.8-18.2-.5-.4-.9-1-1.1-1.5-.1-.3.1-.8.3-1 .2-.1.7-.1 1 .1l8.7 6.3c1.4 1 2.9 1.9 4.3 2.7 2.4 1.4 4.8 2.9 7.3 4.1 2.1 1.1 20.1 9.9 20.3 10 .6.1 1.1.3 1.6.5 2 .6 3.9 1.6 6 1.5.4 0 .7-.2 1.2-.4-.1-.3-.2-.5-.3-.6-3.2-3.3-29.7-17.8-32.5-19.6-3.3-2-6.4-4.3-9.6-6.4-.5-.4-1.1-.7-1.6-1 3.2 1.4 6.2 3 9.3 4.5 2.8 1.5 5.8 2.8 8.7 4.2 2.2 1 4.3 1.9 6.4 2.8 3.2 1.5 15.3 5.6 18.1 6.1 2 .4 4.1.7 6.2.9 1.2.1 8.4 0 10.6-.8 1.3-.5 2.5-.7 3.9-.3 1.9.5 3.9.6 5.9.9.7.1 1.5.3 2.1.1 3.3-.9 6.2-2.4 8.9-4.5.8-.6 1.2-1.6 1.7-2.4l-.3-.3c-.7.3-1.4.5-2.1.8-1.2.4-2.3.9-3.4 1.3-.9.3-1.7.5-2.6.7-.8.2-1.7.5-2.5.5-1.6.1-3.2 0-4.8 0-2.8-.1-5.5-.1-8.3-.2-1.3-.1-2.6-.3-3.8-.7-2.7-.9-24.9-12.9-26.4-14-1.1-.7-2.1-1.6-3.2-2.3-3.6-2.3-7.1-4.5-10.6-6.8-3-2-5.8-4.2-8.9-6-3.4-1.9-6.9-3.5-10.4-5.1-.5-.2-.9-.4-1.4-.5-1.1.8-7.3 5.3-9 6.6-2.2 1.7-4.2 3.7-6 5.8-1 6.9-1.4 17.5-1.4 19.3 1.1 1.1 1 4.2.9 5.5l-.3 4.2c.1.2.1.4.2.6-.2 1.6.4 3.2 1.9 4 1.3.7 3.2.8 4.5-.1 0 0-2.4 2.7-3.5 4-.2.3-.3.8-.5 1.2.4.1.6.2.8.2 3 .5 5.5-.5 7.9-2.3.9-.7 1.8-1.3 2.7-1.9 1.1-.7 2.3-1.3 3.4-1.9 1-.5 1.9-1 2.9-1.4 1.3-.5 3.4 0 4.3.8-4.8.5-8.8 2.9-12.6 5.8-.5.4-1 .7-1.4 1.1-1.8 1.2-3.6 2.6-5.3 4-1.7 1.2-3.4 2.4-4.7 4-1.1 1.4-1.6 3.3-.8 4.9.6 3 1.7 5.7 3.6 8 1.2 1.5 1.2 1.8-.1 3.1-4.1 4.1-3.1 9.9 2 12.3 1.2.5 2.4.8 3.6.9-2.4 1.5-3.7 4.7-3.6 7.6.1 2 .4 4.2 1.9 5.7 2 2 5 1.7 6.9-.2 1.4-1.4 2-3.3 2.3-5.1.4-2.2.6-4.4.8-6.6.1-.3.1-.6.1-.9.3-1.5.7-3 1.3-4.5.5-1.1.9-2.3 1.1-3.5.3-2.6 1-5.1 2.2-7.3 2.1-3.9 3.9-8 6.4-11.7 2.6-3.9 4.5-8.3 6.7-12.5.2-.3.5-.7.8-.9.6-.3 1.2-.4 1.9-.6-.2.3-.3.6-.5.9-1.3 2.3-2.8 4.6-4.1 6.9-2.6 4.6-5.2 9.1-7 14.1-1.5 4.2-2.8 8.4-3.5 12.8-.6 3.6-.8 7.3-1.4 11-.8 4.9-.9 4.9.2 9.7.5 2.5 1.3 4.9 2 7.4.1.3 1-.2 1-.6 0-3.5-.4-14.1-.4-15-.1-3.2.2-6.4.9-9.5.5-2.2 1-4.5 1.5-6.8.1-.6.5-1.1.8-1.6.1 0 .2.1.3.1 0 .3.1.5.1.7-.2 1.5-.4 3.1-.7 4.6-.1.5-.3 1.1-.3 1.7-.3 3.2-.5 6.4-.6 9.6 0 3.4.7 12.8 1 14.1.2.1.3.1.5.1.2-.4.6-.8.6-1.3.1-.9.1-2.1.1-4.2 0-2.6 0-5.2-.2-7.7zm30.8 43.3c.1-.1.1-.2-.3 0-1.5-2.4-14-26.6-15.3-31.5-1.7-6.8-2.6-13.7-2.6-20.7.1-4 .8-7.8 1.8-11.6.7-2.7 1.5-5.4 2.4-8 .6-2.1 1.5-4 2.2-6 .8-2.3 1.6-4.7 2.5-6.9.4-1.1 1.2-1.9 1.8-2.9.3-.6.2-1-.4-1.3-1.5-.8-3.1-.8-4.7-.7-.5 0-1.1.5-1.4.9-1 1.4-1.9 2.8-2.7 4.3-1.4 2.7-2.6 5.7-4.1 8.4-1.1 2-1.4 4.1-1.9 6.2 0 .1.1.3.2.7l2-1c-.2.5-.3.8-.4 1-1.1 1.6-2.2 3.3-3.2 5-2.4 4.1-4.6 8.3-5 13.3-.1 1.3-.1 2.6-.2 3.9 0 1.9-.1 3.8-.1 5.7 0 .9.3 1.7.6 2.6.2.6.7 1 1.1.5.9-1 1.9-2.1 2.3-3.3.5-1.5.8-3.3.8-4.9 0-3.2.4-6.3.9-9.5.3-1.9 1.2-3 2.2-4.2l.3.1c0 .4 0 .9-.2 1.2-1 2-1.3 4.1-1.4 6.3-.2 2.7-.3 5.4 0 8.1.2 1.5.3 3 .2 4.5-.1 2.9 2.4 12 3 13.1 1.6 4.5 3.8 8.8 6 13.1.2.2-.1.5-.3.4-.6-.2-1.3-.5-1.9-.8-1.4-.7-2.7-1.6-4.1-2.3-.7-.4-1.6-.7-2.4-1-.4.3-.5.3-.8.6.1 1 .2 2.1.6 2.9 1.8 3.3 4.4 5.9 7.4 8 .7.5 1.5 1 2.2 1.4.6.2 1.1.5 1.7.7 3.4 1.4 6.8 2.7 10.2 3.9h.7c.1 0 .2 0 .3-.2 0 .1 0 0 0 0zm1.9-56.5c.1-1.4.3-2.8.5-4.3.4-2.5.8-5.1 1.1-7.7.2-1.4.1-1.5-1.2-1.4-.1 0-.3 0-.8-.1l1-1c.9-.9 1.8-1.8 2.6-2.8 3.1-4 4.8-8.6 5.6-13.6.2-1-.1-1.2-1.1-.8-2.6.9-5.3 1.8-7.9 2.8-1.4.5-2.7 1.2-4.1 1.6-2.1.5-4 1.7-5.8 3-.3.2-.6.7-.8 1.2-1.4 3.6-2.9 7.1-4 10.8-.9 2.9-1.5 5.9-2 8.9-.3 1.7-.2 3.3-.3 5-.1 1.7-.1 3.4-.1 5.1 0 .9.4 1 1.1.6 2-1 4-2.1 6.1-2.9 2.9-1.1 6-2 9-3 .8-.2 1-.6 1.1-1.4zm53.7 66.3c17.6 0 34.7-2.6 51.1-7.8-.6-5-1.2-10.1-1.9-15.2-15.5 4.2-31.4 7.3-47.5 7.7-15.1.3-30.4-1.6-44.3-6.9-1-.4-3.1-1-4.9-1.8-2.2 7.8-4.5 14.5-5.3 15.7 17 5.5 34.7 8.3 52.8 8.3zm48.1-56c2.2-4.1 3.2-8.5 4.1-13 .1-1.8.6-3.6 1.1-5.4.5-1.9.6-3.7-.2-5.5-.5-1.2-.9-2.5-1.3-3.8-.2-.6-2.6-5.3-3.9-6.8-2.1-2.6-4.4-5-6.7-7.4-.4-.3-.9-.6-1.4-.6-1.3-.1-2.6 0-3.9 0-.3 0-.7-.3-1-.5.3-.2.5-.6.8-.8.1-.2.4-.1.6-.2 1.1-.4 1.3-1.1.4-1.9-.5-.5-1.1-.9-1.5-1.4-1-1.3-2.3-1.7-3.6-1.1-9.2 4.6-14.4 10.6-16.2 12.5-2.3 2.6-3.7 5.9-5.3 9-.5 1-1 2-.8 3.3.8-.3 1.5-.9 2.2-.9 1.8 0 3.7.4 5.5.6.5 0 1.1.1 1.6.1 2.7-.2 5.3 0 7.4 2.2.7.8 1.4.7 2.3-.1-.5-.7-1.1-1.3-1.6-2-.2-.3-.1-.7-.2-1.1.3 0 .6-.1.9 0l4.5 2.1c1 .4 2.1.7 3.1 1 .1-.1.1-.3.2-.4-.5-.4-1-1.2-1.4-1.1-1.2.3-1.4-.6-1.8-1.2-.5-.8-1-1.7-1.5-2.5-1.4-2.1-2.7-4.1-1.5-6.9.9.2 1.6 1.1 1.7 2.1.1.6.2 1.4.6 1.9 1.4 1.8 3 3.5 4.5 5.2.7.8 1.3 1.7 2 2.5.9 1.1 2.1 2.1 2.8 3.4 1.2 2 2.1 4.2 3.2 6.5.5-.1 1.1-.3 1.9-.5-.1.5-.1 1-.3 1.3-.7 1.4-1.7 2.7-2.1 4.1-.7 2.5-2.2 4.7-3.5 6.8-1.7 2.6-1.9 5.5-2.4 8.4v.4c.1 1.1 1.4 2.6 2.3 2.6 0-.1.1-.2.1-.3-.2-.3-.3-.6-.5-.8-.9-1.2-.9-1.8-.2-3.1s1.3-2.6 2.1-3.8c.6-.9 1.3-1.8 2.1-2.5.2-.3.9-.3 1.3-.1.8.4 1.6 1 2.5 1.7.3-.6.6-1.3 1-2zm4.3-8.5c.4-1.5.7-1.6 2-1.2 1.1.5 2.2.9 3.2 1.6 1.7 1.1 3.4 2.4 4.9 3.7 1 .9 1.8 2.1 2.9 3.4.1-.7.3-1 .3-1.4.1-1.5.4-3 .4-4.5 0-5.3-.1-10.7-.3-16-.1-2-.2-4.2-1.8-5.8-1.2-1.2-7.3-7.3-7.9-7.6-1.9-1-3.6-2.7-5.4-3.8-.9-.5-4.2-1.6-5.5-1.4.9 1 2.4 3.8 3 4.7 2.1 3.3 4 6.6 6 9.9.3.5 1 1 1 1.6.1 1.6.1 3.4-.3 5-.9 3.8-2 7.5-3 11.2-.1.4 0 .8 0 1.2h.3c0-.2.1-.4.2-.6zm18.5 40.1c.8-2.8 1.5-5.7 2.4-8 .5-2.1 1.1-4.3 1.4-6.4.4-2.5 1.2-.2 1.4-2.7.3-3.7.8-7.3.9-10.9.2-6.7.3-13.3.4-19.9.1-1.7 0-3.4 0-5.1-.1-3.1.2-6.3-.2-9.4-.4-2.8-1.3-5.5-2.2-8.2-.7-2.1-2.5-3.1-4.4-3.8-.2-.1-.4.1-.8.2.6 3.5 1.2 7 1.8 10.4.1.5.4 1.1.4 1.6l.3 12.1c.1.3-.1.5-.2.7h-.3c-.1-.5-.2-.9-.2-1.3v-5.6c0-1.7 0-3.4-.2-5-.2-1.8-.6-3.6-1.2-5.4-.8-2.5-1.8-5-2.8-7.4-.2-.4-.6-1-1-1-1.2-.2-2.5-.1-3.7 0-.6 0-.9.5-.5 1.2.5.9 1 1.7 1.5 2.5.4.7 1.2 1.4 1.4 2.2 1.2 4.5 2.9 8.8 2.9 13.6v16.8c0 1.9 0 3.8-.2 5.6-.7 6.2-1.3 10.8-1.6 12.8-.7 4.3-3.5 16-3.8 17.1-.8 2.6-1.3 4-2.2 6.7-.3.8-1.1 3.7-1.5 4.6-1.1 2.4-2 4.9-3 7.3v.1c.9-.3 1.7-.6 2.6-.9.3-.4.6-.9.8-1.4 1.9-5.5 4.4-10.7 5.6-16.5 1-4.5 2.2-9 3-13.6 1-6.1 2.3-7.4 3.1-13.5.1-.8.3-1.5.5-2.2.1.1.3.1.5.1 0 1 .1 2 0 3-.1 1.1-.3 2.1-.5 3.2-.8 5.1-2.2 5.6-3.1 10.7-.7 3.8-.9 7.8-2.1 11.6-.8 2.4-1.2 4.9-1.7 7.4-.4 2.2-.8 4.4-1.1 6.6 0 .3.1.7.2 1.1 0 .1.1.2.2.2s.2 0 .3-.1c.4-.5.8-1 1-1.6 1-2.7 1.9-5.4 2.7-8.2.9-2.9 1.7-6 2.3-9 .8-3.7 1.3-7.4 2-11.1.1-.4 2.5-7.3 2.7-7.7.2 1.1-1.6 8.5-1.8 9.4-.9 5-2 10-2.9 15-.3 1.4-.3 2.9-.5 4.4 0 .1.1.3.2.3s.2-.1.3-.2c.3-.8.7-1.6.9-2.4zm36.9-31.2c-.3.1-.7-.2-.4-1 .2-.3.3-.7.6-.9 1.9-1.3 3.8-2.6 5.7-4 1.2-.8 2-2 2.8-3.8-2.3.3-3.4-1.3-4.8-2.4-1.7-1.3-3.1-2.9-4-4.9-1.8-3.9-3.5-7.8-6.2-11.1-1.5-1.8-3-3.5-4.7-5.1-1.2-1.1-2.6-1.8-3.9-2.8-.4-.3-1.3-.7-.8-1.4.2-.4 1.1-.2 1.7-.2.1 0 .2.1.3.2 1.9 1.7 3.9 3.3 5.9 4.9.2.2.5.3.8.5.4.2.9.3 1.3.6 2.9 2.6 6.2 4.7 9 7.6 1.6 1.7 3.2 3.3 3.8 5.6.2.7.6.9 1.2.8 1.6-.2 2.7-2 2.4-3.8-.5-3.4-2.7-5.5-5.1-7.5-1.1-.9-2.4-1.7-3.7-2.2-1.4-.5-2.8-.8-4.3-1.2-.4-.1-.8 0-1.2 0-.2 0-.4-.2-.6-.3.1-.3.1-.8.3-.8.6-.1 1.2-.2 1.7-.1 1.8.4 3.6 1 5.4 1.4 1.7.4 3.3.7 5 .9.4 0 .9-.2 1.2-.5 1.4-1 1.5-2.7 1.8-4.3.3-1.6 0-2.3-1.4-2.8-.2 0-.3-.1-.5-.1-1.6-.4-3.3-.5-4.9-.9-2.9-.8-5.9-1.4-9-1.1-1.2.1-2.3.3-3.4.4-.6 0-1.4.4-1.6-.8.8-.2 1.5-.6 2.3-.7 3.1-.4 6.3-.6 9.4-.9 2.5-.3 5.1-.5 7.3-1.9 1.8-1.2 1.8-1.5 1-3-.1-.2-.1-.5-.2-.8l-.3-.9c-.7-1.3-1.4-2.7-2.1-4-.3-.4-.6-.7-1-1-1.8-1.5-3.7-1.9-5.8-.8-2.1 1.1-4 2.6-5.7 4.3-.6.6 0 .2-.8-.2 2.4-1.6 4.6-4.6 6.3-5.3 1.5-.7 2.8-1.6 3.7-3 0-.1.1-.2.1-.3.3-4.3-1.5-8.3-2.9-12.6-2.8-8.9-4.2-18.1-5.8-27.3-1.8-10.9-5.2-24-8-34.6-.5-1.6-6-13.2-7.5-11.9-.2 1.2.4 27.7-.2 37.2-.5 7.3-7.4 15.2-9.2 22.3.3-1.9.5-3.9.8-5.9.9-5.7 7.2-12.3 6.9-18.1-.3-3.8-7.7-37-8.1-39.5.2 35.5-9.2 58.4-12.1 65.2-2 4.7-5 10.3-7.6 15.3-1.3 2.5-2.9 4.9-4.3 7.3.2-.4.3-.9.5-1.3 2.6-6.3 5.2-12.6 7.7-18.9.9-2.1 1.5-4.4 2.2-6.6 1.2-3.8 2.6-7.5 3.7-11.4 1.2-3.8 2.1-7.7 3.1-11.5.9-3.1 1.7-6.1 1.8-9.4.1-3.9.6-7.7.9-11.6.3-4.6.2-9.2-.5-13.8-.2-1.6-1-2.7-1.9-3.8-.3-.4-.8-.8-1.2-1.2-.9-.7-1.7-1.5-2.7-2-1-.5-1.5-.2-1.6.9-.2 1.5 3.8 4.6-.9 35.1-.5 2.9-3.2 10.6-3.3 10.8l-1.5 4.5c-.4 1.4-.9 2.8-1.4 4.2-1.3 3.7-2.4 7.4-3.9 11-1.4 3.2-3.2 6.2-5.4 8.9-3.4 4-6.6 8.4-10.1 12.3-3.1 3.4-6.7 6.4-10.6 8.8-3.1 1.9-6.2 3.8-9.3 5.6-1.5.9-3.1 1.8-4.8 2.5-3.8 1.6-7.6 3.3-11.4 4.7-2.4.9-4.9 1.6-7.4 2.1-1.9.5-4 .5-6 .8-.4.1-.7.3-1.2.5.4.4.6.7.9.9 2.2 2 4.4 3.9 5.8 6.7 1.2 2.4 3.3 3.1 5.7 2.8 2.9-.4 5.2-2.2 7.4-3.9 2.8-2.2 5.4-4.7 8-7.1.7-.6 6.9-5.3 9.4-6.8 1.6-1 3.3-1.9 5-2.7 2-.9 4.2-1.7 5.8-.2.8.9 1.6 1.9 2.5 2.7.8.8 1.8 1.9 2.8 2 1.8.3 3.7.3 5.6.3.3.1.7.2 1 .2 8 .1 15.6-1.3 22.9-4.6 3.5-1.6 12.1-4.4 15-7 3-2.7 5.4-6.2 7.7-9.6 2.8-4.1 5.3-8.4 7.4-12.9.1-.2.1-.4.2-.6.1.3.3.8.4 1.1.1.4 0 .9 0 1.3 0 1.5-.1 3-.1 4.5-.1 1.7.1 3.5-.2 5.1-.2 1.6-.8 3.2-1.5 4.6-.7 1.4-1.4 3-2.5 4-2.8 2.6-5.5 5.4-9 7-2.8 1.3-11 3.6-13.8 4.9-1.2.5-2.5.7-3.7 1-.9.3-1.7.5-2.6.8v.3c2.1 1 4.1 2 6.3 3.1.3.9.6 1.9 1 3 .3.7.9 1.4 1 2.1.5 2.1.7 4.3 1 6.4.1 1 .1 2.1.1 3.1.1 2.4.2 4.8.2 7.2-.1 2.7-.3 5.3-.3 8 0 5.3 0 10.5-.1 15.7-.1 3.6-.4 7.2-.7 10.8-.3 4.6-1.2 4.4-2.4 8.9-.6 2.3-1.1 4.5-1.6 6.8-.4 2.2.2 3.1 2.3 3.1.4 0 .8-.1 1.2 0 1.4.3 2.3-.6 3-1.5 1-1.2 1.7-2.7 2.6-4 2.6-4 9.4-9.3 10.5-13.9 1-4.4 1.2-4 .9-8.4-.5-7.1-2.3-14-3.6-20.9-.6-3.1-1.2-6.3-1.8-9.5-.5-3.1-1-6.4-1.7-9.5-.5-2.3-6.7-3.6-7.5-5.8-.3-.9 5.3-2.2 6.1-2.8.2.9.4 1.8.7 2.6 1.3 3.8 2.5 7.7 3 11.8.2 1.8.7 3.5 1.1 5.3.3 1.3.5 2.7.8 4 .2 1 .4 1.9.6 2.9.7 4.8 1.4 9.6 2.2 14.4.4 2.9 1 5.8 1.4 8.7.4 3.2 1 6.3 2.7 9 .5.9 2.9-1.9 3.9-2h.3c.8-.1 1.5.4 2.2.9 1-.7 1.8-1.7 2.2-2.8-.2-1.1-.8-2.2-1.8-3.1-.2-.2-.2-.7-.3-1 .3.1.8 0 1 .2l2.7 2.4c.3.3.7.5 1 .7l.4-.4c1.1-2.3 2.3-4.5 3.1-6.9.6-1.8-.1-2.7-2-3-.4-.1-.8 0-1.2.1-.7.2-1.3.4-2 .5zm50.1-49c7.6-18.2 12.1-37.4 13.6-56.8-4.3-3.2-9.8-4.8-14.2-7.9-.1 0-.1.1-.1.1-.1-.1-.1-.2-.2-.3-.8-.6-1.6-1.3-2.3-2-1.7-1.9-3-4.1-4.6-6.1-.9-1-1.8-2-2.8-3-.4-.4-.8-.8-1.2-1.1-2.3-1.9-4.4-4.1-6.7-6-1.2-1-2.6-1.7-3.8-2.7-2.2-1.7-4.3-3.6-5.8-6-1-1.5-2-2.9-3-4.4-.5-.7-.8-1.3-1.1-2-1.3-2.6-3.8-3-6.2-3.5-1.2-.2-2.4-.2-3.6-.3-.4 0-.7.2-1.1.3.1.4.2.8.5 1.1.5.5 1 1 1.5 1.3 1.4.8 1.8 2.3 2.4 3.7.5 1.1 1.1 2.2 1.8 3.2.8 1.2 1.7 2.3 2.4 3.5.3.5 6.3 9 6.4 9.6-1.8-3-10.4-13.3-11.5-16.8-.3-.8-1.2-1.5-1.8-2.2-1.3-1.3-2.7-2.6-3.7-4.1-1.4-2-2.9-3.6-4.9-4.8-2.4-1.4-10.4-1.7-11.9-4.3-.6-1-1.4-2-1.8-3.1-1.4-3.7-3.9-6.4-6.1-9.5-.9-1.4-2.1-2.4-3.6-3.2-.2-.1-.5-.2-.8-.3-2-.5-3 .3-2.8 2.4.1 1.8.4 3.7 1 5.4.3 1 1.3 1.8 2 2.6l2.7 2.7c.1.1.2.3.2.6-2-2.3-4.9-3.8-6-7-.5-1.7-1.1-3.4-1.6-5.1-1-3.2-2.1-6.2-4.1-8.8-.1-.1-.2-.3-.3-.5-1.9-2.2-3.9-4.3-6.2-6.1-.7-.3-1.3-.6-2-.9-.1 0-.2.1-.4.1 0 1.7 0 3.4-.1 5.1-.1.9-.3 1.7-.7 2.4-1.1 1.9-.6 3.6.5 5.2.3.5.7.9.9 1.4.2.4.3 1 .3 1.5-.1 1.6-.3 3.1 1.3 4.1.8.5 1.4 1.4 2.2 2 2 1.7 2.6 4.2 3.1 6.7-.3-.3-.5-.6-.7-1-.8-1.4-1.5-2.8-2.4-4-.6-.7-1.4-1.2-2-1.6-.8.7-1.2 1.1-1.8 1.5-1.9 1.1-2.7 2.8-2.7 5.1 0 .8-.2 1.7-.3 2.5-.1.7.2 1.2.7 1.8 2.8 3.5 19.4 4 22.5 7 2.6-.4 13.6 17 14.4 19 3 7.7 4.3 15.9 5.7 24.1 3.2 18.9 6.7 37.8 10.9 56.5.8 2 1.5 4.1 2.4 6.1 1.4 3.3 1.8 6.8 2.3 10.3v.4c-.2 2-.5 4-.7 6.1l-.3 5.1c-.1 1.3-.3 2.7-.5 4-.3 2.3-.7 4.7-1.1 7-.2 1.3-.7 2.7-1 4-.4 1.8-.7 3.7-1.2 5.5-.6 2.1-1.3 4.1-2 6.1-.1.2-.1.3-.2.5V301.5c1.8-1.7 3.7-3.5 5.5-5.3 15.7-15.8 28.1-34.1 36.7-54.5zm12.4-62.8c.3.1.6.2 1 .5.1-1.5.1-2.9.1-4.3 0-23.1-4.6-45.6-13.5-66.7-8.6-20.4-21-38.8-36.7-54.5-15.8-15.7-34.1-28.1-54.5-36.7-21.1-9-43.6-13.5-66.7-13.5s-45.6 4.5-67 13.8c-20.4 8.6-38.8 21-54.5 36.7C37.8 70 25.4 88.3 16.8 108.7c-7.5 17.8-11.9 36.6-13.1 56 1.5-1.3 3.3-2.1 5.1-2.8 4.6-1.9 9.3-4 13.7-6.4l1.5-.9c1.1-.6 1.9-1.5 2.9-2.1 3.5-2.1 6.7-4.6 9.6-7.6.3-.2.5-.5.8-.8.8-.9 1.6-1.9 2.4-2.8.8-1 1.5-1.9 2.1-3 .3-.5.6-.9.9-1.4 3.1-5.8 8.7-10.1 12.6-15.5 2.1-2.9 3.8-6.2 6.9-7.8 3-1.6 5.7-8.6 5.8-8.9 1.6-3.2 3.3-6.4 4.5-9.7 1-2.7 2.5-5 3.8-7.5.3-.6 1.4-.5 1.7.3.4 1.3 1.5 1.9 2.5 2.5.3.2.9.2 1.2 0 .6-.3 1.2-.8 1.7-1.2 1.5-1.2 3.2-1.5 5-1.4.5 0 1.2-.3 1.6-.7 1.4-1.4 2.8-2.8 4.1-4.4.9-1.1 1.5-2.4 2.3-3.6.4-.6.9-1.2 1.2-1.7.8.5 1.4.9 2.1 1.2.3.1.9-.2 1.1-.5 1-1.5 1.9-3.1 2.8-4.8.4-.8.9-1.1 1.7-1 2.6.3 3.6-.5 4.5-3l.6-1.5c-.1-1.5.6-2.7 1.5-4 .8-1.9 1.5-3.9 2.3-5.8.8-2.2 2.5-2.4 3.8-.4.9 1.4 1.6 2.9 2.4 4.4 1.3 2.5 2.3 5.2 4.4 7.2.6.7 1.6.5 2.1-.5.6-1.1 1.1-2.3 1.4-3.5.9-2.8 1.6-5.7 2.4-8.6.1-.5.3-1 .6-1.5 1.7-2.8 3.4-5.5 5.1-8.3.1-.2.3-.4.4-.7.8-3.2 3-5.2 5.6-6.8.8-.5 2.7-3 3.3-3.7 1.4-1.8 3.4-3 5.4-3.7 2-.8 3-2.1 5.3-1.7 2.4.5 4.7-3.3 6.6-3.7 2.7-.6 4.8-1.5 7.3-1.5s5 .3 7.5.4c.5 0 1.1-.1 1.6-.2 3.1-.8 5.7 2.6 8.4 3.8 2.8 1.3 5.4 3 8.1 4.3 1.4.7 2.9 1.6 4.6 1.3.1 0 .3 0 .4.1 2.7 1.4 5.5 5.3 7 8.4 1.2 2.6 2.7 5 5 6.8.8.7 1.4 1.8 1.9 2.8 1 2.1 1.9 4.3 2.9 6.4.4.8 1.2 1.5 1.7 2.3 1.7 2.5 2.4 5.3 2.7 8.2.1.8.3 1.6.6 2.3.7 1.7 2.6 7.4 3.1 8.5 1.4 2.9 1.4 12.1 1.3 12.1.4 2.4-2.3 9.4-1.5 14.4 2.1 1 3.9.2 5.6-1.1 2.7-2.1 4.5-4.9 5.9-8.1.4-1 2.2-5.5 4.3-7 4.3 4 7.8 9.5 10.8 14.6.7 1.1 1.4 2.3 2 3.5.4.3.9.6 1.5.8 4.1 1.3 7 4.2 9.4 7.7 1.7 2.4 3.2 4.9 4.8 7.3 1 1.6 2.1 3.1 3.2 4.7.5.6 1 1.3 1.5 2 1.2 1.5 8.3 1.3 9.7 2.4 1 .7 1.9 1.7 2.6 2.7 1.1 1.6 2.7 1.1 4.4 1.3.8.1 5.5-.9 6.8-3.4 1.1-2.2 2.6-7 3.3-5.8.2 4.6 2.2 8.1 4.3 12.2 3 5.8 6.3 11.3 10.1 16.5l7.4 6.7c6.7 6 13.6 12.2 22.1 15.1zM168.5 92.6c.2 0 .3 2.4.4 2.4.9 4.8-.8 9.4-.8 14.4-1.3-.8-1.5-1.8-1.3-2.5.7-2.5 1.2-5.1 1.1-7.6 0-.9 0-1.9.1-2.9 0-.5.3-3.3.5-3.8zm-7-31c-2.1-.1-4.2.4-6.5.6.2-.2.5-.4.8-.5 2.5-1 5.1-1.4 7.7-.6.8.3 1.7.4 2.5.6v.3c-.2.1-.6.2-.8.1-.7-.2-1.4-.3-2.1-.3-.5-.1-1-.2-1.6-.2zm.9 27.3c.2-.1.6-.1.8.1.2.1.1.6 0 .8-.8 1.1-1.7 2-3 2.4-2.1.6-4.1.4-6.1-.3l-.6-.3c.1-.1.2-.3.3-.4.5 0 1.1-.1 1.6 0 2.3.3 4.5-.2 6.3-1.9.2-.1.5-.3.7-.4zm2.3-20.3c1.2.3 1.2.3.8 1.4-2.1-.4-4.1-1-6.1-1.1-2-.1-4 .2-6 .3 0-.1-.1-.3-.1-.4.7-.9 1.7-.9 2.6-.9 2.3 0 4.7-.3 7 .5.6.2 1.2.1 1.8.2z"/>
</svg>
