<svg xmlns="http://www.w3.org/2000/svg" xmlns:xlink="http://www.w3.org/1999/xlink" width="27" height="19" viewBox="0 0 27 19">
    <defs>
        <path id="a" d="M0 0h27v19H0z"/>
    </defs>
    <g fill="none" fill-rule="evenodd">
        <mask id="b" fill="#fff">
            <use xlink:href="#a"/>
        </mask>
        <path fill="#D65656" d="M13.498 9.56L18.82.006c.036.078.063.131.085.187l5.618 14.548c.188.49.38.977.563 1.468.044.12.103.162.229.16.525-.006 1.05-.002 1.575-.002.034 0 .068.007.109.012v2.436h-9.529V16.37h1.427l-1.4-4.11-4 6.739-4-6.738-1.397 4.095h1.42v2.453H0v-2.444h.469c.39 0 .782-.008 1.173.004.153.004.221-.047.277-.193 1.277-3.318 2.56-6.633 3.84-9.95L8.09.196c.02-.054.045-.107.083-.195l5.326 9.56" mask="url(#b)"/>
    </g>
</svg>
