<svg xmlns="http://www.w3.org/2000/svg" width="24" height="25" viewBox="0 0 24 25">
    <path fill="#FFF" fill-rule="nonzero" d="M12 24.03c-6.627 0-12-5.372-12-12 0-6.627 5.373-12 12-12s12 5.373 12 12c0 6.628-5.373 12-12 12zm5.745-6.005c.315 0 .587-.104.819-.31l-3.965-3.964-.274.198c-.297.218-.538.389-.723.51-.185.123-.43.248-.738.376a2.25 2.25 0 0 1-.859.191h-.015c-.266 0-.552-.064-.86-.191a4.437 4.437 0 0 1-.738-.375 18.397 18.397 0 0 1-.722-.511l-.274-.199-3.965 3.966c.231.205.504.309.819.309h11.495zM5.79 11.255a4.14 4.14 0 0 1-.789-.68v6.032l3.495-3.494c-.7-.488-1.6-1.107-2.706-1.858zm12.425 0c-1.064.72-1.968 1.34-2.712 1.86l3.493 3.492v-6.032a4.31 4.31 0 0 1-.781.68zm-.469-4.225H6.25c-.401 0-.71.136-.926.406-.216.271-.324.61-.324 1.015 0 .328.143.684.43 1.066.286.383.59.684.913.902.177.125.711.496 1.601 1.113a517.873 517.873 0 0 1 2.046 1.425l.117.083.215.155c.17.122.31.221.422.297.112.075.247.16.406.254.16.093.309.164.45.21.14.047.27.07.39.07h.015c.12 0 .25-.023.39-.07.141-.046.291-.117.45-.21.159-.094.294-.179.406-.254.112-.076.253-.175.422-.297a52.088 52.088 0 0 1 .332-.238l.79-.55 2.865-1.988c.38-.265.697-.586.952-.96.255-.375.383-.768.383-1.18 0-.343-.124-.637-.371-.882a1.208 1.208 0 0 0-.879-.367z"/>
</svg>
