<svg xmlns="http://www.w3.org/2000/svg" width="40" height="40" viewBox="0 0 40 40">
    <g fill="none" fill-rule="evenodd">
        <path fill="#212123" fill-rule="nonzero" d="M38.841 14.633l-1.016-.215a3.929 3.929 0 0 0-.424-.483c-.077-.073-.16-.14-.244-.206-.834-.666-1.976-1.007-3.407-1.007H29.818l-2.281-.483-6.308-10.373c-.331-.544-.765-.816-1.2-.816-.433 0-.867.272-1.198.816l-6.308 10.372-2.281.483H2.436c-.492 0-.902.33-1.032.778-.026.094-.046.19-.046.293v.811l-.14.03c-1.251.265-1.521 1.198-.602 2.083l4.387 4.228V25.286c0 .591.483 1.07 1.078 1.07h2.797l-1.556 11.1c-.13.93.266 1.483.946 1.483.24 0 .516-.069.816-.215l10.946-5.326 10.945 5.326c.3.146.576.215.816.215.68 0 1.076-.553.946-1.483l-1.556-11.1h.217c.112 0 .218-.02.32-.052.196-.061.367-.175.498-.327.16-.187.26-.426.26-.69V23.43l1.407-1.355c.306-.017.596-.05.875-.097.377-.063.73-.154 1.055-.272a4.318 4.318 0 0 0 1.494-.883 4.17 4.17 0 0 0 1.062-1.58c.12-.31.205-.643.26-.995.04-.26.062-.53.067-.811l.748-.72c.919-.886.649-1.819-.603-2.084zm-1.41 4.024a3.143 3.143 0 0 1-.86 1.384c-.354.33-.802.575-1.343.738-.533.161-1.157.242-1.872.242h-1.957v4.265h-3.59V13.792h5.941c1.294 0 2.263.306 2.907.918.644.611.967 1.482.967 2.61 0 .492-.067.936-.193 1.337zM6.08 23.474v-6.843H2.436v-2.839H13.3v2.839H9.655v8.655H6.08v-1.812zm13.949 2.008c-1.305 0-2.384-.206-3.239-.62-.855-.412-1.548-1.065-2.079-1.96-.53-.893-.797-2.012-.797-3.355 0-1.876.526-3.337 1.578-4.383 1.052-1.045 2.517-1.567 4.395-1.567 1.925 0 3.408.513 4.45 1.54 1.04 1.027 1.562 2.466 1.562 4.316 0 1.343-.228 2.445-.683 3.305a4.85 4.85 0 0 1-1.972 2.007c-.86.478-1.932.717-3.215.717z"/>
        <path fill="#212123" d="M19.88 16.286c-.72 0-1.3.253-1.736.76-.437.507-.655 1.346-.655 2.517 0 1.16.217 1.994.651 2.5.434.508 1.024.761 1.771.761.768 0 1.363-.248 1.783-.745.421-.496.632-1.387.632-2.673 0-1.082-.22-1.873-.66-2.372-.438-.499-1.034-.748-1.786-.748z"/>
        <path fill="#000" d="M32.416 16.129H31.4v2.564h.876c.688 0 1.172-.12 1.451-.357.28-.238.418-.542.418-.914 0-.36-.12-.666-.363-.917-.241-.25-.696-.376-1.365-.376z"/>
    </g>
</svg>
