<svg xmlns="http://www.w3.org/2000/svg" width="40" height="40" viewBox="0 0 40 40">
    <path fill="#212123" fill-rule="evenodd" d="M20 8.163c-1.944 0-3.52-1.59-3.52-3.551S18.057 1.06 20 1.06c1.943 0 3.519 1.59 3.519 3.55 0 1.962-1.576 3.552-3.52 3.552zm5.711-2.248a4.728 4.728 0 0 1 3.673 4.615v4.735c0 1.305-1.053 2.368-2.346 2.368-1.293 0-2.346-1.063-2.346-2.368v-2.367h-9.384v2.367c0 1.305-1.053 2.368-2.346 2.368-1.293 0-2.346-1.063-2.346-2.368V10.53a4.728 4.728 0 0 1 3.673-4.615c.592 2.637 2.922 4.615 5.711 4.615s5.12-1.978 5.711-4.615zm12.47 24.076c1.683.98 2.338 3.152 1.366 4.85-.971 1.699-3.202 2.28-4.885 1.3-1.683-.98-2.26-3.152-1.288-4.85a3.502 3.502 0 0 1 4.807-1.3zm-2.147-8.085c1.937 1.128 2.768 3.448 2.124 5.517a5.845 5.845 0 0 0-6.816 2.684c-1.394 2.437-.861 5.463 1.105 7.298-1.453 1.598-3.86 2.031-5.797.903l-4.063-2.368a2.382 2.382 0 0 1-.859-3.234 2.337 2.337 0 0 1 3.205-.866l2.032 1.183 4.692-8.2-2.032-1.184a2.382 2.382 0 0 1-.859-3.234 2.337 2.337 0 0 1 3.205-.867l4.063 2.368zM6.626 31.29c.972 1.699.395 3.87-1.288 4.851-1.683.98-3.913.399-4.885-1.3-.972-1.698-.317-3.87 1.366-4.85a3.502 3.502 0 0 1 4.807 1.3zm11.646 1.416a2.382 2.382 0 0 1-.859 3.234l-4.063 2.368c-1.937 1.128-4.344.695-5.797-.903 1.967-1.835 2.5-4.861 1.105-7.298a5.845 5.845 0 0 0-6.816-2.684c-.644-2.069.187-4.389 2.124-5.517l4.063-2.368a2.338 2.338 0 0 1 3.205.867 2.382 2.382 0 0 1-.859 3.234l-2.032 1.183 4.692 8.201 2.032-1.183a2.338 2.338 0 0 1 3.205.866z"/>
</svg>
