<svg xmlns="http://www.w3.org/2000/svg" width="40" height="40" viewBox="0 0 40 40">
    <path fill="#212123" fill-rule="evenodd" d="M11.804 10.138c1.77-.004 1.506 1.58 1.502 1.584l-.064 13.308c.002 1.116-1.41 3.072-1.41 3.072-1.044 3.108 1.578 4.216-.256 6.114 2.438 5.002-2.462 5.71-2.462 5.71-1.678.002-1.416-1.672-1.416-1.672l-.016-10.422c.142-2.642-1.508-2.702-1.508-2.702-3.986.006-4.156-4.26-4.162-4.774a3.45 3.45 0 0 1-.008-5.708v-.116c-.008-4.188 4.322-4.384 4.322-4.384l5.478-.01zm25.1 2.688c1.492.8 2.526 2.352 2.526 4.168.004 1.814-1.024 3.378-2.512 4.18l.024 12.138c.082 1.502-1.078.062-1.078.062s-5.026-9.288-19.73-9.26c0 0-1.39.002-1.39-1.322l-.022-11.488s-.248-1.324 1.304-1.326c0 0 13.154.772 19.514-9.136 0 0 1.34-1.77 1.344-.18l.02 12.164zm-14.474-1.63c11.208-.114 12.832-7.708 12.832-7.708-4.184 6.496-12.832 7.708-12.832 7.708zm16.082 7.154c1.016-3.208-1.218-4.508-1.218-4.508 1.664 2.438 1.218 4.508 1.218 4.508z"/>
</svg>
