<svg xmlns="http://www.w3.org/2000/svg" width="24" height="32" viewBox="0 0 24 32">
    <path fill="#F5DDB9" fill-rule="evenodd" d="M12.117 0C5.596 0 .29 5.27.29 11.747c0 1.69.348 3.302 1.035 4.794C4.282 22.968 9.95 29.753 11.618 31.68a.66.66 0 0 0 .998 0c1.667-1.926 7.336-8.71 10.294-15.138a11.387 11.387 0 0 0 1.034-4.794C23.944 5.27 18.638 0 12.117 0zm0 17.848c-3.388 0-6.144-2.737-6.144-6.102 0-3.364 2.756-6.102 6.144-6.102 3.387 0 6.143 2.738 6.143 6.102 0 3.365-2.756 6.102-6.143 6.102z"/>
</svg>
