<svg xmlns="http://www.w3.org/2000/svg" width="32" height="32" viewBox="0 0 32 32">
    <path fill="#171819" fill-rule="nonzero" d="M16 32C7.163 32 0 24.837 0 16S7.163 0 16 0s16 7.163 16 16-7.163 16-16 16zM5.353 15.632l4.609 1.773 1.783 5.911a.536.536 0 0 0 .862.268l2.569-2.159a.748.748 0 0 1 .934-.026l4.633 3.466c.32.24.771.059.851-.338l3.394-16.825c.088-.434-.326-.796-.727-.636L5.348 14.585c-.467.185-.463.866.005 1.047zm6.105.83l9.006-5.717c.162-.103.329.123.19.256l-7.433 7.12c-.261.25-.43.586-.478.95l-.253 1.934c-.033.258-.385.283-.454.034l-.974-3.527a.948.948 0 0 1 .396-1.05z"/>
</svg>
