<svg xmlns="http://www.w3.org/2000/svg" width="16" height="16" viewBox="0 0 16 16">
    <g fill="#FFF" fill-rule="evenodd">
        <path d="M7.972.056C3.576.056 0 3.632 0 8.028 0 12.424 3.576 16 7.972 16c4.396 0 7.972-3.576 7.972-7.972 0-4.396-3.576-7.972-7.972-7.972zm0 14.247a6.283 6.283 0 0 1-6.276-6.275 6.283 6.283 0 0 1 6.276-6.276 6.283 6.283 0 0 1 6.276 6.276 6.283 6.283 0 0 1-6.276 6.275z"/>
        <path d="M12.127 7.782H8.544V3.474a.656.656 0 1 0-1.312 0v4.964c0 .363.294.656.656.656h4.239a.656.656 0 1 0 0-1.312z"/>
    </g>
</svg>
