<svg xmlns="http://www.w3.org/2000/svg" width="32" height="32" viewBox="0 0 32 32">
    <path fill="#171819" fill-rule="nonzero" d="M16 32C7.163 32 0 24.837 0 16S7.163 0 16 0s16 7.163 16 16-7.163 16-16 16zm10.851-10.271a1.548 1.548 0 0 0-.078-.148c-.398-.71-1.16-1.58-2.284-2.612l-.024-.024-.012-.012-.012-.011h-.012c-.51-.481-.833-.804-.969-.97-.247-.315-.303-.634-.167-.958.095-.244.454-.76 1.076-1.548.327-.417.586-.752.778-1.004 1.38-1.813 1.977-2.971 1.794-3.476l-.071-.118c-.048-.07-.172-.135-.371-.195-.2-.059-.455-.068-.766-.03l-3.444.024a.452.452 0 0 0-.24.006l-.155.036-.06.03-.048.035a.53.53 0 0 0-.132.124.81.81 0 0 0-.119.207 19.2 19.2 0 0 1-1.28 2.66c-.295.488-.566.912-.813 1.27a6.125 6.125 0 0 1-.622.792c-.168.17-.319.305-.455.408-.135.102-.239.146-.31.13a8.898 8.898 0 0 1-.204-.047.79.79 0 0 1-.27-.29 1.286 1.286 0 0 1-.137-.461 5.022 5.022 0 0 1-.042-.479 9.88 9.88 0 0 1 .006-.567c.009-.245.012-.41.012-.497 0-.3.006-.624.018-.975l.03-.833c.008-.205.012-.422.012-.65a2.7 2.7 0 0 0-.042-.538 1.825 1.825 0 0 0-.125-.378.64.64 0 0 0-.245-.284 1.392 1.392 0 0 0-.4-.16c-.424-.094-.962-.145-1.616-.153-1.483-.016-2.436.079-2.859.283a1.608 1.608 0 0 0-.454.355c-.144.173-.164.268-.06.284.479.07.817.24 1.017.508l.072.142c.055.102.111.284.167.544.056.26.092.547.108.862.04.576.04 1.068 0 1.478-.04.41-.078.729-.114.957a1.9 1.9 0 0 1-.161.556c-.072.142-.12.228-.144.26a.205.205 0 0 1-.06.059.905.905 0 0 1-.323.06c-.111 0-.247-.056-.406-.166a2.857 2.857 0 0 1-.497-.456 6.084 6.084 0 0 1-.58-.81 14.075 14.075 0 0 1-.67-1.229l-.191-.342c-.12-.221-.283-.542-.49-.964-.208-.421-.391-.83-.55-1.223a.78.78 0 0 0-.288-.378l-.06-.036a.821.821 0 0 0-.19-.1 1.28 1.28 0 0 0-.276-.077l-3.277.023c-.335 0-.562.075-.682.225l-.048.07a.379.379 0 0 0-.036.19c0 .087.024.193.072.32a38.812 38.812 0 0 0 1.56 3.214 36.027 36.027 0 0 0 1.466 2.494c.414.63.837 1.226 1.268 1.785.43.56.715.918.855 1.076.14.158.25.276.329.354l.299.284c.191.19.472.416.843.68.371.264.782.524 1.232.78.45.256.975.465 1.573.626a5.5 5.5 0 0 0 1.747.195h1.375c.28-.023.49-.11.634-.26l.048-.059a.778.778 0 0 0 .09-.218c.027-.099.041-.207.041-.325a3.85 3.85 0 0 1 .078-.916c.06-.272.127-.477.203-.615a1.512 1.512 0 0 1 .461-.52.786.786 0 0 1 .095-.041c.192-.063.417-.002.676.183.26.185.503.414.73.686.227.272.5.577.82.916.318.339.598.59.837.756l.239.142c.16.095.367.181.622.26.255.079.478.099.67.06l3.062-.048c.302 0 .538-.05.705-.148.168-.098.267-.207.3-.325a.905.905 0 0 0 .005-.402 1.47 1.47 0 0 0-.084-.313z"/>
</svg>
