<svg xmlns="http://www.w3.org/2000/svg" width="18" height="17" viewBox="0 0 18 17">
    <g fill="none" fill-rule="evenodd">
        <g fill="#1565C0">
            <path d="M10.359.104a.38.38 0 0 0-.318-.074L.291 2.242A.37.37 0 0 0 0 2.604v12.532a.37.37 0 0 0 .318.364l9.75 1.474a.374.374 0 0 0 .432-.364V.393a.366.366 0 0 0-.141-.289z"/>
            <path d="M17.625 15.504h-7.5a.372.372 0 0 1-.375-.368c0-.204.168-.369.375-.369h7.125V2.236h-7.125a.372.372 0 0 1-.375-.369c0-.203.168-.368.375-.368h7.5c.207 0 .375.165.375.368v13.269a.372.372 0 0 1-.375.368z"/>
        </g>
        <path fill="#FAFAFA" d="M6.375 11.819a.374.374 0 0 1-.36-.267l-1.14-3.92-1.14 3.92a.392.392 0 0 1-.72 0l-1.5-5.16a.367.367 0 0 1 .243-.463.376.376 0 0 1 .477.26l1.14 3.92 1.14-3.92a.392.392 0 0 1 .72 0l1.14 3.92 1.14-3.92a.371.371 0 0 1 .455-.255l.009.002c.199.056.314.26.257.456l-1.5 5.16a.374.374 0 0 1-.361.267z"/>
        <g fill="#1565C0">
            <path d="M16.125 4.447h-6a.372.372 0 0 1-.375-.368c0-.204.168-.369.375-.369h6c.207 0 .375.165.375.369a.372.372 0 0 1-.375.368zM16.125 6.659h-6a.372.372 0 0 1-.375-.369c0-.203.168-.368.375-.368h6c.207 0 .375.165.375.368a.372.372 0 0 1-.375.369zM16.125 8.87h-6a.372.372 0 0 1-.375-.369c0-.203.168-.368.375-.368h6c.207 0 .375.165.375.368a.372.372 0 0 1-.375.37zM16.125 11.081h-6a.372.372 0 0 1-.375-.368c0-.204.168-.369.375-.369h6c.207 0 .375.165.375.369a.372.372 0 0 1-.375.368zM16.125 13.293h-6a.372.372 0 0 1-.375-.369c0-.203.168-.368.375-.368h6c.207 0 .375.165.375.368a.372.372 0 0 1-.375.369z"/>
        </g>
    </g>
</svg>
